M48
; DRILL file KiCad 10.0.5 date 2026-09-14T01:27:44
; FORMAT={-:-/ absolute / metric / decimal}
; #@! TF.CreationDate,2026-09-14T01:27:44-07:00
; #@! TF.GenerationSoftware,Kicad,Pcbnew,10.0.5
; #@! TF.FileFunction,Plated,1,4,PTH
FMAT,2
METRIC
; #@! TA.AperFunction,Plated,PTH,ViaDrill
T1C0.200
; #@! TA.AperFunction,Plated,PTH,ViaDrill
T2C0.300
; #@! TA.AperFunction,Plated,PTH,ComponentDrill
T3C0.600
; #@! TA.AperFunction,Plated,PTH,ComponentDrill
T4C0.900
; #@! TA.AperFunction,Plated,PTH,ComponentDrill
T5C1.000
; #@! TA.AperFunction,Plated,PTH,ComponentDrill
T6C1.020
; #@! TA.AperFunction,Plated,PTH,ComponentDrill
T7C1.100
%
G90
G05
T1
X118.07Y-51.585
X118.07Y-52.835
X119.32Y-51.585
X119.32Y-52.835
T2
X52.6Y-80.2
X53.0Y-86.4
X55.75Y-82.75
X56.0Y-65.6
X56.607Y-72.407
X56.793Y-77.993
X56.8Y-78.8
X58.381Y-80.581
X60.0Y-77.5
X63.4Y-85.6
X67.0Y-81.0
X71.0Y-82.75
X72.0Y-84.225
X74.7Y-100.8
X74.7Y-102.0
X76.0Y-87.6
X77.0Y-111.0
X77.5Y-94.0
X78.0Y-73.75
X78.0Y-112.0
X80.2Y-79.2
X80.344Y-74.744
X80.453Y-77.547
X80.6Y-85.6
X80.7Y-100.8
X80.7Y-102.0
X81.6Y-98.1
X81.6Y-98.9
X82.3Y-95.8
X82.3Y-96.6
X84.2Y-84.8
X88.4Y-82.4
X89.0Y-81.4
X89.0Y-83.0
X89.2Y-115.6
X90.25Y-88.5
X90.25Y-89.5
X90.4Y-84.2
X92.0Y-147.8
X93.05Y-97.25
X94.6Y-111.6
X95.5Y-110.0
X97.4Y-94.4
X97.4Y-95.6
X97.4Y-98.9
X97.4Y-100.1
X98.0Y-115.0
X99.8Y-147.2
X100.188Y-80.587
X104.0Y-77.5
X104.2Y-61.2
X104.75Y-82.75
X104.8Y-81.0
X104.925Y-56.8
X104.925Y-69.6
X105.102Y-79.698
X106.5Y-49.5
X106.5Y-54.0
X106.5Y-58.0
X106.5Y-60.5
X107.0Y-135.0
X107.8Y-67.0
X109.0Y-55.6
X109.8Y-75.0
X110.0Y-64.5
X110.4Y-146.4
X110.6Y-75.8
X110.997Y-149.059
X111.0Y-140.4
X111.0Y-143.0
X111.4Y-131.2
X111.4Y-145.4
X112.2Y-131.2
X113.75Y-64.25
X113.8Y-52.8
X113.8Y-54.2
X115.407Y-57.407
X116.207Y-58.625
X117.0Y-58.6
X118.75Y-137.25
X118.8Y-143.0
X123.0Y-51.6
X123.0Y-52.6
X124.4Y-57.375
X125.8Y-56.8
X126.4Y-58.0
X132.425Y-65.194
X134.0Y-58.0
X134.15Y-63.1
X157.0Y-99.4
X157.0Y-100.2
X157.0Y-101.0
X157.0Y-117.4
X157.0Y-118.2
X157.0Y-119.0
X157.0Y-135.4
X157.0Y-136.2
X157.0Y-137.0
T4
X124.0Y-86.0
X126.54Y-86.0
T5
X79.0Y-141.0
X81.5Y-141.0
T6
X56.0Y-59.0
X56.0Y-62.0
X56.0Y-138.0
X56.0Y-141.0
X59.0Y-59.0
X59.0Y-62.0
X62.0Y-59.0
X62.0Y-62.0
X71.0Y-59.0
X74.0Y-59.0
X77.0Y-59.0
X86.0Y-59.0
X86.0Y-62.0
X89.0Y-59.0
X89.0Y-62.0
X92.0Y-59.0
X92.0Y-62.0
X161.0Y-99.0
X161.0Y-117.0
X161.0Y-135.0
X164.0Y-99.0
X164.0Y-117.0
X164.0Y-135.0
T7
X124.0Y-102.0
X124.0Y-106.5
X124.0Y-114.0
X124.0Y-118.5
X124.0Y-126.0
X124.0Y-130.5
X130.5Y-102.0
X130.5Y-106.5
X130.5Y-114.0
X130.5Y-118.5
X130.5Y-126.0
X130.5Y-130.5
T3
G00X106.68Y-147.67
M15
G01X106.68Y-148.77
M16
G05
G00X106.68Y-152.0
M15
G01X106.68Y-152.8
M16
G05
G00X115.32Y-147.67
M15
G01X115.32Y-148.77
M16
G05
G00X115.32Y-152.0
M15
G01X115.32Y-152.8
M16
G05
M30
