%TF.GenerationSoftware,KiCad,Pcbnew,10.0.5*%
%TF.CreationDate,2026-09-14T10:40:46-07:00*%
%TF.ProjectId,mains,6d61696e-732e-46b6-9963-61645f706362,rev?*%
%TF.SameCoordinates,Original*%
%TF.FileFunction,Legend,Top*%
%TF.FilePolarity,Positive*%
%FSLAX46Y46*%
G04 Gerber Fmt 4.6, Leading zero omitted, Abs format (unit mm)*
G04 Created by KiCad (PCBNEW 10.0.5) date 2026-09-14 10:40:46*
%MOMM*%
%LPD*%
G01*
G04 APERTURE LIST*
%ADD10C,0.150000*%
G04 APERTURE END LIST*
D10*
X119000000Y-139000000D02*
X121000000Y-137000000D01*
X119600000Y-138933333D02*
X121000000Y-139233333D01*
X120100000Y-139666667D02*
X121000000Y-139866667D01*
X121000000Y-137000000D02*
X123000000Y-139000000D01*
X121000000Y-139233333D02*
X122400000Y-138933333D01*
X121000000Y-139866667D02*
X121900000Y-139666667D01*
X121000000Y-141000000D02*
X119000000Y-139000000D01*
X123000000Y-139000000D02*
X121000000Y-141000000D01*
X38150000Y-53508557D02*
X38664286Y-53508557D01*
X38407143Y-54408557D02*
X38407143Y-53508557D01*
X38921428Y-53594271D02*
X38964285Y-53551414D01*
X38964285Y-53551414D02*
X39050000Y-53508557D01*
X39050000Y-53508557D02*
X39264285Y-53508557D01*
X39264285Y-53508557D02*
X39350000Y-53551414D01*
X39350000Y-53551414D02*
X39392857Y-53594271D01*
X39392857Y-53594271D02*
X39435714Y-53679985D01*
X39435714Y-53679985D02*
X39435714Y-53765700D01*
X39435714Y-53765700D02*
X39392857Y-53894271D01*
X39392857Y-53894271D02*
X38878571Y-54408557D01*
X38878571Y-54408557D02*
X39435714Y-54408557D01*
X39778571Y-54151414D02*
X40207143Y-54151414D01*
X39692857Y-54408557D02*
X39992857Y-53508557D01*
X39992857Y-53508557D02*
X40292857Y-54408557D01*
X41578571Y-53937128D02*
X41278571Y-53937128D01*
X41278571Y-54408557D02*
X41278571Y-53508557D01*
X41278571Y-53508557D02*
X41707143Y-53508557D01*
X42050000Y-53508557D02*
X42050000Y-54237128D01*
X42050000Y-54237128D02*
X42092857Y-54322842D01*
X42092857Y-54322842D02*
X42135715Y-54365700D01*
X42135715Y-54365700D02*
X42221429Y-54408557D01*
X42221429Y-54408557D02*
X42392857Y-54408557D01*
X42392857Y-54408557D02*
X42478572Y-54365700D01*
X42478572Y-54365700D02*
X42521429Y-54322842D01*
X42521429Y-54322842D02*
X42564286Y-54237128D01*
X42564286Y-54237128D02*
X42564286Y-53508557D01*
X42950000Y-54365700D02*
X43078572Y-54408557D01*
X43078572Y-54408557D02*
X43292857Y-54408557D01*
X43292857Y-54408557D02*
X43378572Y-54365700D01*
X43378572Y-54365700D02*
X43421429Y-54322842D01*
X43421429Y-54322842D02*
X43464286Y-54237128D01*
X43464286Y-54237128D02*
X43464286Y-54151414D01*
X43464286Y-54151414D02*
X43421429Y-54065700D01*
X43421429Y-54065700D02*
X43378572Y-54022842D01*
X43378572Y-54022842D02*
X43292857Y-53979985D01*
X43292857Y-53979985D02*
X43121429Y-53937128D01*
X43121429Y-53937128D02*
X43035714Y-53894271D01*
X43035714Y-53894271D02*
X42992857Y-53851414D01*
X42992857Y-53851414D02*
X42950000Y-53765700D01*
X42950000Y-53765700D02*
X42950000Y-53679985D01*
X42950000Y-53679985D02*
X42992857Y-53594271D01*
X42992857Y-53594271D02*
X43035714Y-53551414D01*
X43035714Y-53551414D02*
X43121429Y-53508557D01*
X43121429Y-53508557D02*
X43335714Y-53508557D01*
X43335714Y-53508557D02*
X43464286Y-53551414D01*
X43850000Y-53937128D02*
X44150000Y-53937128D01*
X44278572Y-54408557D02*
X43850000Y-54408557D01*
X43850000Y-54408557D02*
X43850000Y-53508557D01*
X43850000Y-53508557D02*
X44278572Y-53508557D01*
X44664286Y-54408557D02*
X44664286Y-53508557D01*
X44664286Y-53508557D02*
X44878572Y-53508557D01*
X44878572Y-53508557D02*
X45007143Y-53551414D01*
X45007143Y-53551414D02*
X45092858Y-53637128D01*
X45092858Y-53637128D02*
X45135715Y-53722842D01*
X45135715Y-53722842D02*
X45178572Y-53894271D01*
X45178572Y-53894271D02*
X45178572Y-54022842D01*
X45178572Y-54022842D02*
X45135715Y-54194271D01*
X45135715Y-54194271D02*
X45092858Y-54279985D01*
X45092858Y-54279985D02*
X45007143Y-54365700D01*
X45007143Y-54365700D02*
X44878572Y-54408557D01*
X44878572Y-54408557D02*
X44664286Y-54408557D01*
X46250000Y-54408557D02*
X46250000Y-53508557D01*
X46678571Y-54408557D02*
X46678571Y-53508557D01*
X46678571Y-53508557D02*
X47192857Y-54408557D01*
X47192857Y-54408557D02*
X47192857Y-53508557D01*
X47621428Y-54408557D02*
X47621428Y-53508557D01*
X47621428Y-53508557D02*
X47964285Y-53508557D01*
X47964285Y-53508557D02*
X48050000Y-53551414D01*
X48050000Y-53551414D02*
X48092857Y-53594271D01*
X48092857Y-53594271D02*
X48135714Y-53679985D01*
X48135714Y-53679985D02*
X48135714Y-53808557D01*
X48135714Y-53808557D02*
X48092857Y-53894271D01*
X48092857Y-53894271D02*
X48050000Y-53937128D01*
X48050000Y-53937128D02*
X47964285Y-53979985D01*
X47964285Y-53979985D02*
X47621428Y-53979985D01*
X48521428Y-53508557D02*
X48521428Y-54237128D01*
X48521428Y-54237128D02*
X48564285Y-54322842D01*
X48564285Y-54322842D02*
X48607143Y-54365700D01*
X48607143Y-54365700D02*
X48692857Y-54408557D01*
X48692857Y-54408557D02*
X48864285Y-54408557D01*
X48864285Y-54408557D02*
X48950000Y-54365700D01*
X48950000Y-54365700D02*
X48992857Y-54322842D01*
X48992857Y-54322842D02*
X49035714Y-54237128D01*
X49035714Y-54237128D02*
X49035714Y-53508557D01*
X49335714Y-53508557D02*
X49850000Y-53508557D01*
X49592857Y-54408557D02*
X49592857Y-53508557D01*
X40550000Y-82937128D02*
X40250000Y-82937128D01*
X40250000Y-83408557D02*
X40250000Y-82508557D01*
X40250000Y-82508557D02*
X40678572Y-82508557D01*
X41021429Y-83408557D02*
X41021429Y-82508557D01*
X41878572Y-83408557D02*
X41450000Y-83408557D01*
X41450000Y-83408557D02*
X41450000Y-82508557D01*
X42050000Y-82508557D02*
X42564286Y-82508557D01*
X42307143Y-83408557D02*
X42307143Y-82508557D01*
X42864285Y-82937128D02*
X43164285Y-82937128D01*
X43292857Y-83408557D02*
X42864285Y-83408557D01*
X42864285Y-83408557D02*
X42864285Y-82508557D01*
X42864285Y-82508557D02*
X43292857Y-82508557D01*
X44192857Y-83408557D02*
X43892857Y-82979985D01*
X43678571Y-83408557D02*
X43678571Y-82508557D01*
X43678571Y-82508557D02*
X44021428Y-82508557D01*
X44021428Y-82508557D02*
X44107143Y-82551414D01*
X44107143Y-82551414D02*
X44150000Y-82594271D01*
X44150000Y-82594271D02*
X44192857Y-82679985D01*
X44192857Y-82679985D02*
X44192857Y-82808557D01*
X44192857Y-82808557D02*
X44150000Y-82894271D01*
X44150000Y-82894271D02*
X44107143Y-82937128D01*
X44107143Y-82937128D02*
X44021428Y-82979985D01*
X44021428Y-82979985D02*
X43678571Y-82979985D01*
X45692857Y-83408557D02*
X45264285Y-83408557D01*
X45264285Y-83408557D02*
X45264285Y-82508557D01*
X45992856Y-83408557D02*
X45992856Y-82508557D01*
X46421427Y-83408557D02*
X46421427Y-82508557D01*
X46421427Y-82508557D02*
X46935713Y-83408557D01*
X46935713Y-83408557D02*
X46935713Y-82508557D01*
X47364284Y-82937128D02*
X47664284Y-82937128D01*
X47792856Y-83408557D02*
X47364284Y-83408557D01*
X47364284Y-83408557D02*
X47364284Y-82508557D01*
X47364284Y-82508557D02*
X47792856Y-82508557D01*
X41278572Y-85408557D02*
X40764286Y-85408557D01*
X41021429Y-85408557D02*
X41021429Y-84508557D01*
X41021429Y-84508557D02*
X40935715Y-84637128D01*
X40935715Y-84637128D02*
X40850000Y-84722842D01*
X40850000Y-84722842D02*
X40764286Y-84765700D01*
X42778572Y-85408557D02*
X42350000Y-85408557D01*
X42350000Y-85408557D02*
X42350000Y-84508557D01*
X45092856Y-84594271D02*
X45135713Y-84551414D01*
X45135713Y-84551414D02*
X45221428Y-84508557D01*
X45221428Y-84508557D02*
X45435713Y-84508557D01*
X45435713Y-84508557D02*
X45521428Y-84551414D01*
X45521428Y-84551414D02*
X45564285Y-84594271D01*
X45564285Y-84594271D02*
X45607142Y-84679985D01*
X45607142Y-84679985D02*
X45607142Y-84765700D01*
X45607142Y-84765700D02*
X45564285Y-84894271D01*
X45564285Y-84894271D02*
X45049999Y-85408557D01*
X45049999Y-85408557D02*
X45607142Y-85408557D01*
X46678570Y-85408557D02*
X46678570Y-84508557D01*
X46678570Y-84508557D02*
X47192856Y-85408557D01*
X47192856Y-85408557D02*
X47192856Y-84508557D01*
X42278572Y-56408557D02*
X41764286Y-56408557D01*
X42021429Y-56408557D02*
X42021429Y-55508557D01*
X42021429Y-55508557D02*
X41935715Y-55637128D01*
X41935715Y-55637128D02*
X41850000Y-55722842D01*
X41850000Y-55722842D02*
X41764286Y-55765700D01*
X43778572Y-56408557D02*
X43350000Y-56408557D01*
X43350000Y-56408557D02*
X43350000Y-55508557D01*
X46092856Y-55594271D02*
X46135713Y-55551414D01*
X46135713Y-55551414D02*
X46221428Y-55508557D01*
X46221428Y-55508557D02*
X46435713Y-55508557D01*
X46435713Y-55508557D02*
X46521428Y-55551414D01*
X46521428Y-55551414D02*
X46564285Y-55594271D01*
X46564285Y-55594271D02*
X46607142Y-55679985D01*
X46607142Y-55679985D02*
X46607142Y-55765700D01*
X46607142Y-55765700D02*
X46564285Y-55894271D01*
X46564285Y-55894271D02*
X46049999Y-56408557D01*
X46049999Y-56408557D02*
X46607142Y-56408557D01*
X47678570Y-56408557D02*
X47678570Y-55508557D01*
X47678570Y-55508557D02*
X48192856Y-56408557D01*
X48192856Y-56408557D02*
X48192856Y-55508557D01*
X43335714Y-129937128D02*
X43035714Y-129937128D01*
X43035714Y-130408557D02*
X43035714Y-129508557D01*
X43035714Y-129508557D02*
X43464286Y-129508557D01*
X43807143Y-130408557D02*
X43807143Y-129508557D01*
X44664286Y-130408557D02*
X44235714Y-130408557D01*
X44235714Y-130408557D02*
X44235714Y-129508557D01*
X44835714Y-129508557D02*
X45350000Y-129508557D01*
X45092857Y-130408557D02*
X45092857Y-129508557D01*
X45649999Y-129937128D02*
X45949999Y-129937128D01*
X46078571Y-130408557D02*
X45649999Y-130408557D01*
X45649999Y-130408557D02*
X45649999Y-129508557D01*
X45649999Y-129508557D02*
X46078571Y-129508557D01*
X46978571Y-130408557D02*
X46678571Y-129979985D01*
X46464285Y-130408557D02*
X46464285Y-129508557D01*
X46464285Y-129508557D02*
X46807142Y-129508557D01*
X46807142Y-129508557D02*
X46892857Y-129551414D01*
X46892857Y-129551414D02*
X46935714Y-129594271D01*
X46935714Y-129594271D02*
X46978571Y-129679985D01*
X46978571Y-129679985D02*
X46978571Y-129808557D01*
X46978571Y-129808557D02*
X46935714Y-129894271D01*
X46935714Y-129894271D02*
X46892857Y-129937128D01*
X46892857Y-129937128D02*
X46807142Y-129979985D01*
X46807142Y-129979985D02*
X46464285Y-129979985D01*
X48478571Y-130408557D02*
X48049999Y-130408557D01*
X48049999Y-130408557D02*
X48049999Y-129508557D01*
X48949999Y-129508557D02*
X49121427Y-129508557D01*
X49121427Y-129508557D02*
X49207142Y-129551414D01*
X49207142Y-129551414D02*
X49292856Y-129637128D01*
X49292856Y-129637128D02*
X49335713Y-129808557D01*
X49335713Y-129808557D02*
X49335713Y-130108557D01*
X49335713Y-130108557D02*
X49292856Y-130279985D01*
X49292856Y-130279985D02*
X49207142Y-130365700D01*
X49207142Y-130365700D02*
X49121427Y-130408557D01*
X49121427Y-130408557D02*
X48949999Y-130408557D01*
X48949999Y-130408557D02*
X48864285Y-130365700D01*
X48864285Y-130365700D02*
X48778570Y-130279985D01*
X48778570Y-130279985D02*
X48735713Y-130108557D01*
X48735713Y-130108557D02*
X48735713Y-129808557D01*
X48735713Y-129808557D02*
X48778570Y-129637128D01*
X48778570Y-129637128D02*
X48864285Y-129551414D01*
X48864285Y-129551414D02*
X48949999Y-129508557D01*
X49678570Y-130151414D02*
X50107142Y-130151414D01*
X49592856Y-130408557D02*
X49892856Y-129508557D01*
X49892856Y-129508557D02*
X50192856Y-130408557D01*
X50492856Y-130408557D02*
X50492856Y-129508557D01*
X50492856Y-129508557D02*
X50707142Y-129508557D01*
X50707142Y-129508557D02*
X50835713Y-129551414D01*
X50835713Y-129551414D02*
X50921428Y-129637128D01*
X50921428Y-129637128D02*
X50964285Y-129722842D01*
X50964285Y-129722842D02*
X51007142Y-129894271D01*
X51007142Y-129894271D02*
X51007142Y-130022842D01*
X51007142Y-130022842D02*
X50964285Y-130194271D01*
X50964285Y-130194271D02*
X50921428Y-130279985D01*
X50921428Y-130279985D02*
X50835713Y-130365700D01*
X50835713Y-130365700D02*
X50707142Y-130408557D01*
X50707142Y-130408557D02*
X50492856Y-130408557D01*
X44278572Y-132408557D02*
X43764286Y-132408557D01*
X44021429Y-132408557D02*
X44021429Y-131508557D01*
X44021429Y-131508557D02*
X43935715Y-131637128D01*
X43935715Y-131637128D02*
X43850000Y-131722842D01*
X43850000Y-131722842D02*
X43764286Y-131765700D01*
X45778572Y-132408557D02*
X45350000Y-132408557D01*
X45350000Y-132408557D02*
X45350000Y-131508557D01*
X48092856Y-131594271D02*
X48135713Y-131551414D01*
X48135713Y-131551414D02*
X48221428Y-131508557D01*
X48221428Y-131508557D02*
X48435713Y-131508557D01*
X48435713Y-131508557D02*
X48521428Y-131551414D01*
X48521428Y-131551414D02*
X48564285Y-131594271D01*
X48564285Y-131594271D02*
X48607142Y-131679985D01*
X48607142Y-131679985D02*
X48607142Y-131765700D01*
X48607142Y-131765700D02*
X48564285Y-131894271D01*
X48564285Y-131894271D02*
X48049999Y-132408557D01*
X48049999Y-132408557D02*
X48607142Y-132408557D01*
X49678570Y-132408557D02*
X49678570Y-131508557D01*
X49678570Y-131508557D02*
X50192856Y-132408557D01*
X50192856Y-132408557D02*
X50192856Y-131508557D01*
X76099999Y-151908557D02*
X76099999Y-151008557D01*
X76099999Y-151008557D02*
X76442856Y-151008557D01*
X76442856Y-151008557D02*
X76528571Y-151051414D01*
X76528571Y-151051414D02*
X76571428Y-151094271D01*
X76571428Y-151094271D02*
X76614285Y-151179985D01*
X76614285Y-151179985D02*
X76614285Y-151308557D01*
X76614285Y-151308557D02*
X76571428Y-151394271D01*
X76571428Y-151394271D02*
X76528571Y-151437128D01*
X76528571Y-151437128D02*
X76442856Y-151479985D01*
X76442856Y-151479985D02*
X76099999Y-151479985D01*
X76999999Y-151437128D02*
X77299999Y-151437128D01*
X77428571Y-151908557D02*
X76999999Y-151908557D01*
X76999999Y-151908557D02*
X76999999Y-151008557D01*
X76999999Y-151008557D02*
X77428571Y-151008557D01*
X78799999Y-151437128D02*
X78928571Y-151479985D01*
X78928571Y-151479985D02*
X78971428Y-151522842D01*
X78971428Y-151522842D02*
X79014285Y-151608557D01*
X79014285Y-151608557D02*
X79014285Y-151737128D01*
X79014285Y-151737128D02*
X78971428Y-151822842D01*
X78971428Y-151822842D02*
X78928571Y-151865700D01*
X78928571Y-151865700D02*
X78842856Y-151908557D01*
X78842856Y-151908557D02*
X78499999Y-151908557D01*
X78499999Y-151908557D02*
X78499999Y-151008557D01*
X78499999Y-151008557D02*
X78799999Y-151008557D01*
X78799999Y-151008557D02*
X78885714Y-151051414D01*
X78885714Y-151051414D02*
X78928571Y-151094271D01*
X78928571Y-151094271D02*
X78971428Y-151179985D01*
X78971428Y-151179985D02*
X78971428Y-151265700D01*
X78971428Y-151265700D02*
X78928571Y-151351414D01*
X78928571Y-151351414D02*
X78885714Y-151394271D01*
X78885714Y-151394271D02*
X78799999Y-151437128D01*
X78799999Y-151437128D02*
X78499999Y-151437128D01*
X79571428Y-151479985D02*
X79571428Y-151908557D01*
X79271428Y-151008557D02*
X79571428Y-151479985D01*
X79571428Y-151479985D02*
X79871428Y-151008557D01*
X80171428Y-151908557D02*
X80171428Y-151008557D01*
X80171428Y-151008557D02*
X80514285Y-151008557D01*
X80514285Y-151008557D02*
X80600000Y-151051414D01*
X80600000Y-151051414D02*
X80642857Y-151094271D01*
X80642857Y-151094271D02*
X80685714Y-151179985D01*
X80685714Y-151179985D02*
X80685714Y-151308557D01*
X80685714Y-151308557D02*
X80642857Y-151394271D01*
X80642857Y-151394271D02*
X80600000Y-151437128D01*
X80600000Y-151437128D02*
X80514285Y-151479985D01*
X80514285Y-151479985D02*
X80171428Y-151479985D01*
X81028571Y-151651414D02*
X81457143Y-151651414D01*
X80942857Y-151908557D02*
X81242857Y-151008557D01*
X81242857Y-151008557D02*
X81542857Y-151908557D01*
X81800000Y-151865700D02*
X81928572Y-151908557D01*
X81928572Y-151908557D02*
X82142857Y-151908557D01*
X82142857Y-151908557D02*
X82228572Y-151865700D01*
X82228572Y-151865700D02*
X82271429Y-151822842D01*
X82271429Y-151822842D02*
X82314286Y-151737128D01*
X82314286Y-151737128D02*
X82314286Y-151651414D01*
X82314286Y-151651414D02*
X82271429Y-151565700D01*
X82271429Y-151565700D02*
X82228572Y-151522842D01*
X82228572Y-151522842D02*
X82142857Y-151479985D01*
X82142857Y-151479985D02*
X81971429Y-151437128D01*
X81971429Y-151437128D02*
X81885714Y-151394271D01*
X81885714Y-151394271D02*
X81842857Y-151351414D01*
X81842857Y-151351414D02*
X81800000Y-151265700D01*
X81800000Y-151265700D02*
X81800000Y-151179985D01*
X81800000Y-151179985D02*
X81842857Y-151094271D01*
X81842857Y-151094271D02*
X81885714Y-151051414D01*
X81885714Y-151051414D02*
X81971429Y-151008557D01*
X81971429Y-151008557D02*
X82185714Y-151008557D01*
X82185714Y-151008557D02*
X82314286Y-151051414D01*
X82657143Y-151865700D02*
X82785715Y-151908557D01*
X82785715Y-151908557D02*
X83000000Y-151908557D01*
X83000000Y-151908557D02*
X83085715Y-151865700D01*
X83085715Y-151865700D02*
X83128572Y-151822842D01*
X83128572Y-151822842D02*
X83171429Y-151737128D01*
X83171429Y-151737128D02*
X83171429Y-151651414D01*
X83171429Y-151651414D02*
X83128572Y-151565700D01*
X83128572Y-151565700D02*
X83085715Y-151522842D01*
X83085715Y-151522842D02*
X83000000Y-151479985D01*
X83000000Y-151479985D02*
X82828572Y-151437128D01*
X82828572Y-151437128D02*
X82742857Y-151394271D01*
X82742857Y-151394271D02*
X82700000Y-151351414D01*
X82700000Y-151351414D02*
X82657143Y-151265700D01*
X82657143Y-151265700D02*
X82657143Y-151179985D01*
X82657143Y-151179985D02*
X82700000Y-151094271D01*
X82700000Y-151094271D02*
X82742857Y-151051414D01*
X82742857Y-151051414D02*
X82828572Y-151008557D01*
X82828572Y-151008557D02*
X83042857Y-151008557D01*
X83042857Y-151008557D02*
X83171429Y-151051414D01*
X83557143Y-151437128D02*
X83857143Y-151437128D01*
X83985715Y-151908557D02*
X83557143Y-151908557D01*
X83557143Y-151908557D02*
X83557143Y-151008557D01*
X83557143Y-151008557D02*
X83985715Y-151008557D01*
X84328572Y-151865700D02*
X84457144Y-151908557D01*
X84457144Y-151908557D02*
X84671429Y-151908557D01*
X84671429Y-151908557D02*
X84757144Y-151865700D01*
X84757144Y-151865700D02*
X84800001Y-151822842D01*
X84800001Y-151822842D02*
X84842858Y-151737128D01*
X84842858Y-151737128D02*
X84842858Y-151651414D01*
X84842858Y-151651414D02*
X84800001Y-151565700D01*
X84800001Y-151565700D02*
X84757144Y-151522842D01*
X84757144Y-151522842D02*
X84671429Y-151479985D01*
X84671429Y-151479985D02*
X84500001Y-151437128D01*
X84500001Y-151437128D02*
X84414286Y-151394271D01*
X84414286Y-151394271D02*
X84371429Y-151351414D01*
X84371429Y-151351414D02*
X84328572Y-151265700D01*
X84328572Y-151265700D02*
X84328572Y-151179985D01*
X84328572Y-151179985D02*
X84371429Y-151094271D01*
X84371429Y-151094271D02*
X84414286Y-151051414D01*
X84414286Y-151051414D02*
X84500001Y-151008557D01*
X84500001Y-151008557D02*
X84714286Y-151008557D01*
X84714286Y-151008557D02*
X84842858Y-151051414D01*
X86214286Y-151437128D02*
X86342858Y-151479985D01*
X86342858Y-151479985D02*
X86385715Y-151522842D01*
X86385715Y-151522842D02*
X86428572Y-151608557D01*
X86428572Y-151608557D02*
X86428572Y-151737128D01*
X86428572Y-151737128D02*
X86385715Y-151822842D01*
X86385715Y-151822842D02*
X86342858Y-151865700D01*
X86342858Y-151865700D02*
X86257143Y-151908557D01*
X86257143Y-151908557D02*
X85914286Y-151908557D01*
X85914286Y-151908557D02*
X85914286Y-151008557D01*
X85914286Y-151008557D02*
X86214286Y-151008557D01*
X86214286Y-151008557D02*
X86300001Y-151051414D01*
X86300001Y-151051414D02*
X86342858Y-151094271D01*
X86342858Y-151094271D02*
X86385715Y-151179985D01*
X86385715Y-151179985D02*
X86385715Y-151265700D01*
X86385715Y-151265700D02*
X86342858Y-151351414D01*
X86342858Y-151351414D02*
X86300001Y-151394271D01*
X86300001Y-151394271D02*
X86214286Y-151437128D01*
X86214286Y-151437128D02*
X85914286Y-151437128D01*
X86985715Y-151008557D02*
X87157143Y-151008557D01*
X87157143Y-151008557D02*
X87242858Y-151051414D01*
X87242858Y-151051414D02*
X87328572Y-151137128D01*
X87328572Y-151137128D02*
X87371429Y-151308557D01*
X87371429Y-151308557D02*
X87371429Y-151608557D01*
X87371429Y-151608557D02*
X87328572Y-151779985D01*
X87328572Y-151779985D02*
X87242858Y-151865700D01*
X87242858Y-151865700D02*
X87157143Y-151908557D01*
X87157143Y-151908557D02*
X86985715Y-151908557D01*
X86985715Y-151908557D02*
X86900001Y-151865700D01*
X86900001Y-151865700D02*
X86814286Y-151779985D01*
X86814286Y-151779985D02*
X86771429Y-151608557D01*
X86771429Y-151608557D02*
X86771429Y-151308557D01*
X86771429Y-151308557D02*
X86814286Y-151137128D01*
X86814286Y-151137128D02*
X86900001Y-151051414D01*
X86900001Y-151051414D02*
X86985715Y-151008557D01*
X87714286Y-151651414D02*
X88142858Y-151651414D01*
X87628572Y-151908557D02*
X87928572Y-151008557D01*
X87928572Y-151008557D02*
X88228572Y-151908557D01*
X89042858Y-151908557D02*
X88742858Y-151479985D01*
X88528572Y-151908557D02*
X88528572Y-151008557D01*
X88528572Y-151008557D02*
X88871429Y-151008557D01*
X88871429Y-151008557D02*
X88957144Y-151051414D01*
X88957144Y-151051414D02*
X89000001Y-151094271D01*
X89000001Y-151094271D02*
X89042858Y-151179985D01*
X89042858Y-151179985D02*
X89042858Y-151308557D01*
X89042858Y-151308557D02*
X89000001Y-151394271D01*
X89000001Y-151394271D02*
X88957144Y-151437128D01*
X88957144Y-151437128D02*
X88871429Y-151479985D01*
X88871429Y-151479985D02*
X88528572Y-151479985D01*
X89428572Y-151908557D02*
X89428572Y-151008557D01*
X89428572Y-151008557D02*
X89642858Y-151008557D01*
X89642858Y-151008557D02*
X89771429Y-151051414D01*
X89771429Y-151051414D02*
X89857144Y-151137128D01*
X89857144Y-151137128D02*
X89900001Y-151222842D01*
X89900001Y-151222842D02*
X89942858Y-151394271D01*
X89942858Y-151394271D02*
X89942858Y-151522842D01*
X89942858Y-151522842D02*
X89900001Y-151694271D01*
X89900001Y-151694271D02*
X89857144Y-151779985D01*
X89857144Y-151779985D02*
X89771429Y-151865700D01*
X89771429Y-151865700D02*
X89642858Y-151908557D01*
X89642858Y-151908557D02*
X89428572Y-151908557D01*
X97928571Y-115708557D02*
X98442857Y-115708557D01*
X98185714Y-116608557D02*
X98185714Y-115708557D01*
X99214285Y-116608557D02*
X98699999Y-116608557D01*
X98957142Y-116608557D02*
X98957142Y-115708557D01*
X98957142Y-115708557D02*
X98871428Y-115837128D01*
X98871428Y-115837128D02*
X98785713Y-115922842D01*
X98785713Y-115922842D02*
X98699999Y-115965700D01*
X99557142Y-116351414D02*
X99985714Y-116351414D01*
X99471428Y-116608557D02*
X99771428Y-115708557D01*
X99771428Y-115708557D02*
X100071428Y-116608557D01*
X99664286Y-131365700D02*
X99792858Y-131408557D01*
X99792858Y-131408557D02*
X100007143Y-131408557D01*
X100007143Y-131408557D02*
X100092858Y-131365700D01*
X100092858Y-131365700D02*
X100135715Y-131322842D01*
X100135715Y-131322842D02*
X100178572Y-131237128D01*
X100178572Y-131237128D02*
X100178572Y-131151414D01*
X100178572Y-131151414D02*
X100135715Y-131065700D01*
X100135715Y-131065700D02*
X100092858Y-131022842D01*
X100092858Y-131022842D02*
X100007143Y-130979985D01*
X100007143Y-130979985D02*
X99835715Y-130937128D01*
X99835715Y-130937128D02*
X99750000Y-130894271D01*
X99750000Y-130894271D02*
X99707143Y-130851414D01*
X99707143Y-130851414D02*
X99664286Y-130765700D01*
X99664286Y-130765700D02*
X99664286Y-130679985D01*
X99664286Y-130679985D02*
X99707143Y-130594271D01*
X99707143Y-130594271D02*
X99750000Y-130551414D01*
X99750000Y-130551414D02*
X99835715Y-130508557D01*
X99835715Y-130508557D02*
X100050000Y-130508557D01*
X100050000Y-130508557D02*
X100178572Y-130551414D01*
X100478572Y-130508557D02*
X100692858Y-131408557D01*
X100692858Y-131408557D02*
X100864286Y-130765700D01*
X100864286Y-130765700D02*
X101035715Y-131408557D01*
X101035715Y-131408557D02*
X101250001Y-130508557D01*
X101592857Y-131408557D02*
X101592857Y-130508557D01*
X101892857Y-130508557D02*
X102407143Y-130508557D01*
X102150000Y-131408557D02*
X102150000Y-130508557D01*
X103221428Y-131322842D02*
X103178571Y-131365700D01*
X103178571Y-131365700D02*
X103049999Y-131408557D01*
X103049999Y-131408557D02*
X102964285Y-131408557D01*
X102964285Y-131408557D02*
X102835714Y-131365700D01*
X102835714Y-131365700D02*
X102749999Y-131279985D01*
X102749999Y-131279985D02*
X102707142Y-131194271D01*
X102707142Y-131194271D02*
X102664285Y-131022842D01*
X102664285Y-131022842D02*
X102664285Y-130894271D01*
X102664285Y-130894271D02*
X102707142Y-130722842D01*
X102707142Y-130722842D02*
X102749999Y-130637128D01*
X102749999Y-130637128D02*
X102835714Y-130551414D01*
X102835714Y-130551414D02*
X102964285Y-130508557D01*
X102964285Y-130508557D02*
X103049999Y-130508557D01*
X103049999Y-130508557D02*
X103178571Y-130551414D01*
X103178571Y-130551414D02*
X103221428Y-130594271D01*
X103607142Y-131408557D02*
X103607142Y-130508557D01*
X103607142Y-130937128D02*
X104121428Y-130937128D01*
X104121428Y-131408557D02*
X104121428Y-130508557D01*
X104549999Y-130937128D02*
X104849999Y-130937128D01*
X104978571Y-131408557D02*
X104549999Y-131408557D01*
X104549999Y-131408557D02*
X104549999Y-130508557D01*
X104549999Y-130508557D02*
X104978571Y-130508557D01*
X105364285Y-131408557D02*
X105364285Y-130508557D01*
X105364285Y-130508557D02*
X105578571Y-130508557D01*
X105578571Y-130508557D02*
X105707142Y-130551414D01*
X105707142Y-130551414D02*
X105792857Y-130637128D01*
X105792857Y-130637128D02*
X105835714Y-130722842D01*
X105835714Y-130722842D02*
X105878571Y-130894271D01*
X105878571Y-130894271D02*
X105878571Y-131022842D01*
X105878571Y-131022842D02*
X105835714Y-131194271D01*
X105835714Y-131194271D02*
X105792857Y-131279985D01*
X105792857Y-131279985D02*
X105707142Y-131365700D01*
X105707142Y-131365700D02*
X105578571Y-131408557D01*
X105578571Y-131408557D02*
X105364285Y-131408557D01*
X106949999Y-131408557D02*
X106949999Y-130508557D01*
X106949999Y-130508557D02*
X107292856Y-130508557D01*
X107292856Y-130508557D02*
X107378571Y-130551414D01*
X107378571Y-130551414D02*
X107421428Y-130594271D01*
X107421428Y-130594271D02*
X107464285Y-130679985D01*
X107464285Y-130679985D02*
X107464285Y-130808557D01*
X107464285Y-130808557D02*
X107421428Y-130894271D01*
X107421428Y-130894271D02*
X107378571Y-130937128D01*
X107378571Y-130937128D02*
X107292856Y-130979985D01*
X107292856Y-130979985D02*
X106949999Y-130979985D01*
X107849999Y-130508557D02*
X107849999Y-131237128D01*
X107849999Y-131237128D02*
X107892856Y-131322842D01*
X107892856Y-131322842D02*
X107935714Y-131365700D01*
X107935714Y-131365700D02*
X108021428Y-131408557D01*
X108021428Y-131408557D02*
X108192856Y-131408557D01*
X108192856Y-131408557D02*
X108278571Y-131365700D01*
X108278571Y-131365700D02*
X108321428Y-131322842D01*
X108321428Y-131322842D02*
X108364285Y-131237128D01*
X108364285Y-131237128D02*
X108364285Y-130508557D01*
X108792856Y-131408557D02*
X108792856Y-130508557D01*
X108792856Y-130508557D02*
X109092856Y-131151414D01*
X109092856Y-131151414D02*
X109392856Y-130508557D01*
X109392856Y-130508557D02*
X109392856Y-131408557D01*
X109821427Y-131408557D02*
X109821427Y-130508557D01*
X109821427Y-130508557D02*
X110164284Y-130508557D01*
X110164284Y-130508557D02*
X110249999Y-130551414D01*
X110249999Y-130551414D02*
X110292856Y-130594271D01*
X110292856Y-130594271D02*
X110335713Y-130679985D01*
X110335713Y-130679985D02*
X110335713Y-130808557D01*
X110335713Y-130808557D02*
X110292856Y-130894271D01*
X110292856Y-130894271D02*
X110249999Y-130937128D01*
X110249999Y-130937128D02*
X110164284Y-130979985D01*
X110164284Y-130979985D02*
X109821427Y-130979985D01*
X102278572Y-133408557D02*
X101764286Y-133408557D01*
X102021429Y-133408557D02*
X102021429Y-132508557D01*
X102021429Y-132508557D02*
X101935715Y-132637128D01*
X101935715Y-132637128D02*
X101850000Y-132722842D01*
X101850000Y-132722842D02*
X101764286Y-132765700D01*
X103778572Y-133408557D02*
X103350000Y-133408557D01*
X103350000Y-133408557D02*
X103350000Y-132508557D01*
X106092856Y-132594271D02*
X106135713Y-132551414D01*
X106135713Y-132551414D02*
X106221428Y-132508557D01*
X106221428Y-132508557D02*
X106435713Y-132508557D01*
X106435713Y-132508557D02*
X106521428Y-132551414D01*
X106521428Y-132551414D02*
X106564285Y-132594271D01*
X106564285Y-132594271D02*
X106607142Y-132679985D01*
X106607142Y-132679985D02*
X106607142Y-132765700D01*
X106607142Y-132765700D02*
X106564285Y-132894271D01*
X106564285Y-132894271D02*
X106049999Y-133408557D01*
X106049999Y-133408557D02*
X106607142Y-133408557D01*
X107678570Y-133408557D02*
X107678570Y-132508557D01*
X107678570Y-132508557D02*
X108192856Y-133408557D01*
X108192856Y-133408557D02*
X108192856Y-132508557D01*
X147835713Y-129708557D02*
X147835713Y-128808557D01*
X148349999Y-129708557D02*
X147964285Y-129194271D01*
X148349999Y-128808557D02*
X147835713Y-129322842D01*
X148735713Y-129237128D02*
X149421428Y-129237128D01*
X149421428Y-129494271D02*
X148735713Y-129494271D01*
X149849999Y-129365700D02*
X150535714Y-129365700D01*
X150192856Y-129708557D02*
X150192856Y-129022842D01*
X151392857Y-128808557D02*
X150964285Y-128808557D01*
X150964285Y-128808557D02*
X150921428Y-129237128D01*
X150921428Y-129237128D02*
X150964285Y-129194271D01*
X150964285Y-129194271D02*
X151050000Y-129151414D01*
X151050000Y-129151414D02*
X151264285Y-129151414D01*
X151264285Y-129151414D02*
X151350000Y-129194271D01*
X151350000Y-129194271D02*
X151392857Y-129237128D01*
X151392857Y-129237128D02*
X151435714Y-129322842D01*
X151435714Y-129322842D02*
X151435714Y-129537128D01*
X151435714Y-129537128D02*
X151392857Y-129622842D01*
X151392857Y-129622842D02*
X151350000Y-129665700D01*
X151350000Y-129665700D02*
X151264285Y-129708557D01*
X151264285Y-129708557D02*
X151050000Y-129708557D01*
X151050000Y-129708557D02*
X150964285Y-129665700D01*
X150964285Y-129665700D02*
X150921428Y-129622842D01*
X151692857Y-128808557D02*
X151992857Y-129708557D01*
X151992857Y-129708557D02*
X152292857Y-128808557D01*
X154514285Y-92508557D02*
X155071428Y-92508557D01*
X155071428Y-92508557D02*
X154771428Y-92851414D01*
X154771428Y-92851414D02*
X154899999Y-92851414D01*
X154899999Y-92851414D02*
X154985714Y-92894271D01*
X154985714Y-92894271D02*
X155028571Y-92937128D01*
X155028571Y-92937128D02*
X155071428Y-93022842D01*
X155071428Y-93022842D02*
X155071428Y-93237128D01*
X155071428Y-93237128D02*
X155028571Y-93322842D01*
X155028571Y-93322842D02*
X154985714Y-93365700D01*
X154985714Y-93365700D02*
X154899999Y-93408557D01*
X154899999Y-93408557D02*
X154642856Y-93408557D01*
X154642856Y-93408557D02*
X154557142Y-93365700D01*
X154557142Y-93365700D02*
X154514285Y-93322842D01*
X155414285Y-93151414D02*
X155842857Y-93151414D01*
X155328571Y-93408557D02*
X155628571Y-92508557D01*
X155628571Y-92508557D02*
X155928571Y-93408557D01*
X155000001Y-64408557D02*
X154485715Y-64408557D01*
X154742858Y-64408557D02*
X154742858Y-63508557D01*
X154742858Y-63508557D02*
X154657144Y-63637128D01*
X154657144Y-63637128D02*
X154571429Y-63722842D01*
X154571429Y-63722842D02*
X154485715Y-63765700D01*
X155385715Y-64322842D02*
X155428572Y-64365700D01*
X155428572Y-64365700D02*
X155385715Y-64408557D01*
X155385715Y-64408557D02*
X155342858Y-64365700D01*
X155342858Y-64365700D02*
X155385715Y-64322842D01*
X155385715Y-64322842D02*
X155385715Y-64408557D01*
X155385715Y-63851414D02*
X155428572Y-63894271D01*
X155428572Y-63894271D02*
X155385715Y-63937128D01*
X155385715Y-63937128D02*
X155342858Y-63894271D01*
X155342858Y-63894271D02*
X155385715Y-63851414D01*
X155385715Y-63851414D02*
X155385715Y-63937128D01*
X155814286Y-64065700D02*
X156500001Y-64065700D01*
X156157143Y-64408557D02*
X156157143Y-63722842D01*
X157357144Y-63508557D02*
X156928572Y-63508557D01*
X156928572Y-63508557D02*
X156885715Y-63937128D01*
X156885715Y-63937128D02*
X156928572Y-63894271D01*
X156928572Y-63894271D02*
X157014287Y-63851414D01*
X157014287Y-63851414D02*
X157228572Y-63851414D01*
X157228572Y-63851414D02*
X157314287Y-63894271D01*
X157314287Y-63894271D02*
X157357144Y-63937128D01*
X157357144Y-63937128D02*
X157400001Y-64022842D01*
X157400001Y-64022842D02*
X157400001Y-64237128D01*
X157400001Y-64237128D02*
X157357144Y-64322842D01*
X157357144Y-64322842D02*
X157314287Y-64365700D01*
X157314287Y-64365700D02*
X157228572Y-64408557D01*
X157228572Y-64408557D02*
X157014287Y-64408557D01*
X157014287Y-64408557D02*
X156928572Y-64365700D01*
X156928572Y-64365700D02*
X156885715Y-64322842D01*
X157657144Y-63508557D02*
X157957144Y-64408557D01*
X157957144Y-64408557D02*
X158257144Y-63508557D01*
X159200001Y-63594271D02*
X159242858Y-63551414D01*
X159242858Y-63551414D02*
X159328573Y-63508557D01*
X159328573Y-63508557D02*
X159542858Y-63508557D01*
X159542858Y-63508557D02*
X159628573Y-63551414D01*
X159628573Y-63551414D02*
X159671430Y-63594271D01*
X159671430Y-63594271D02*
X159714287Y-63679985D01*
X159714287Y-63679985D02*
X159714287Y-63765700D01*
X159714287Y-63765700D02*
X159671430Y-63894271D01*
X159671430Y-63894271D02*
X159157144Y-64408557D01*
X159157144Y-64408557D02*
X159714287Y-64408557D01*
X160100001Y-64322842D02*
X160142858Y-64365700D01*
X160142858Y-64365700D02*
X160100001Y-64408557D01*
X160100001Y-64408557D02*
X160057144Y-64365700D01*
X160057144Y-64365700D02*
X160100001Y-64322842D01*
X160100001Y-64322842D02*
X160100001Y-64408557D01*
X160100001Y-63851414D02*
X160142858Y-63894271D01*
X160142858Y-63894271D02*
X160100001Y-63937128D01*
X160100001Y-63937128D02*
X160057144Y-63894271D01*
X160057144Y-63894271D02*
X160100001Y-63851414D01*
X160100001Y-63851414D02*
X160100001Y-63937128D01*
X161042858Y-64408557D02*
X160742858Y-63979985D01*
X160528572Y-64408557D02*
X160528572Y-63508557D01*
X160528572Y-63508557D02*
X160871429Y-63508557D01*
X160871429Y-63508557D02*
X160957144Y-63551414D01*
X160957144Y-63551414D02*
X161000001Y-63594271D01*
X161000001Y-63594271D02*
X161042858Y-63679985D01*
X161042858Y-63679985D02*
X161042858Y-63808557D01*
X161042858Y-63808557D02*
X161000001Y-63894271D01*
X161000001Y-63894271D02*
X160957144Y-63937128D01*
X160957144Y-63937128D02*
X160871429Y-63979985D01*
X160871429Y-63979985D02*
X160528572Y-63979985D01*
X161428572Y-63937128D02*
X161728572Y-63937128D01*
X161857144Y-64408557D02*
X161428572Y-64408557D01*
X161428572Y-64408557D02*
X161428572Y-63508557D01*
X161428572Y-63508557D02*
X161857144Y-63508557D01*
X162114287Y-63508557D02*
X162628573Y-63508557D01*
X162371430Y-64408557D02*
X162371430Y-63508557D01*
X163528572Y-63508557D02*
X164085715Y-63508557D01*
X164085715Y-63508557D02*
X163785715Y-63851414D01*
X163785715Y-63851414D02*
X163914286Y-63851414D01*
X163914286Y-63851414D02*
X164000001Y-63894271D01*
X164000001Y-63894271D02*
X164042858Y-63937128D01*
X164042858Y-63937128D02*
X164085715Y-64022842D01*
X164085715Y-64022842D02*
X164085715Y-64237128D01*
X164085715Y-64237128D02*
X164042858Y-64322842D01*
X164042858Y-64322842D02*
X164000001Y-64365700D01*
X164000001Y-64365700D02*
X163914286Y-64408557D01*
X163914286Y-64408557D02*
X163657143Y-64408557D01*
X163657143Y-64408557D02*
X163571429Y-64365700D01*
X163571429Y-64365700D02*
X163528572Y-64322842D01*
X164471429Y-64322842D02*
X164514286Y-64365700D01*
X164514286Y-64365700D02*
X164471429Y-64408557D01*
X164471429Y-64408557D02*
X164428572Y-64365700D01*
X164428572Y-64365700D02*
X164471429Y-64322842D01*
X164471429Y-64322842D02*
X164471429Y-64408557D01*
X164471429Y-63851414D02*
X164514286Y-63894271D01*
X164514286Y-63894271D02*
X164471429Y-63937128D01*
X164471429Y-63937128D02*
X164428572Y-63894271D01*
X164428572Y-63894271D02*
X164471429Y-63851414D01*
X164471429Y-63851414D02*
X164471429Y-63937128D01*
X165414286Y-64322842D02*
X165371429Y-64365700D01*
X165371429Y-64365700D02*
X165242857Y-64408557D01*
X165242857Y-64408557D02*
X165157143Y-64408557D01*
X165157143Y-64408557D02*
X165028572Y-64365700D01*
X165028572Y-64365700D02*
X164942857Y-64279985D01*
X164942857Y-64279985D02*
X164900000Y-64194271D01*
X164900000Y-64194271D02*
X164857143Y-64022842D01*
X164857143Y-64022842D02*
X164857143Y-63894271D01*
X164857143Y-63894271D02*
X164900000Y-63722842D01*
X164900000Y-63722842D02*
X164942857Y-63637128D01*
X164942857Y-63637128D02*
X165028572Y-63551414D01*
X165028572Y-63551414D02*
X165157143Y-63508557D01*
X165157143Y-63508557D02*
X165242857Y-63508557D01*
X165242857Y-63508557D02*
X165371429Y-63551414D01*
X165371429Y-63551414D02*
X165414286Y-63594271D01*
X165971429Y-63508557D02*
X166142857Y-63508557D01*
X166142857Y-63508557D02*
X166228572Y-63551414D01*
X166228572Y-63551414D02*
X166314286Y-63637128D01*
X166314286Y-63637128D02*
X166357143Y-63808557D01*
X166357143Y-63808557D02*
X166357143Y-64108557D01*
X166357143Y-64108557D02*
X166314286Y-64279985D01*
X166314286Y-64279985D02*
X166228572Y-64365700D01*
X166228572Y-64365700D02*
X166142857Y-64408557D01*
X166142857Y-64408557D02*
X165971429Y-64408557D01*
X165971429Y-64408557D02*
X165885715Y-64365700D01*
X165885715Y-64365700D02*
X165800000Y-64279985D01*
X165800000Y-64279985D02*
X165757143Y-64108557D01*
X165757143Y-64108557D02*
X165757143Y-63808557D01*
X165757143Y-63808557D02*
X165800000Y-63637128D01*
X165800000Y-63637128D02*
X165885715Y-63551414D01*
X165885715Y-63551414D02*
X165971429Y-63508557D01*
X166742857Y-64408557D02*
X166742857Y-63508557D01*
X167600000Y-64408557D02*
X167171428Y-64408557D01*
X167171428Y-64408557D02*
X167171428Y-63508557D01*
X161057143Y-100408557D02*
X160542857Y-100408557D01*
X160800000Y-100408557D02*
X160800000Y-99508557D01*
X160800000Y-99508557D02*
X160714286Y-99637128D01*
X160714286Y-99637128D02*
X160628571Y-99722842D01*
X160628571Y-99722842D02*
X160542857Y-99765700D01*
X161442857Y-100322842D02*
X161485714Y-100365700D01*
X161485714Y-100365700D02*
X161442857Y-100408557D01*
X161442857Y-100408557D02*
X161400000Y-100365700D01*
X161400000Y-100365700D02*
X161442857Y-100322842D01*
X161442857Y-100322842D02*
X161442857Y-100408557D01*
X161442857Y-99851414D02*
X161485714Y-99894271D01*
X161485714Y-99894271D02*
X161442857Y-99937128D01*
X161442857Y-99937128D02*
X161400000Y-99894271D01*
X161400000Y-99894271D02*
X161442857Y-99851414D01*
X161442857Y-99851414D02*
X161442857Y-99937128D01*
X161871428Y-100065700D02*
X162557143Y-100065700D01*
X162214285Y-100408557D02*
X162214285Y-99722842D01*
X163457143Y-100408557D02*
X162942857Y-100408557D01*
X163200000Y-100408557D02*
X163200000Y-99508557D01*
X163200000Y-99508557D02*
X163114286Y-99637128D01*
X163114286Y-99637128D02*
X163028571Y-99722842D01*
X163028571Y-99722842D02*
X162942857Y-99765700D01*
X163800000Y-99594271D02*
X163842857Y-99551414D01*
X163842857Y-99551414D02*
X163928572Y-99508557D01*
X163928572Y-99508557D02*
X164142857Y-99508557D01*
X164142857Y-99508557D02*
X164228572Y-99551414D01*
X164228572Y-99551414D02*
X164271429Y-99594271D01*
X164271429Y-99594271D02*
X164314286Y-99679985D01*
X164314286Y-99679985D02*
X164314286Y-99765700D01*
X164314286Y-99765700D02*
X164271429Y-99894271D01*
X164271429Y-99894271D02*
X163757143Y-100408557D01*
X163757143Y-100408557D02*
X164314286Y-100408557D01*
X164571429Y-99508557D02*
X164871429Y-100408557D01*
X164871429Y-100408557D02*
X165171429Y-99508557D01*
X166114286Y-99594271D02*
X166157143Y-99551414D01*
X166157143Y-99551414D02*
X166242858Y-99508557D01*
X166242858Y-99508557D02*
X166457143Y-99508557D01*
X166457143Y-99508557D02*
X166542858Y-99551414D01*
X166542858Y-99551414D02*
X166585715Y-99594271D01*
X166585715Y-99594271D02*
X166628572Y-99679985D01*
X166628572Y-99679985D02*
X166628572Y-99765700D01*
X166628572Y-99765700D02*
X166585715Y-99894271D01*
X166585715Y-99894271D02*
X166071429Y-100408557D01*
X166071429Y-100408557D02*
X166628572Y-100408557D01*
X167014286Y-100322842D02*
X167057143Y-100365700D01*
X167057143Y-100365700D02*
X167014286Y-100408557D01*
X167014286Y-100408557D02*
X166971429Y-100365700D01*
X166971429Y-100365700D02*
X167014286Y-100322842D01*
X167014286Y-100322842D02*
X167014286Y-100408557D01*
X167014286Y-99851414D02*
X167057143Y-99894271D01*
X167057143Y-99894271D02*
X167014286Y-99937128D01*
X167014286Y-99937128D02*
X166971429Y-99894271D01*
X166971429Y-99894271D02*
X167014286Y-99851414D01*
X167014286Y-99851414D02*
X167014286Y-99937128D01*
X167957143Y-100408557D02*
X167657143Y-99979985D01*
X167442857Y-100408557D02*
X167442857Y-99508557D01*
X167442857Y-99508557D02*
X167785714Y-99508557D01*
X167785714Y-99508557D02*
X167871429Y-99551414D01*
X167871429Y-99551414D02*
X167914286Y-99594271D01*
X167914286Y-99594271D02*
X167957143Y-99679985D01*
X167957143Y-99679985D02*
X167957143Y-99808557D01*
X167957143Y-99808557D02*
X167914286Y-99894271D01*
X167914286Y-99894271D02*
X167871429Y-99937128D01*
X167871429Y-99937128D02*
X167785714Y-99979985D01*
X167785714Y-99979985D02*
X167442857Y-99979985D01*
X168342857Y-99937128D02*
X168642857Y-99937128D01*
X168771429Y-100408557D02*
X168342857Y-100408557D01*
X168342857Y-100408557D02*
X168342857Y-99508557D01*
X168342857Y-99508557D02*
X168771429Y-99508557D01*
X169028572Y-99508557D02*
X169542858Y-99508557D01*
X169285715Y-100408557D02*
X169285715Y-99508557D01*
X83714286Y-48454819D02*
X83714286Y-47454819D01*
X83714286Y-47454819D02*
X83952381Y-47454819D01*
X83952381Y-47454819D02*
X84095238Y-47502438D01*
X84095238Y-47502438D02*
X84190476Y-47597676D01*
X84190476Y-47597676D02*
X84238095Y-47692914D01*
X84238095Y-47692914D02*
X84285714Y-47883390D01*
X84285714Y-47883390D02*
X84285714Y-48026247D01*
X84285714Y-48026247D02*
X84238095Y-48216723D01*
X84238095Y-48216723D02*
X84190476Y-48311961D01*
X84190476Y-48311961D02*
X84095238Y-48407200D01*
X84095238Y-48407200D02*
X83952381Y-48454819D01*
X83952381Y-48454819D02*
X83714286Y-48454819D01*
X84666667Y-48169104D02*
X85142857Y-48169104D01*
X84571429Y-48454819D02*
X84904762Y-47454819D01*
X84904762Y-47454819D02*
X85238095Y-48454819D01*
X85571429Y-48454819D02*
X85571429Y-47454819D01*
X85571429Y-47454819D02*
X86142857Y-48454819D01*
X86142857Y-48454819D02*
X86142857Y-47454819D01*
X87142857Y-47502438D02*
X87047619Y-47454819D01*
X87047619Y-47454819D02*
X86904762Y-47454819D01*
X86904762Y-47454819D02*
X86761905Y-47502438D01*
X86761905Y-47502438D02*
X86666667Y-47597676D01*
X86666667Y-47597676D02*
X86619048Y-47692914D01*
X86619048Y-47692914D02*
X86571429Y-47883390D01*
X86571429Y-47883390D02*
X86571429Y-48026247D01*
X86571429Y-48026247D02*
X86619048Y-48216723D01*
X86619048Y-48216723D02*
X86666667Y-48311961D01*
X86666667Y-48311961D02*
X86761905Y-48407200D01*
X86761905Y-48407200D02*
X86904762Y-48454819D01*
X86904762Y-48454819D02*
X87000000Y-48454819D01*
X87000000Y-48454819D02*
X87142857Y-48407200D01*
X87142857Y-48407200D02*
X87190476Y-48359580D01*
X87190476Y-48359580D02*
X87190476Y-48026247D01*
X87190476Y-48026247D02*
X87000000Y-48026247D01*
X87619048Y-47931009D02*
X87952381Y-47931009D01*
X88095238Y-48454819D02*
X87619048Y-48454819D01*
X87619048Y-48454819D02*
X87619048Y-47454819D01*
X87619048Y-47454819D02*
X88095238Y-47454819D01*
X89095238Y-48454819D02*
X88761905Y-47978628D01*
X88523810Y-48454819D02*
X88523810Y-47454819D01*
X88523810Y-47454819D02*
X88904762Y-47454819D01*
X88904762Y-47454819D02*
X89000000Y-47502438D01*
X89000000Y-47502438D02*
X89047619Y-47550057D01*
X89047619Y-47550057D02*
X89095238Y-47645295D01*
X89095238Y-47645295D02*
X89095238Y-47788152D01*
X89095238Y-47788152D02*
X89047619Y-47883390D01*
X89047619Y-47883390D02*
X89000000Y-47931009D01*
X89000000Y-47931009D02*
X88904762Y-47978628D01*
X88904762Y-47978628D02*
X88523810Y-47978628D01*
X90285715Y-48073866D02*
X91047620Y-48073866D01*
X92285715Y-48454819D02*
X92285715Y-47454819D01*
X92285715Y-47454819D02*
X92619048Y-48169104D01*
X92619048Y-48169104D02*
X92952381Y-47454819D01*
X92952381Y-47454819D02*
X92952381Y-48454819D01*
X93380953Y-48169104D02*
X93857143Y-48169104D01*
X93285715Y-48454819D02*
X93619048Y-47454819D01*
X93619048Y-47454819D02*
X93952381Y-48454819D01*
X94285715Y-48454819D02*
X94285715Y-47454819D01*
X94761905Y-48454819D02*
X94761905Y-47454819D01*
X94761905Y-47454819D02*
X95333333Y-48454819D01*
X95333333Y-48454819D02*
X95333333Y-47454819D01*
X95761905Y-48407200D02*
X95904762Y-48454819D01*
X95904762Y-48454819D02*
X96142857Y-48454819D01*
X96142857Y-48454819D02*
X96238095Y-48407200D01*
X96238095Y-48407200D02*
X96285714Y-48359580D01*
X96285714Y-48359580D02*
X96333333Y-48264342D01*
X96333333Y-48264342D02*
X96333333Y-48169104D01*
X96333333Y-48169104D02*
X96285714Y-48073866D01*
X96285714Y-48073866D02*
X96238095Y-48026247D01*
X96238095Y-48026247D02*
X96142857Y-47978628D01*
X96142857Y-47978628D02*
X95952381Y-47931009D01*
X95952381Y-47931009D02*
X95857143Y-47883390D01*
X95857143Y-47883390D02*
X95809524Y-47835771D01*
X95809524Y-47835771D02*
X95761905Y-47740533D01*
X95761905Y-47740533D02*
X95761905Y-47645295D01*
X95761905Y-47645295D02*
X95809524Y-47550057D01*
X95809524Y-47550057D02*
X95857143Y-47502438D01*
X95857143Y-47502438D02*
X95952381Y-47454819D01*
X95952381Y-47454819D02*
X96190476Y-47454819D01*
X96190476Y-47454819D02*
X96333333Y-47502438D01*
X133261905Y-143454819D02*
X133261905Y-142454819D01*
X133261905Y-142454819D02*
X133595238Y-143169104D01*
X133595238Y-143169104D02*
X133928571Y-142454819D01*
X133928571Y-142454819D02*
X133928571Y-143454819D01*
X134357143Y-143169104D02*
X134833333Y-143169104D01*
X134261905Y-143454819D02*
X134595238Y-142454819D01*
X134595238Y-142454819D02*
X134928571Y-143454819D01*
X135261905Y-143454819D02*
X135261905Y-142454819D01*
X135738095Y-143454819D02*
X135738095Y-142454819D01*
X135738095Y-142454819D02*
X136309523Y-143454819D01*
X136309523Y-143454819D02*
X136309523Y-142454819D01*
X136738095Y-143407200D02*
X136880952Y-143454819D01*
X136880952Y-143454819D02*
X137119047Y-143454819D01*
X137119047Y-143454819D02*
X137214285Y-143407200D01*
X137214285Y-143407200D02*
X137261904Y-143359580D01*
X137261904Y-143359580D02*
X137309523Y-143264342D01*
X137309523Y-143264342D02*
X137309523Y-143169104D01*
X137309523Y-143169104D02*
X137261904Y-143073866D01*
X137261904Y-143073866D02*
X137214285Y-143026247D01*
X137214285Y-143026247D02*
X137119047Y-142978628D01*
X137119047Y-142978628D02*
X136928571Y-142931009D01*
X136928571Y-142931009D02*
X136833333Y-142883390D01*
X136833333Y-142883390D02*
X136785714Y-142835771D01*
X136785714Y-142835771D02*
X136738095Y-142740533D01*
X136738095Y-142740533D02*
X136738095Y-142645295D01*
X136738095Y-142645295D02*
X136785714Y-142550057D01*
X136785714Y-142550057D02*
X136833333Y-142502438D01*
X136833333Y-142502438D02*
X136928571Y-142454819D01*
X136928571Y-142454819D02*
X137166666Y-142454819D01*
X137166666Y-142454819D02*
X137309523Y-142502438D01*
X139214285Y-142407200D02*
X138357143Y-143692914D01*
X140880952Y-143454819D02*
X140547619Y-142978628D01*
X140309524Y-143454819D02*
X140309524Y-142454819D01*
X140309524Y-142454819D02*
X140690476Y-142454819D01*
X140690476Y-142454819D02*
X140785714Y-142502438D01*
X140785714Y-142502438D02*
X140833333Y-142550057D01*
X140833333Y-142550057D02*
X140880952Y-142645295D01*
X140880952Y-142645295D02*
X140880952Y-142788152D01*
X140880952Y-142788152D02*
X140833333Y-142883390D01*
X140833333Y-142883390D02*
X140785714Y-142931009D01*
X140785714Y-142931009D02*
X140690476Y-142978628D01*
X140690476Y-142978628D02*
X140309524Y-142978628D01*
X141309524Y-142931009D02*
X141642857Y-142931009D01*
X141785714Y-143454819D02*
X141309524Y-143454819D01*
X141309524Y-143454819D02*
X141309524Y-142454819D01*
X141309524Y-142454819D02*
X141785714Y-142454819D01*
X142071429Y-142454819D02*
X142404762Y-143454819D01*
X142404762Y-143454819D02*
X142738095Y-142454819D01*
X144357143Y-143454819D02*
X143785715Y-143454819D01*
X144071429Y-143454819D02*
X144071429Y-142454819D01*
X144071429Y-142454819D02*
X143976191Y-142597676D01*
X143976191Y-142597676D02*
X143880953Y-142692914D01*
X143880953Y-142692914D02*
X143785715Y-142740533D01*
X144785715Y-143359580D02*
X144833334Y-143407200D01*
X144833334Y-143407200D02*
X144785715Y-143454819D01*
X144785715Y-143454819D02*
X144738096Y-143407200D01*
X144738096Y-143407200D02*
X144785715Y-143359580D01*
X144785715Y-143359580D02*
X144785715Y-143454819D01*
X145452381Y-142454819D02*
X145547619Y-142454819D01*
X145547619Y-142454819D02*
X145642857Y-142502438D01*
X145642857Y-142502438D02*
X145690476Y-142550057D01*
X145690476Y-142550057D02*
X145738095Y-142645295D01*
X145738095Y-142645295D02*
X145785714Y-142835771D01*
X145785714Y-142835771D02*
X145785714Y-143073866D01*
X145785714Y-143073866D02*
X145738095Y-143264342D01*
X145738095Y-143264342D02*
X145690476Y-143359580D01*
X145690476Y-143359580D02*
X145642857Y-143407200D01*
X145642857Y-143407200D02*
X145547619Y-143454819D01*
X145547619Y-143454819D02*
X145452381Y-143454819D01*
X145452381Y-143454819D02*
X145357143Y-143407200D01*
X145357143Y-143407200D02*
X145309524Y-143359580D01*
X145309524Y-143359580D02*
X145261905Y-143264342D01*
X145261905Y-143264342D02*
X145214286Y-143073866D01*
X145214286Y-143073866D02*
X145214286Y-142835771D01*
X145214286Y-142835771D02*
X145261905Y-142645295D01*
X145261905Y-142645295D02*
X145309524Y-142550057D01*
X145309524Y-142550057D02*
X145357143Y-142502438D01*
X145357143Y-142502438D02*
X145452381Y-142454819D01*
X140880952Y-48454819D02*
X140880952Y-47454819D01*
X141309523Y-48407200D02*
X141452380Y-48454819D01*
X141452380Y-48454819D02*
X141690475Y-48454819D01*
X141690475Y-48454819D02*
X141785713Y-48407200D01*
X141785713Y-48407200D02*
X141833332Y-48359580D01*
X141833332Y-48359580D02*
X141880951Y-48264342D01*
X141880951Y-48264342D02*
X141880951Y-48169104D01*
X141880951Y-48169104D02*
X141833332Y-48073866D01*
X141833332Y-48073866D02*
X141785713Y-48026247D01*
X141785713Y-48026247D02*
X141690475Y-47978628D01*
X141690475Y-47978628D02*
X141499999Y-47931009D01*
X141499999Y-47931009D02*
X141404761Y-47883390D01*
X141404761Y-47883390D02*
X141357142Y-47835771D01*
X141357142Y-47835771D02*
X141309523Y-47740533D01*
X141309523Y-47740533D02*
X141309523Y-47645295D01*
X141309523Y-47645295D02*
X141357142Y-47550057D01*
X141357142Y-47550057D02*
X141404761Y-47502438D01*
X141404761Y-47502438D02*
X141499999Y-47454819D01*
X141499999Y-47454819D02*
X141738094Y-47454819D01*
X141738094Y-47454819D02*
X141880951Y-47502438D01*
X142499999Y-47454819D02*
X142690475Y-47454819D01*
X142690475Y-47454819D02*
X142785713Y-47502438D01*
X142785713Y-47502438D02*
X142880951Y-47597676D01*
X142880951Y-47597676D02*
X142928570Y-47788152D01*
X142928570Y-47788152D02*
X142928570Y-48121485D01*
X142928570Y-48121485D02*
X142880951Y-48311961D01*
X142880951Y-48311961D02*
X142785713Y-48407200D01*
X142785713Y-48407200D02*
X142690475Y-48454819D01*
X142690475Y-48454819D02*
X142499999Y-48454819D01*
X142499999Y-48454819D02*
X142404761Y-48407200D01*
X142404761Y-48407200D02*
X142309523Y-48311961D01*
X142309523Y-48311961D02*
X142261904Y-48121485D01*
X142261904Y-48121485D02*
X142261904Y-47788152D01*
X142261904Y-47788152D02*
X142309523Y-47597676D01*
X142309523Y-47597676D02*
X142404761Y-47502438D01*
X142404761Y-47502438D02*
X142499999Y-47454819D01*
X143833332Y-48454819D02*
X143357142Y-48454819D01*
X143357142Y-48454819D02*
X143357142Y-47454819D01*
X144119047Y-48169104D02*
X144595237Y-48169104D01*
X144023809Y-48454819D02*
X144357142Y-47454819D01*
X144357142Y-47454819D02*
X144690475Y-48454819D01*
X144880952Y-47454819D02*
X145452380Y-47454819D01*
X145166666Y-48454819D02*
X145166666Y-47454819D01*
X145785714Y-47931009D02*
X146119047Y-47931009D01*
X146261904Y-48454819D02*
X145785714Y-48454819D01*
X145785714Y-48454819D02*
X145785714Y-47454819D01*
X145785714Y-47454819D02*
X146261904Y-47454819D01*
X146690476Y-48454819D02*
X146690476Y-47454819D01*
X146690476Y-47454819D02*
X146928571Y-47454819D01*
X146928571Y-47454819D02*
X147071428Y-47502438D01*
X147071428Y-47502438D02*
X147166666Y-47597676D01*
X147166666Y-47597676D02*
X147214285Y-47692914D01*
X147214285Y-47692914D02*
X147261904Y-47883390D01*
X147261904Y-47883390D02*
X147261904Y-48026247D01*
X147261904Y-48026247D02*
X147214285Y-48216723D01*
X147214285Y-48216723D02*
X147166666Y-48311961D01*
X147166666Y-48311961D02*
X147071428Y-48407200D01*
X147071428Y-48407200D02*
X146928571Y-48454819D01*
X146928571Y-48454819D02*
X146690476Y-48454819D01*
X148976190Y-48454819D02*
X148404762Y-48454819D01*
X148690476Y-48454819D02*
X148690476Y-47454819D01*
X148690476Y-47454819D02*
X148595238Y-47597676D01*
X148595238Y-47597676D02*
X148500000Y-47692914D01*
X148500000Y-47692914D02*
X148404762Y-47740533D01*
X149357143Y-47550057D02*
X149404762Y-47502438D01*
X149404762Y-47502438D02*
X149500000Y-47454819D01*
X149500000Y-47454819D02*
X149738095Y-47454819D01*
X149738095Y-47454819D02*
X149833333Y-47502438D01*
X149833333Y-47502438D02*
X149880952Y-47550057D01*
X149880952Y-47550057D02*
X149928571Y-47645295D01*
X149928571Y-47645295D02*
X149928571Y-47740533D01*
X149928571Y-47740533D02*
X149880952Y-47883390D01*
X149880952Y-47883390D02*
X149309524Y-48454819D01*
X149309524Y-48454819D02*
X149928571Y-48454819D01*
X150214286Y-47454819D02*
X150547619Y-48454819D01*
X150547619Y-48454819D02*
X150880952Y-47454819D01*
X152690476Y-47407200D02*
X151833334Y-48692914D01*
X154261905Y-47454819D02*
X153785715Y-47454819D01*
X153785715Y-47454819D02*
X153738096Y-47931009D01*
X153738096Y-47931009D02*
X153785715Y-47883390D01*
X153785715Y-47883390D02*
X153880953Y-47835771D01*
X153880953Y-47835771D02*
X154119048Y-47835771D01*
X154119048Y-47835771D02*
X154214286Y-47883390D01*
X154214286Y-47883390D02*
X154261905Y-47931009D01*
X154261905Y-47931009D02*
X154309524Y-48026247D01*
X154309524Y-48026247D02*
X154309524Y-48264342D01*
X154309524Y-48264342D02*
X154261905Y-48359580D01*
X154261905Y-48359580D02*
X154214286Y-48407200D01*
X154214286Y-48407200D02*
X154119048Y-48454819D01*
X154119048Y-48454819D02*
X153880953Y-48454819D01*
X153880953Y-48454819D02*
X153785715Y-48407200D01*
X153785715Y-48407200D02*
X153738096Y-48359580D01*
X154595239Y-47454819D02*
X154928572Y-48454819D01*
X154928572Y-48454819D02*
X155261905Y-47454819D01*
X133425001Y-140988164D02*
X133360715Y-141052450D01*
X133360715Y-141052450D02*
X133167858Y-141116735D01*
X133167858Y-141116735D02*
X133039286Y-141116735D01*
X133039286Y-141116735D02*
X132846429Y-141052450D01*
X132846429Y-141052450D02*
X132717858Y-140923878D01*
X132717858Y-140923878D02*
X132653572Y-140795307D01*
X132653572Y-140795307D02*
X132589286Y-140538164D01*
X132589286Y-140538164D02*
X132589286Y-140345307D01*
X132589286Y-140345307D02*
X132653572Y-140088164D01*
X132653572Y-140088164D02*
X132717858Y-139959592D01*
X132717858Y-139959592D02*
X132846429Y-139831021D01*
X132846429Y-139831021D02*
X133039286Y-139766735D01*
X133039286Y-139766735D02*
X133167858Y-139766735D01*
X133167858Y-139766735D02*
X133360715Y-139831021D01*
X133360715Y-139831021D02*
X133425001Y-139895307D01*
X134775001Y-141116735D02*
X134325001Y-140473878D01*
X134003572Y-141116735D02*
X134003572Y-139766735D01*
X134003572Y-139766735D02*
X134517858Y-139766735D01*
X134517858Y-139766735D02*
X134646429Y-139831021D01*
X134646429Y-139831021D02*
X134710715Y-139895307D01*
X134710715Y-139895307D02*
X134775001Y-140023878D01*
X134775001Y-140023878D02*
X134775001Y-140216735D01*
X134775001Y-140216735D02*
X134710715Y-140345307D01*
X134710715Y-140345307D02*
X134646429Y-140409592D01*
X134646429Y-140409592D02*
X134517858Y-140473878D01*
X134517858Y-140473878D02*
X134003572Y-140473878D01*
X135610715Y-140473878D02*
X135610715Y-141116735D01*
X135160715Y-139766735D02*
X135610715Y-140473878D01*
X135610715Y-140473878D02*
X136060715Y-139766735D01*
X136446429Y-141052450D02*
X136639287Y-141116735D01*
X136639287Y-141116735D02*
X136960715Y-141116735D01*
X136960715Y-141116735D02*
X137089287Y-141052450D01*
X137089287Y-141052450D02*
X137153572Y-140988164D01*
X137153572Y-140988164D02*
X137217858Y-140859592D01*
X137217858Y-140859592D02*
X137217858Y-140731021D01*
X137217858Y-140731021D02*
X137153572Y-140602450D01*
X137153572Y-140602450D02*
X137089287Y-140538164D01*
X137089287Y-140538164D02*
X136960715Y-140473878D01*
X136960715Y-140473878D02*
X136703572Y-140409592D01*
X136703572Y-140409592D02*
X136575001Y-140345307D01*
X136575001Y-140345307D02*
X136510715Y-140281021D01*
X136510715Y-140281021D02*
X136446429Y-140152450D01*
X136446429Y-140152450D02*
X136446429Y-140023878D01*
X136446429Y-140023878D02*
X136510715Y-139895307D01*
X136510715Y-139895307D02*
X136575001Y-139831021D01*
X136575001Y-139831021D02*
X136703572Y-139766735D01*
X136703572Y-139766735D02*
X137025001Y-139766735D01*
X137025001Y-139766735D02*
X137217858Y-139831021D01*
X137603572Y-139766735D02*
X138375001Y-139766735D01*
X137989286Y-141116735D02*
X137989286Y-139766735D01*
X138760714Y-140731021D02*
X139403572Y-140731021D01*
X138632143Y-141116735D02*
X139082143Y-139766735D01*
X139082143Y-139766735D02*
X139532143Y-141116735D01*
X140625000Y-141116735D02*
X139982143Y-141116735D01*
X139982143Y-141116735D02*
X139982143Y-139766735D01*
X142039285Y-141052450D02*
X142232143Y-141116735D01*
X142232143Y-141116735D02*
X142553571Y-141116735D01*
X142553571Y-141116735D02*
X142682143Y-141052450D01*
X142682143Y-141052450D02*
X142746428Y-140988164D01*
X142746428Y-140988164D02*
X142810714Y-140859592D01*
X142810714Y-140859592D02*
X142810714Y-140731021D01*
X142810714Y-140731021D02*
X142746428Y-140602450D01*
X142746428Y-140602450D02*
X142682143Y-140538164D01*
X142682143Y-140538164D02*
X142553571Y-140473878D01*
X142553571Y-140473878D02*
X142296428Y-140409592D01*
X142296428Y-140409592D02*
X142167857Y-140345307D01*
X142167857Y-140345307D02*
X142103571Y-140281021D01*
X142103571Y-140281021D02*
X142039285Y-140152450D01*
X142039285Y-140152450D02*
X142039285Y-140023878D01*
X142039285Y-140023878D02*
X142103571Y-139895307D01*
X142103571Y-139895307D02*
X142167857Y-139831021D01*
X142167857Y-139831021D02*
X142296428Y-139766735D01*
X142296428Y-139766735D02*
X142617857Y-139766735D01*
X142617857Y-139766735D02*
X142810714Y-139831021D01*
X143389285Y-141116735D02*
X143389285Y-139766735D01*
X143389285Y-140409592D02*
X144160714Y-140409592D01*
X144160714Y-141116735D02*
X144160714Y-139766735D01*
X144803571Y-141116735D02*
X144803571Y-139766735D01*
X145446428Y-141116735D02*
X145446428Y-139766735D01*
X145446428Y-139766735D02*
X145896428Y-140731021D01*
X145896428Y-140731021D02*
X146346428Y-139766735D01*
X146346428Y-139766735D02*
X146346428Y-141116735D01*
X63464285Y-136908557D02*
X63164285Y-136479985D01*
X62949999Y-136908557D02*
X62949999Y-136008557D01*
X62949999Y-136008557D02*
X63292856Y-136008557D01*
X63292856Y-136008557D02*
X63378571Y-136051414D01*
X63378571Y-136051414D02*
X63421428Y-136094271D01*
X63421428Y-136094271D02*
X63464285Y-136179985D01*
X63464285Y-136179985D02*
X63464285Y-136308557D01*
X63464285Y-136308557D02*
X63421428Y-136394271D01*
X63421428Y-136394271D02*
X63378571Y-136437128D01*
X63378571Y-136437128D02*
X63292856Y-136479985D01*
X63292856Y-136479985D02*
X62949999Y-136479985D01*
X63721428Y-136008557D02*
X64021428Y-136908557D01*
X64021428Y-136908557D02*
X64321428Y-136008557D01*
X65092857Y-136908557D02*
X64578571Y-136908557D01*
X64835714Y-136908557D02*
X64835714Y-136008557D01*
X64835714Y-136008557D02*
X64750000Y-136137128D01*
X64750000Y-136137128D02*
X64664285Y-136222842D01*
X64664285Y-136222842D02*
X64578571Y-136265700D01*
X148699999Y-89337128D02*
X148399999Y-89337128D01*
X148399999Y-89808557D02*
X148399999Y-88908557D01*
X148399999Y-88908557D02*
X148828571Y-88908557D01*
X149128571Y-88994271D02*
X149171428Y-88951414D01*
X149171428Y-88951414D02*
X149257143Y-88908557D01*
X149257143Y-88908557D02*
X149471428Y-88908557D01*
X149471428Y-88908557D02*
X149557143Y-88951414D01*
X149557143Y-88951414D02*
X149600000Y-88994271D01*
X149600000Y-88994271D02*
X149642857Y-89079985D01*
X149642857Y-89079985D02*
X149642857Y-89165700D01*
X149642857Y-89165700D02*
X149600000Y-89294271D01*
X149600000Y-89294271D02*
X149085714Y-89808557D01*
X149085714Y-89808557D02*
X149642857Y-89808557D01*
X37390476Y-52362295D02*
X37390476Y-51562295D01*
X37390476Y-51943247D02*
X37847619Y-51943247D01*
X37847619Y-52362295D02*
X37847619Y-51562295D01*
X38647618Y-52362295D02*
X38190475Y-52362295D01*
X38419047Y-52362295D02*
X38419047Y-51562295D01*
X38419047Y-51562295D02*
X38342856Y-51676580D01*
X38342856Y-51676580D02*
X38266666Y-51752771D01*
X38266666Y-51752771D02*
X38190475Y-51790866D01*
X147366667Y-99786104D02*
X147328571Y-99824200D01*
X147328571Y-99824200D02*
X147214286Y-99862295D01*
X147214286Y-99862295D02*
X147138095Y-99862295D01*
X147138095Y-99862295D02*
X147023809Y-99824200D01*
X147023809Y-99824200D02*
X146947619Y-99748009D01*
X146947619Y-99748009D02*
X146909524Y-99671819D01*
X146909524Y-99671819D02*
X146871428Y-99519438D01*
X146871428Y-99519438D02*
X146871428Y-99405152D01*
X146871428Y-99405152D02*
X146909524Y-99252771D01*
X146909524Y-99252771D02*
X146947619Y-99176580D01*
X146947619Y-99176580D02*
X147023809Y-99100390D01*
X147023809Y-99100390D02*
X147138095Y-99062295D01*
X147138095Y-99062295D02*
X147214286Y-99062295D01*
X147214286Y-99062295D02*
X147328571Y-99100390D01*
X147328571Y-99100390D02*
X147366667Y-99138485D01*
X147633333Y-99062295D02*
X148128571Y-99062295D01*
X148128571Y-99062295D02*
X147861905Y-99367057D01*
X147861905Y-99367057D02*
X147976190Y-99367057D01*
X147976190Y-99367057D02*
X148052381Y-99405152D01*
X148052381Y-99405152D02*
X148090476Y-99443247D01*
X148090476Y-99443247D02*
X148128571Y-99519438D01*
X148128571Y-99519438D02*
X148128571Y-99709914D01*
X148128571Y-99709914D02*
X148090476Y-99786104D01*
X148090476Y-99786104D02*
X148052381Y-99824200D01*
X148052381Y-99824200D02*
X147976190Y-99862295D01*
X147976190Y-99862295D02*
X147747619Y-99862295D01*
X147747619Y-99862295D02*
X147671428Y-99824200D01*
X147671428Y-99824200D02*
X147633333Y-99786104D01*
X121335714Y-130408557D02*
X121335714Y-129508557D01*
X121850000Y-130408557D02*
X121464286Y-129894271D01*
X121850000Y-129508557D02*
X121335714Y-130022842D01*
X122707143Y-130408557D02*
X122192857Y-130408557D01*
X122450000Y-130408557D02*
X122450000Y-129508557D01*
X122450000Y-129508557D02*
X122364286Y-129637128D01*
X122364286Y-129637128D02*
X122278571Y-129722842D01*
X122278571Y-129722842D02*
X122192857Y-129765700D01*
X104700000Y-128008557D02*
X104700000Y-128651414D01*
X104700000Y-128651414D02*
X104657143Y-128779985D01*
X104657143Y-128779985D02*
X104571429Y-128865700D01*
X104571429Y-128865700D02*
X104442857Y-128908557D01*
X104442857Y-128908557D02*
X104357143Y-128908557D01*
X105514286Y-128308557D02*
X105514286Y-128908557D01*
X105300000Y-127965700D02*
X105085714Y-128608557D01*
X105085714Y-128608557D02*
X105642857Y-128608557D01*
X161390476Y-148362295D02*
X161390476Y-147562295D01*
X161390476Y-147943247D02*
X161847619Y-147943247D01*
X161847619Y-148362295D02*
X161847619Y-147562295D01*
X162571428Y-147828961D02*
X162571428Y-148362295D01*
X162380952Y-147524200D02*
X162190475Y-148095628D01*
X162190475Y-148095628D02*
X162685714Y-148095628D01*
X37390476Y-148362295D02*
X37390476Y-147562295D01*
X37390476Y-147943247D02*
X37847619Y-147943247D01*
X37847619Y-148362295D02*
X37847619Y-147562295D01*
X38152380Y-147562295D02*
X38647618Y-147562295D01*
X38647618Y-147562295D02*
X38380952Y-147867057D01*
X38380952Y-147867057D02*
X38495237Y-147867057D01*
X38495237Y-147867057D02*
X38571428Y-147905152D01*
X38571428Y-147905152D02*
X38609523Y-147943247D01*
X38609523Y-147943247D02*
X38647618Y-148019438D01*
X38647618Y-148019438D02*
X38647618Y-148209914D01*
X38647618Y-148209914D02*
X38609523Y-148286104D01*
X38609523Y-148286104D02*
X38571428Y-148324200D01*
X38571428Y-148324200D02*
X38495237Y-148362295D01*
X38495237Y-148362295D02*
X38266666Y-148362295D01*
X38266666Y-148362295D02*
X38190475Y-148324200D01*
X38190475Y-148324200D02*
X38152380Y-148286104D01*
X156850000Y-114008557D02*
X156421428Y-114008557D01*
X156421428Y-114008557D02*
X156421428Y-113108557D01*
X157621428Y-114008557D02*
X157107142Y-114008557D01*
X157364285Y-114008557D02*
X157364285Y-113108557D01*
X157364285Y-113108557D02*
X157278571Y-113237128D01*
X157278571Y-113237128D02*
X157192856Y-113322842D01*
X157192856Y-113322842D02*
X157107142Y-113365700D01*
X149335714Y-122308557D02*
X149335714Y-121408557D01*
X149335714Y-121408557D02*
X149550000Y-121408557D01*
X149550000Y-121408557D02*
X149678571Y-121451414D01*
X149678571Y-121451414D02*
X149764286Y-121537128D01*
X149764286Y-121537128D02*
X149807143Y-121622842D01*
X149807143Y-121622842D02*
X149850000Y-121794271D01*
X149850000Y-121794271D02*
X149850000Y-121922842D01*
X149850000Y-121922842D02*
X149807143Y-122094271D01*
X149807143Y-122094271D02*
X149764286Y-122179985D01*
X149764286Y-122179985D02*
X149678571Y-122265700D01*
X149678571Y-122265700D02*
X149550000Y-122308557D01*
X149550000Y-122308557D02*
X149335714Y-122308557D01*
X150707143Y-122308557D02*
X150192857Y-122308557D01*
X150450000Y-122308557D02*
X150450000Y-121408557D01*
X150450000Y-121408557D02*
X150364286Y-121537128D01*
X150364286Y-121537128D02*
X150278571Y-121622842D01*
X150278571Y-121622842D02*
X150192857Y-121665700D01*
X88866667Y-136586104D02*
X88828571Y-136624200D01*
X88828571Y-136624200D02*
X88714286Y-136662295D01*
X88714286Y-136662295D02*
X88638095Y-136662295D01*
X88638095Y-136662295D02*
X88523809Y-136624200D01*
X88523809Y-136624200D02*
X88447619Y-136548009D01*
X88447619Y-136548009D02*
X88409524Y-136471819D01*
X88409524Y-136471819D02*
X88371428Y-136319438D01*
X88371428Y-136319438D02*
X88371428Y-136205152D01*
X88371428Y-136205152D02*
X88409524Y-136052771D01*
X88409524Y-136052771D02*
X88447619Y-135976580D01*
X88447619Y-135976580D02*
X88523809Y-135900390D01*
X88523809Y-135900390D02*
X88638095Y-135862295D01*
X88638095Y-135862295D02*
X88714286Y-135862295D01*
X88714286Y-135862295D02*
X88828571Y-135900390D01*
X88828571Y-135900390D02*
X88866667Y-135938485D01*
X89628571Y-136662295D02*
X89171428Y-136662295D01*
X89400000Y-136662295D02*
X89400000Y-135862295D01*
X89400000Y-135862295D02*
X89323809Y-135976580D01*
X89323809Y-135976580D02*
X89247619Y-136052771D01*
X89247619Y-136052771D02*
X89171428Y-136090866D01*
X160700000Y-61508557D02*
X160700000Y-62151414D01*
X160700000Y-62151414D02*
X160657143Y-62279985D01*
X160657143Y-62279985D02*
X160571429Y-62365700D01*
X160571429Y-62365700D02*
X160442857Y-62408557D01*
X160442857Y-62408557D02*
X160357143Y-62408557D01*
X161557143Y-61508557D02*
X161128571Y-61508557D01*
X161128571Y-61508557D02*
X161085714Y-61937128D01*
X161085714Y-61937128D02*
X161128571Y-61894271D01*
X161128571Y-61894271D02*
X161214286Y-61851414D01*
X161214286Y-61851414D02*
X161428571Y-61851414D01*
X161428571Y-61851414D02*
X161514286Y-61894271D01*
X161514286Y-61894271D02*
X161557143Y-61937128D01*
X161557143Y-61937128D02*
X161600000Y-62022842D01*
X161600000Y-62022842D02*
X161600000Y-62237128D01*
X161600000Y-62237128D02*
X161557143Y-62322842D01*
X161557143Y-62322842D02*
X161514286Y-62365700D01*
X161514286Y-62365700D02*
X161428571Y-62408557D01*
X161428571Y-62408557D02*
X161214286Y-62408557D01*
X161214286Y-62408557D02*
X161128571Y-62365700D01*
X161128571Y-62365700D02*
X161085714Y-62322842D01*
X139866667Y-107286104D02*
X139828571Y-107324200D01*
X139828571Y-107324200D02*
X139714286Y-107362295D01*
X139714286Y-107362295D02*
X139638095Y-107362295D01*
X139638095Y-107362295D02*
X139523809Y-107324200D01*
X139523809Y-107324200D02*
X139447619Y-107248009D01*
X139447619Y-107248009D02*
X139409524Y-107171819D01*
X139409524Y-107171819D02*
X139371428Y-107019438D01*
X139371428Y-107019438D02*
X139371428Y-106905152D01*
X139371428Y-106905152D02*
X139409524Y-106752771D01*
X139409524Y-106752771D02*
X139447619Y-106676580D01*
X139447619Y-106676580D02*
X139523809Y-106600390D01*
X139523809Y-106600390D02*
X139638095Y-106562295D01*
X139638095Y-106562295D02*
X139714286Y-106562295D01*
X139714286Y-106562295D02*
X139828571Y-106600390D01*
X139828571Y-106600390D02*
X139866667Y-106638485D01*
X140171428Y-106638485D02*
X140209524Y-106600390D01*
X140209524Y-106600390D02*
X140285714Y-106562295D01*
X140285714Y-106562295D02*
X140476190Y-106562295D01*
X140476190Y-106562295D02*
X140552381Y-106600390D01*
X140552381Y-106600390D02*
X140590476Y-106638485D01*
X140590476Y-106638485D02*
X140628571Y-106714676D01*
X140628571Y-106714676D02*
X140628571Y-106790866D01*
X140628571Y-106790866D02*
X140590476Y-106905152D01*
X140590476Y-106905152D02*
X140133333Y-107362295D01*
X140133333Y-107362295D02*
X140628571Y-107362295D01*
X168366667Y-117286104D02*
X168328571Y-117324200D01*
X168328571Y-117324200D02*
X168214286Y-117362295D01*
X168214286Y-117362295D02*
X168138095Y-117362295D01*
X168138095Y-117362295D02*
X168023809Y-117324200D01*
X168023809Y-117324200D02*
X167947619Y-117248009D01*
X167947619Y-117248009D02*
X167909524Y-117171819D01*
X167909524Y-117171819D02*
X167871428Y-117019438D01*
X167871428Y-117019438D02*
X167871428Y-116905152D01*
X167871428Y-116905152D02*
X167909524Y-116752771D01*
X167909524Y-116752771D02*
X167947619Y-116676580D01*
X167947619Y-116676580D02*
X168023809Y-116600390D01*
X168023809Y-116600390D02*
X168138095Y-116562295D01*
X168138095Y-116562295D02*
X168214286Y-116562295D01*
X168214286Y-116562295D02*
X168328571Y-116600390D01*
X168328571Y-116600390D02*
X168366667Y-116638485D01*
X169052381Y-116562295D02*
X168900000Y-116562295D01*
X168900000Y-116562295D02*
X168823809Y-116600390D01*
X168823809Y-116600390D02*
X168785714Y-116638485D01*
X168785714Y-116638485D02*
X168709524Y-116752771D01*
X168709524Y-116752771D02*
X168671428Y-116905152D01*
X168671428Y-116905152D02*
X168671428Y-117209914D01*
X168671428Y-117209914D02*
X168709524Y-117286104D01*
X168709524Y-117286104D02*
X168747619Y-117324200D01*
X168747619Y-117324200D02*
X168823809Y-117362295D01*
X168823809Y-117362295D02*
X168976190Y-117362295D01*
X168976190Y-117362295D02*
X169052381Y-117324200D01*
X169052381Y-117324200D02*
X169090476Y-117286104D01*
X169090476Y-117286104D02*
X169128571Y-117209914D01*
X169128571Y-117209914D02*
X169128571Y-117019438D01*
X169128571Y-117019438D02*
X169090476Y-116943247D01*
X169090476Y-116943247D02*
X169052381Y-116905152D01*
X169052381Y-116905152D02*
X168976190Y-116867057D01*
X168976190Y-116867057D02*
X168823809Y-116867057D01*
X168823809Y-116867057D02*
X168747619Y-116905152D01*
X168747619Y-116905152D02*
X168709524Y-116943247D01*
X168709524Y-116943247D02*
X168671428Y-117019438D01*
X161390476Y-52362295D02*
X161390476Y-51562295D01*
X161390476Y-51943247D02*
X161847619Y-51943247D01*
X161847619Y-52362295D02*
X161847619Y-51562295D01*
X162190475Y-51638485D02*
X162228571Y-51600390D01*
X162228571Y-51600390D02*
X162304761Y-51562295D01*
X162304761Y-51562295D02*
X162495237Y-51562295D01*
X162495237Y-51562295D02*
X162571428Y-51600390D01*
X162571428Y-51600390D02*
X162609523Y-51638485D01*
X162609523Y-51638485D02*
X162647618Y-51714676D01*
X162647618Y-51714676D02*
X162647618Y-51790866D01*
X162647618Y-51790866D02*
X162609523Y-51905152D01*
X162609523Y-51905152D02*
X162152380Y-52362295D01*
X162152380Y-52362295D02*
X162647618Y-52362295D01*
X164700000Y-85008557D02*
X164700000Y-85651414D01*
X164700000Y-85651414D02*
X164657143Y-85779985D01*
X164657143Y-85779985D02*
X164571429Y-85865700D01*
X164571429Y-85865700D02*
X164442857Y-85908557D01*
X164442857Y-85908557D02*
X164357143Y-85908557D01*
X165514286Y-85008557D02*
X165342857Y-85008557D01*
X165342857Y-85008557D02*
X165257143Y-85051414D01*
X165257143Y-85051414D02*
X165214286Y-85094271D01*
X165214286Y-85094271D02*
X165128571Y-85222842D01*
X165128571Y-85222842D02*
X165085714Y-85394271D01*
X165085714Y-85394271D02*
X165085714Y-85737128D01*
X165085714Y-85737128D02*
X165128571Y-85822842D01*
X165128571Y-85822842D02*
X165171428Y-85865700D01*
X165171428Y-85865700D02*
X165257143Y-85908557D01*
X165257143Y-85908557D02*
X165428571Y-85908557D01*
X165428571Y-85908557D02*
X165514286Y-85865700D01*
X165514286Y-85865700D02*
X165557143Y-85822842D01*
X165557143Y-85822842D02*
X165600000Y-85737128D01*
X165600000Y-85737128D02*
X165600000Y-85522842D01*
X165600000Y-85522842D02*
X165557143Y-85437128D01*
X165557143Y-85437128D02*
X165514286Y-85394271D01*
X165514286Y-85394271D02*
X165428571Y-85351414D01*
X165428571Y-85351414D02*
X165257143Y-85351414D01*
X165257143Y-85351414D02*
X165171428Y-85394271D01*
X165171428Y-85394271D02*
X165128571Y-85437128D01*
X165128571Y-85437128D02*
X165085714Y-85522842D01*
X46700000Y-127508557D02*
X46700000Y-128151414D01*
X46700000Y-128151414D02*
X46657143Y-128279985D01*
X46657143Y-128279985D02*
X46571429Y-128365700D01*
X46571429Y-128365700D02*
X46442857Y-128408557D01*
X46442857Y-128408557D02*
X46357143Y-128408557D01*
X47042857Y-127508557D02*
X47600000Y-127508557D01*
X47600000Y-127508557D02*
X47300000Y-127851414D01*
X47300000Y-127851414D02*
X47428571Y-127851414D01*
X47428571Y-127851414D02*
X47514286Y-127894271D01*
X47514286Y-127894271D02*
X47557143Y-127937128D01*
X47557143Y-127937128D02*
X47600000Y-128022842D01*
X47600000Y-128022842D02*
X47600000Y-128237128D01*
X47600000Y-128237128D02*
X47557143Y-128322842D01*
X47557143Y-128322842D02*
X47514286Y-128365700D01*
X47514286Y-128365700D02*
X47428571Y-128408557D01*
X47428571Y-128408557D02*
X47171428Y-128408557D01*
X47171428Y-128408557D02*
X47085714Y-128365700D01*
X47085714Y-128365700D02*
X47042857Y-128322842D01*
X98699999Y-114137128D02*
X98399999Y-114137128D01*
X98399999Y-114608557D02*
X98399999Y-113708557D01*
X98399999Y-113708557D02*
X98828571Y-113708557D01*
X99085714Y-113708557D02*
X99642857Y-113708557D01*
X99642857Y-113708557D02*
X99342857Y-114051414D01*
X99342857Y-114051414D02*
X99471428Y-114051414D01*
X99471428Y-114051414D02*
X99557143Y-114094271D01*
X99557143Y-114094271D02*
X99600000Y-114137128D01*
X99600000Y-114137128D02*
X99642857Y-114222842D01*
X99642857Y-114222842D02*
X99642857Y-114437128D01*
X99642857Y-114437128D02*
X99600000Y-114522842D01*
X99600000Y-114522842D02*
X99557143Y-114565700D01*
X99557143Y-114565700D02*
X99471428Y-114608557D01*
X99471428Y-114608557D02*
X99214285Y-114608557D01*
X99214285Y-114608557D02*
X99128571Y-114565700D01*
X99128571Y-114565700D02*
X99085714Y-114522842D01*
X142666667Y-114686104D02*
X142628571Y-114724200D01*
X142628571Y-114724200D02*
X142514286Y-114762295D01*
X142514286Y-114762295D02*
X142438095Y-114762295D01*
X142438095Y-114762295D02*
X142323809Y-114724200D01*
X142323809Y-114724200D02*
X142247619Y-114648009D01*
X142247619Y-114648009D02*
X142209524Y-114571819D01*
X142209524Y-114571819D02*
X142171428Y-114419438D01*
X142171428Y-114419438D02*
X142171428Y-114305152D01*
X142171428Y-114305152D02*
X142209524Y-114152771D01*
X142209524Y-114152771D02*
X142247619Y-114076580D01*
X142247619Y-114076580D02*
X142323809Y-114000390D01*
X142323809Y-114000390D02*
X142438095Y-113962295D01*
X142438095Y-113962295D02*
X142514286Y-113962295D01*
X142514286Y-113962295D02*
X142628571Y-114000390D01*
X142628571Y-114000390D02*
X142666667Y-114038485D01*
X142933333Y-113962295D02*
X143466667Y-113962295D01*
X143466667Y-113962295D02*
X143123809Y-114762295D01*
X148390476Y-111962295D02*
X148390476Y-112609914D01*
X148390476Y-112609914D02*
X148428571Y-112686104D01*
X148428571Y-112686104D02*
X148466666Y-112724200D01*
X148466666Y-112724200D02*
X148542857Y-112762295D01*
X148542857Y-112762295D02*
X148695238Y-112762295D01*
X148695238Y-112762295D02*
X148771428Y-112724200D01*
X148771428Y-112724200D02*
X148809523Y-112686104D01*
X148809523Y-112686104D02*
X148847619Y-112609914D01*
X148847619Y-112609914D02*
X148847619Y-111962295D01*
X149190475Y-112038485D02*
X149228571Y-112000390D01*
X149228571Y-112000390D02*
X149304761Y-111962295D01*
X149304761Y-111962295D02*
X149495237Y-111962295D01*
X149495237Y-111962295D02*
X149571428Y-112000390D01*
X149571428Y-112000390D02*
X149609523Y-112038485D01*
X149609523Y-112038485D02*
X149647618Y-112114676D01*
X149647618Y-112114676D02*
X149647618Y-112190866D01*
X149647618Y-112190866D02*
X149609523Y-112305152D01*
X149609523Y-112305152D02*
X149152380Y-112762295D01*
X149152380Y-112762295D02*
X149647618Y-112762295D01*
X93850000Y-121308557D02*
X93550000Y-120879985D01*
X93335714Y-121308557D02*
X93335714Y-120408557D01*
X93335714Y-120408557D02*
X93678571Y-120408557D01*
X93678571Y-120408557D02*
X93764286Y-120451414D01*
X93764286Y-120451414D02*
X93807143Y-120494271D01*
X93807143Y-120494271D02*
X93850000Y-120579985D01*
X93850000Y-120579985D02*
X93850000Y-120708557D01*
X93850000Y-120708557D02*
X93807143Y-120794271D01*
X93807143Y-120794271D02*
X93764286Y-120837128D01*
X93764286Y-120837128D02*
X93678571Y-120879985D01*
X93678571Y-120879985D02*
X93335714Y-120879985D01*
X94707143Y-121308557D02*
X94192857Y-121308557D01*
X94450000Y-121308557D02*
X94450000Y-120408557D01*
X94450000Y-120408557D02*
X94364286Y-120537128D01*
X94364286Y-120537128D02*
X94278571Y-120622842D01*
X94278571Y-120622842D02*
X94192857Y-120665700D01*
X150866667Y-101786104D02*
X150828571Y-101824200D01*
X150828571Y-101824200D02*
X150714286Y-101862295D01*
X150714286Y-101862295D02*
X150638095Y-101862295D01*
X150638095Y-101862295D02*
X150523809Y-101824200D01*
X150523809Y-101824200D02*
X150447619Y-101748009D01*
X150447619Y-101748009D02*
X150409524Y-101671819D01*
X150409524Y-101671819D02*
X150371428Y-101519438D01*
X150371428Y-101519438D02*
X150371428Y-101405152D01*
X150371428Y-101405152D02*
X150409524Y-101252771D01*
X150409524Y-101252771D02*
X150447619Y-101176580D01*
X150447619Y-101176580D02*
X150523809Y-101100390D01*
X150523809Y-101100390D02*
X150638095Y-101062295D01*
X150638095Y-101062295D02*
X150714286Y-101062295D01*
X150714286Y-101062295D02*
X150828571Y-101100390D01*
X150828571Y-101100390D02*
X150866667Y-101138485D01*
X151590476Y-101062295D02*
X151209524Y-101062295D01*
X151209524Y-101062295D02*
X151171428Y-101443247D01*
X151171428Y-101443247D02*
X151209524Y-101405152D01*
X151209524Y-101405152D02*
X151285714Y-101367057D01*
X151285714Y-101367057D02*
X151476190Y-101367057D01*
X151476190Y-101367057D02*
X151552381Y-101405152D01*
X151552381Y-101405152D02*
X151590476Y-101443247D01*
X151590476Y-101443247D02*
X151628571Y-101519438D01*
X151628571Y-101519438D02*
X151628571Y-101709914D01*
X151628571Y-101709914D02*
X151590476Y-101786104D01*
X151590476Y-101786104D02*
X151552381Y-101824200D01*
X151552381Y-101824200D02*
X151476190Y-101862295D01*
X151476190Y-101862295D02*
X151285714Y-101862295D01*
X151285714Y-101862295D02*
X151209524Y-101824200D01*
X151209524Y-101824200D02*
X151171428Y-101786104D01*
X168366667Y-109286104D02*
X168328571Y-109324200D01*
X168328571Y-109324200D02*
X168214286Y-109362295D01*
X168214286Y-109362295D02*
X168138095Y-109362295D01*
X168138095Y-109362295D02*
X168023809Y-109324200D01*
X168023809Y-109324200D02*
X167947619Y-109248009D01*
X167947619Y-109248009D02*
X167909524Y-109171819D01*
X167909524Y-109171819D02*
X167871428Y-109019438D01*
X167871428Y-109019438D02*
X167871428Y-108905152D01*
X167871428Y-108905152D02*
X167909524Y-108752771D01*
X167909524Y-108752771D02*
X167947619Y-108676580D01*
X167947619Y-108676580D02*
X168023809Y-108600390D01*
X168023809Y-108600390D02*
X168138095Y-108562295D01*
X168138095Y-108562295D02*
X168214286Y-108562295D01*
X168214286Y-108562295D02*
X168328571Y-108600390D01*
X168328571Y-108600390D02*
X168366667Y-108638485D01*
X169052381Y-108828961D02*
X169052381Y-109362295D01*
X168861905Y-108524200D02*
X168671428Y-109095628D01*
X168671428Y-109095628D02*
X169166667Y-109095628D01*
X61314285Y-48008557D02*
X61314285Y-48737128D01*
X61314285Y-48737128D02*
X61357142Y-48822842D01*
X61357142Y-48822842D02*
X61400000Y-48865700D01*
X61400000Y-48865700D02*
X61485714Y-48908557D01*
X61485714Y-48908557D02*
X61657142Y-48908557D01*
X61657142Y-48908557D02*
X61742857Y-48865700D01*
X61742857Y-48865700D02*
X61785714Y-48822842D01*
X61785714Y-48822842D02*
X61828571Y-48737128D01*
X61828571Y-48737128D02*
X61828571Y-48008557D01*
X62728571Y-48908557D02*
X62214285Y-48908557D01*
X62471428Y-48908557D02*
X62471428Y-48008557D01*
X62471428Y-48008557D02*
X62385714Y-48137128D01*
X62385714Y-48137128D02*
X62299999Y-48222842D01*
X62299999Y-48222842D02*
X62214285Y-48265700D01*
X43700000Y-80508557D02*
X43700000Y-81151414D01*
X43700000Y-81151414D02*
X43657143Y-81279985D01*
X43657143Y-81279985D02*
X43571429Y-81365700D01*
X43571429Y-81365700D02*
X43442857Y-81408557D01*
X43442857Y-81408557D02*
X43357143Y-81408557D01*
X44085714Y-80594271D02*
X44128571Y-80551414D01*
X44128571Y-80551414D02*
X44214286Y-80508557D01*
X44214286Y-80508557D02*
X44428571Y-80508557D01*
X44428571Y-80508557D02*
X44514286Y-80551414D01*
X44514286Y-80551414D02*
X44557143Y-80594271D01*
X44557143Y-80594271D02*
X44600000Y-80679985D01*
X44600000Y-80679985D02*
X44600000Y-80765700D01*
X44600000Y-80765700D02*
X44557143Y-80894271D01*
X44557143Y-80894271D02*
X44042857Y-81408557D01*
X44042857Y-81408557D02*
X44600000Y-81408557D01*
X43700000Y-51508557D02*
X43700000Y-52151414D01*
X43700000Y-52151414D02*
X43657143Y-52279985D01*
X43657143Y-52279985D02*
X43571429Y-52365700D01*
X43571429Y-52365700D02*
X43442857Y-52408557D01*
X43442857Y-52408557D02*
X43357143Y-52408557D01*
X44600000Y-52408557D02*
X44085714Y-52408557D01*
X44342857Y-52408557D02*
X44342857Y-51508557D01*
X44342857Y-51508557D02*
X44257143Y-51637128D01*
X44257143Y-51637128D02*
X44171428Y-51722842D01*
X44171428Y-51722842D02*
X44085714Y-51765700D01*
M02*
