%TF.GenerationSoftware,KiCad,Pcbnew,10.0.5*%
%TF.CreationDate,2026-09-14T01:27:43-07:00*%
%TF.ProjectId,controller,636f6e74-726f-46c6-9c65-722e6b696361,rev?*%
%TF.SameCoordinates,Original*%
%TF.FileFunction,Soldermask,Bot*%
%TF.FilePolarity,Negative*%
%FSLAX46Y46*%
G04 Gerber Fmt 4.6, Leading zero omitted, Abs format (unit mm)*
G04 Created by KiCad (PCBNEW 10.0.5) date 2026-09-14 01:27:43*
%MOMM*%
%LPD*%
G01*
G04 APERTURE LIST*
G04 APERTURE END LIST*
G36*
X106890476Y-151491866D02*
G01*
X107014819Y-151563656D01*
X107116344Y-151665181D01*
X107188134Y-151789524D01*
X107225295Y-151928211D01*
X107230000Y-152000000D01*
X107230000Y-152800000D01*
X107225295Y-152871789D01*
X107188134Y-153010476D01*
X107116344Y-153134819D01*
X107014819Y-153236344D01*
X106890476Y-153308134D01*
X106751789Y-153345295D01*
X106608211Y-153345295D01*
X106469524Y-153308134D01*
X106345181Y-153236344D01*
X106243656Y-153134819D01*
X106171866Y-153010476D01*
X106134705Y-152871789D01*
X106130000Y-152800000D01*
X106130000Y-152000000D01*
X106134705Y-151928211D01*
X106171866Y-151789524D01*
X106243656Y-151665181D01*
X106345181Y-151563656D01*
X106469524Y-151491866D01*
X106608211Y-151454705D01*
X106751789Y-151454705D01*
X106890476Y-151491866D01*
G37*
G36*
X115530476Y-151491866D02*
G01*
X115654819Y-151563656D01*
X115756344Y-151665181D01*
X115828134Y-151789524D01*
X115865295Y-151928211D01*
X115870000Y-152000000D01*
X115870000Y-152800000D01*
X115865295Y-152871789D01*
X115828134Y-153010476D01*
X115756344Y-153134819D01*
X115654819Y-153236344D01*
X115530476Y-153308134D01*
X115391789Y-153345295D01*
X115248211Y-153345295D01*
X115109524Y-153308134D01*
X114985181Y-153236344D01*
X114883656Y-153134819D01*
X114811866Y-153010476D01*
X114774705Y-152871789D01*
X114770000Y-152800000D01*
X114770000Y-152000000D01*
X114774705Y-151928211D01*
X114811866Y-151789524D01*
X114883656Y-151665181D01*
X114985181Y-151563656D01*
X115109524Y-151491866D01*
X115248211Y-151454705D01*
X115391789Y-151454705D01*
X115530476Y-151491866D01*
G37*
G36*
X32373513Y-146444208D02*
G01*
X32612293Y-146521793D01*
X32835998Y-146635776D01*
X33039117Y-146783350D01*
X33216650Y-146960883D01*
X33364224Y-147164002D01*
X33478207Y-147387707D01*
X33555792Y-147626487D01*
X33595068Y-147874465D01*
X33595068Y-148125535D01*
X33555792Y-148373513D01*
X33478207Y-148612293D01*
X33364224Y-148835998D01*
X33216650Y-149039117D01*
X33039117Y-149216650D01*
X32835998Y-149364224D01*
X32612293Y-149478207D01*
X32373513Y-149555792D01*
X32125535Y-149595068D01*
X31874465Y-149595068D01*
X31626487Y-149555792D01*
X31387707Y-149478207D01*
X31164002Y-149364224D01*
X30960883Y-149216650D01*
X30783350Y-149039117D01*
X30635776Y-148835998D01*
X30521793Y-148612293D01*
X30444208Y-148373513D01*
X30404932Y-148125535D01*
X30404932Y-147874465D01*
X30444208Y-147626487D01*
X30521793Y-147387707D01*
X30635776Y-147164002D01*
X30783350Y-146960883D01*
X30960883Y-146783350D01*
X31164002Y-146635776D01*
X31387707Y-146521793D01*
X31626487Y-146444208D01*
X31874465Y-146404932D01*
X32125535Y-146404932D01*
X32373513Y-146444208D01*
G37*
G36*
X168373513Y-146444208D02*
G01*
X168612293Y-146521793D01*
X168835998Y-146635776D01*
X169039117Y-146783350D01*
X169216650Y-146960883D01*
X169364224Y-147164002D01*
X169478207Y-147387707D01*
X169555792Y-147626487D01*
X169595068Y-147874465D01*
X169595068Y-148125535D01*
X169555792Y-148373513D01*
X169478207Y-148612293D01*
X169364224Y-148835998D01*
X169216650Y-149039117D01*
X169039117Y-149216650D01*
X168835998Y-149364224D01*
X168612293Y-149478207D01*
X168373513Y-149555792D01*
X168125535Y-149595068D01*
X167874465Y-149595068D01*
X167626487Y-149555792D01*
X167387707Y-149478207D01*
X167164002Y-149364224D01*
X166960883Y-149216650D01*
X166783350Y-149039117D01*
X166635776Y-148835998D01*
X166521793Y-148612293D01*
X166444208Y-148373513D01*
X166404932Y-148125535D01*
X166404932Y-147874465D01*
X166444208Y-147626487D01*
X166521793Y-147387707D01*
X166635776Y-147164002D01*
X166783350Y-146960883D01*
X166960883Y-146783350D01*
X167164002Y-146635776D01*
X167387707Y-146521793D01*
X167626487Y-146444208D01*
X167874465Y-146404932D01*
X168125535Y-146404932D01*
X168373513Y-146444208D01*
G37*
G36*
X106890476Y-147161866D02*
G01*
X107014819Y-147233656D01*
X107116344Y-147335181D01*
X107188134Y-147459524D01*
X107225295Y-147598211D01*
X107230000Y-147670000D01*
X107230000Y-148770000D01*
X107225295Y-148841789D01*
X107188134Y-148980476D01*
X107116344Y-149104819D01*
X107014819Y-149206344D01*
X106890476Y-149278134D01*
X106751789Y-149315295D01*
X106608211Y-149315295D01*
X106469524Y-149278134D01*
X106345181Y-149206344D01*
X106243656Y-149104819D01*
X106171866Y-148980476D01*
X106134705Y-148841789D01*
X106130000Y-148770000D01*
X106130000Y-147670000D01*
X106134705Y-147598211D01*
X106171866Y-147459524D01*
X106243656Y-147335181D01*
X106345181Y-147233656D01*
X106469524Y-147161866D01*
X106608211Y-147124705D01*
X106751789Y-147124705D01*
X106890476Y-147161866D01*
G37*
G36*
X115530476Y-147161866D02*
G01*
X115654819Y-147233656D01*
X115756344Y-147335181D01*
X115828134Y-147459524D01*
X115865295Y-147598211D01*
X115870000Y-147670000D01*
X115870000Y-148770000D01*
X115865295Y-148841789D01*
X115828134Y-148980476D01*
X115756344Y-149104819D01*
X115654819Y-149206344D01*
X115530476Y-149278134D01*
X115391789Y-149315295D01*
X115248211Y-149315295D01*
X115109524Y-149278134D01*
X114985181Y-149206344D01*
X114883656Y-149104819D01*
X114811866Y-148980476D01*
X114774705Y-148841789D01*
X114770000Y-148770000D01*
X114770000Y-147670000D01*
X114774705Y-147598211D01*
X114811866Y-147459524D01*
X114883656Y-147335181D01*
X114985181Y-147233656D01*
X115109524Y-147161866D01*
X115248211Y-147124705D01*
X115391789Y-147124705D01*
X115530476Y-147161866D01*
G37*
G36*
X108234372Y-148419739D02*
G01*
X108307847Y-148462160D01*
X108367840Y-148522153D01*
X108410261Y-148595628D01*
X108432220Y-148677579D01*
X108432220Y-148762421D01*
X108410261Y-148844372D01*
X108367840Y-148917847D01*
X108307847Y-148977840D01*
X108234372Y-149020261D01*
X108152421Y-149042220D01*
X108067579Y-149042220D01*
X107985628Y-149020261D01*
X107912153Y-148977840D01*
X107852160Y-148917847D01*
X107809739Y-148844372D01*
X107787780Y-148762421D01*
X107787780Y-148677579D01*
X107809739Y-148595628D01*
X107852160Y-148522153D01*
X107912153Y-148462160D01*
X107985628Y-148419739D01*
X108067579Y-148397780D01*
X108152421Y-148397780D01*
X108234372Y-148419739D01*
G37*
G36*
X114014372Y-148419739D02*
G01*
X114087847Y-148462160D01*
X114147840Y-148522153D01*
X114190261Y-148595628D01*
X114212220Y-148677579D01*
X114212220Y-148762421D01*
X114190261Y-148844372D01*
X114147840Y-148917847D01*
X114087847Y-148977840D01*
X114014372Y-149020261D01*
X113932421Y-149042220D01*
X113847579Y-149042220D01*
X113765628Y-149020261D01*
X113692153Y-148977840D01*
X113632160Y-148917847D01*
X113589739Y-148844372D01*
X113567780Y-148762421D01*
X113567780Y-148677579D01*
X113589739Y-148595628D01*
X113632160Y-148522153D01*
X113692153Y-148462160D01*
X113765628Y-148419739D01*
X113847579Y-148397780D01*
X113932421Y-148397780D01*
X114014372Y-148419739D01*
G37*
G36*
X56350168Y-143861445D02*
G01*
X56574025Y-143934181D01*
X56783748Y-144041040D01*
X56974172Y-144179391D01*
X57140609Y-144345828D01*
X57278960Y-144536252D01*
X57385819Y-144745975D01*
X57458555Y-144969832D01*
X57495376Y-145202311D01*
X57495376Y-145437689D01*
X57458555Y-145670168D01*
X57385819Y-145894025D01*
X57278960Y-146103748D01*
X57140609Y-146294172D01*
X56974172Y-146460609D01*
X56783748Y-146598960D01*
X56574025Y-146705819D01*
X56350168Y-146778555D01*
X56117689Y-146815376D01*
X55882311Y-146815376D01*
X55649832Y-146778555D01*
X55425975Y-146705819D01*
X55216252Y-146598960D01*
X55025828Y-146460609D01*
X54859391Y-146294172D01*
X54721040Y-146103748D01*
X54614181Y-145894025D01*
X54541445Y-145670168D01*
X54504624Y-145437689D01*
X54504624Y-145202311D01*
X54541445Y-144969832D01*
X54614181Y-144745975D01*
X54721040Y-144536252D01*
X54859391Y-144345828D01*
X55025828Y-144179391D01*
X55216252Y-144041040D01*
X55425975Y-143934181D01*
X55649832Y-143861445D01*
X55882311Y-143824624D01*
X56117689Y-143824624D01*
X56350168Y-143861445D01*
G37*
G36*
X79668685Y-139957969D02*
G01*
X79677358Y-139961798D01*
X79684925Y-139962901D01*
X79732223Y-139986023D01*
X79769541Y-140002501D01*
X79772996Y-140005956D01*
X79773920Y-140006408D01*
X79843591Y-140076079D01*
X79844042Y-140077002D01*
X79847499Y-140080459D01*
X79863978Y-140117782D01*
X79887098Y-140165073D01*
X79888200Y-140172639D01*
X79892031Y-140181315D01*
X79900000Y-140250000D01*
X79900000Y-141750000D01*
X79892031Y-141818685D01*
X79888199Y-141827361D01*
X79887098Y-141834925D01*
X79863985Y-141882202D01*
X79847499Y-141919541D01*
X79844041Y-141922998D01*
X79843591Y-141923920D01*
X79773920Y-141993591D01*
X79772998Y-141994041D01*
X79769541Y-141997499D01*
X79732207Y-142013983D01*
X79684926Y-142037098D01*
X79677361Y-142038200D01*
X79668685Y-142042031D01*
X79600000Y-142050000D01*
X78400000Y-142050000D01*
X78331315Y-142042031D01*
X78322638Y-142038200D01*
X78315074Y-142037098D01*
X78267787Y-142013981D01*
X78230459Y-141997499D01*
X78227002Y-141994042D01*
X78226079Y-141993591D01*
X78156408Y-141923920D01*
X78155956Y-141922996D01*
X78152501Y-141919541D01*
X78136025Y-141882228D01*
X78112901Y-141834926D01*
X78111798Y-141827357D01*
X78107969Y-141818685D01*
X78100000Y-141750000D01*
X78100000Y-140250000D01*
X78107969Y-140181315D01*
X78111798Y-140172642D01*
X78112901Y-140165074D01*
X78136028Y-140117766D01*
X78152501Y-140080459D01*
X78155955Y-140077004D01*
X78156408Y-140076079D01*
X78226079Y-140006408D01*
X78227004Y-140005955D01*
X78230459Y-140002501D01*
X78267761Y-139986030D01*
X78315073Y-139962901D01*
X78322642Y-139961798D01*
X78331315Y-139957969D01*
X78400000Y-139950000D01*
X79600000Y-139950000D01*
X79668685Y-139957969D01*
G37*
G36*
X81761256Y-139988754D02*
G01*
X81924257Y-140056271D01*
X82070954Y-140154291D01*
X82195709Y-140279046D01*
X82293729Y-140425743D01*
X82361246Y-140588744D01*
X82395666Y-140761785D01*
X82400000Y-140850000D01*
X82400000Y-141150000D01*
X82395666Y-141238215D01*
X82361246Y-141411256D01*
X82293729Y-141574257D01*
X82195709Y-141720954D01*
X82070954Y-141845709D01*
X81924257Y-141943729D01*
X81761256Y-142011246D01*
X81588215Y-142045666D01*
X81411785Y-142045666D01*
X81238744Y-142011246D01*
X81075743Y-141943729D01*
X80929046Y-141845709D01*
X80804291Y-141720954D01*
X80706271Y-141574257D01*
X80638754Y-141411256D01*
X80604334Y-141238215D01*
X80600000Y-141150000D01*
X80600000Y-140850000D01*
X80604334Y-140761785D01*
X80638754Y-140588744D01*
X80706271Y-140425743D01*
X80804291Y-140279046D01*
X80929046Y-140154291D01*
X81075743Y-140056271D01*
X81238744Y-139988754D01*
X81411785Y-139954334D01*
X81588215Y-139954334D01*
X81761256Y-139988754D01*
G37*
G36*
X56568685Y-140207969D02*
G01*
X56577358Y-140211798D01*
X56584925Y-140212901D01*
X56632223Y-140236023D01*
X56669541Y-140252501D01*
X56672996Y-140255956D01*
X56673920Y-140256408D01*
X56743591Y-140326079D01*
X56744042Y-140327002D01*
X56747499Y-140330459D01*
X56763978Y-140367782D01*
X56787098Y-140415073D01*
X56788200Y-140422639D01*
X56792031Y-140431315D01*
X56800000Y-140500000D01*
X56800000Y-141500000D01*
X56792031Y-141568685D01*
X56788199Y-141577361D01*
X56787098Y-141584925D01*
X56763985Y-141632202D01*
X56747499Y-141669541D01*
X56744041Y-141672998D01*
X56743591Y-141673920D01*
X56673920Y-141743591D01*
X56672998Y-141744041D01*
X56669541Y-141747499D01*
X56632207Y-141763983D01*
X56584926Y-141787098D01*
X56577361Y-141788200D01*
X56568685Y-141792031D01*
X56500000Y-141800000D01*
X55500000Y-141800000D01*
X55431315Y-141792031D01*
X55422638Y-141788200D01*
X55415074Y-141787098D01*
X55367787Y-141763981D01*
X55330459Y-141747499D01*
X55327002Y-141744042D01*
X55326079Y-141743591D01*
X55256408Y-141673920D01*
X55255956Y-141672996D01*
X55252501Y-141669541D01*
X55236025Y-141632228D01*
X55212901Y-141584926D01*
X55211798Y-141577357D01*
X55207969Y-141568685D01*
X55200000Y-141500000D01*
X55200000Y-140500000D01*
X55207969Y-140431315D01*
X55211798Y-140422642D01*
X55212901Y-140415074D01*
X55236028Y-140367766D01*
X55252501Y-140330459D01*
X55255955Y-140327004D01*
X55256408Y-140326079D01*
X55326079Y-140256408D01*
X55327004Y-140255955D01*
X55330459Y-140252501D01*
X55367761Y-140236030D01*
X55415073Y-140212901D01*
X55422642Y-140211798D01*
X55431315Y-140207969D01*
X55500000Y-140200000D01*
X56500000Y-140200000D01*
X56568685Y-140207969D01*
G37*
G36*
X56232228Y-137234448D02*
G01*
X56377117Y-137294463D01*
X56507515Y-137381592D01*
X56618408Y-137492485D01*
X56705537Y-137622883D01*
X56765552Y-137767772D01*
X56796148Y-137921586D01*
X56796148Y-138078414D01*
X56765552Y-138232228D01*
X56705537Y-138377117D01*
X56618408Y-138507515D01*
X56507515Y-138618408D01*
X56377117Y-138705537D01*
X56232228Y-138765552D01*
X56078414Y-138796148D01*
X55921586Y-138796148D01*
X55767772Y-138765552D01*
X55622883Y-138705537D01*
X55492485Y-138618408D01*
X55381592Y-138507515D01*
X55294463Y-138377117D01*
X55234448Y-138232228D01*
X55203852Y-138078414D01*
X55203852Y-137921586D01*
X55234448Y-137767772D01*
X55294463Y-137622883D01*
X55381592Y-137492485D01*
X55492485Y-137381592D01*
X55622883Y-137294463D01*
X55767772Y-137234448D01*
X55921586Y-137203852D01*
X56078414Y-137203852D01*
X56232228Y-137234448D01*
G37*
G36*
X168670168Y-133541445D02*
G01*
X168894025Y-133614181D01*
X169103748Y-133721040D01*
X169294172Y-133859391D01*
X169460609Y-134025828D01*
X169598960Y-134216252D01*
X169705819Y-134425975D01*
X169778555Y-134649832D01*
X169815376Y-134882311D01*
X169815376Y-135117689D01*
X169778555Y-135350168D01*
X169705819Y-135574025D01*
X169598960Y-135783748D01*
X169460609Y-135974172D01*
X169294172Y-136140609D01*
X169103748Y-136278960D01*
X168894025Y-136385819D01*
X168670168Y-136458555D01*
X168437689Y-136495376D01*
X168202311Y-136495376D01*
X167969832Y-136458555D01*
X167745975Y-136385819D01*
X167536252Y-136278960D01*
X167345828Y-136140609D01*
X167179391Y-135974172D01*
X167041040Y-135783748D01*
X166934181Y-135574025D01*
X166861445Y-135350168D01*
X166824624Y-135117689D01*
X166824624Y-134882311D01*
X166861445Y-134649832D01*
X166934181Y-134425975D01*
X167041040Y-134216252D01*
X167179391Y-134025828D01*
X167345828Y-133859391D01*
X167536252Y-133721040D01*
X167745975Y-133614181D01*
X167969832Y-133541445D01*
X168202311Y-133504624D01*
X168437689Y-133504624D01*
X168670168Y-133541445D01*
G37*
G36*
X164568685Y-134207969D02*
G01*
X164577358Y-134211798D01*
X164584925Y-134212901D01*
X164632223Y-134236023D01*
X164669541Y-134252501D01*
X164672996Y-134255956D01*
X164673920Y-134256408D01*
X164743591Y-134326079D01*
X164744042Y-134327002D01*
X164747499Y-134330459D01*
X164763978Y-134367782D01*
X164787098Y-134415073D01*
X164788200Y-134422639D01*
X164792031Y-134431315D01*
X164800000Y-134500000D01*
X164800000Y-135500000D01*
X164792031Y-135568685D01*
X164788199Y-135577361D01*
X164787098Y-135584925D01*
X164763985Y-135632202D01*
X164747499Y-135669541D01*
X164744041Y-135672998D01*
X164743591Y-135673920D01*
X164673920Y-135743591D01*
X164672998Y-135744041D01*
X164669541Y-135747499D01*
X164632207Y-135763983D01*
X164584926Y-135787098D01*
X164577361Y-135788200D01*
X164568685Y-135792031D01*
X164500000Y-135800000D01*
X163500000Y-135800000D01*
X163431315Y-135792031D01*
X163422638Y-135788200D01*
X163415074Y-135787098D01*
X163367787Y-135763981D01*
X163330459Y-135747499D01*
X163327002Y-135744042D01*
X163326079Y-135743591D01*
X163256408Y-135673920D01*
X163255956Y-135672996D01*
X163252501Y-135669541D01*
X163236025Y-135632228D01*
X163212901Y-135584926D01*
X163211798Y-135577357D01*
X163207969Y-135568685D01*
X163200000Y-135500000D01*
X163200000Y-134500000D01*
X163207969Y-134431315D01*
X163211798Y-134422642D01*
X163212901Y-134415074D01*
X163236028Y-134367766D01*
X163252501Y-134330459D01*
X163255955Y-134327004D01*
X163256408Y-134326079D01*
X163326079Y-134256408D01*
X163327004Y-134255955D01*
X163330459Y-134252501D01*
X163367761Y-134236030D01*
X163415073Y-134212901D01*
X163422642Y-134211798D01*
X163431315Y-134207969D01*
X163500000Y-134200000D01*
X164500000Y-134200000D01*
X164568685Y-134207969D01*
G37*
G36*
X161232228Y-134234448D02*
G01*
X161377117Y-134294463D01*
X161507515Y-134381592D01*
X161618408Y-134492485D01*
X161705537Y-134622883D01*
X161765552Y-134767772D01*
X161796148Y-134921586D01*
X161796148Y-135078414D01*
X161765552Y-135232228D01*
X161705537Y-135377117D01*
X161618408Y-135507515D01*
X161507515Y-135618408D01*
X161377117Y-135705537D01*
X161232228Y-135765552D01*
X161078414Y-135796148D01*
X160921586Y-135796148D01*
X160767772Y-135765552D01*
X160622883Y-135705537D01*
X160492485Y-135618408D01*
X160381592Y-135507515D01*
X160294463Y-135377117D01*
X160234448Y-135232228D01*
X160203852Y-135078414D01*
X160203852Y-134921586D01*
X160234448Y-134767772D01*
X160294463Y-134622883D01*
X160381592Y-134492485D01*
X160492485Y-134381592D01*
X160622883Y-134294463D01*
X160767772Y-134234448D01*
X160921586Y-134203852D01*
X161078414Y-134203852D01*
X161232228Y-134234448D01*
G37*
G36*
X124092885Y-129455056D02*
G01*
X124102918Y-129455056D01*
X124142117Y-129462853D01*
X124245078Y-129479160D01*
X124278200Y-129489922D01*
X124304799Y-129495213D01*
X124342335Y-129510760D01*
X124401762Y-129530070D01*
X124457433Y-129558435D01*
X124494967Y-129573983D01*
X124517517Y-129589050D01*
X124548539Y-129604857D01*
X124632866Y-129666124D01*
X124666113Y-129688339D01*
X124673208Y-129695434D01*
X124681817Y-129701689D01*
X124798310Y-129818182D01*
X124804564Y-129826790D01*
X124811661Y-129833887D01*
X124833878Y-129867138D01*
X124895142Y-129951460D01*
X124910947Y-129982479D01*
X124926017Y-130005033D01*
X124941566Y-130042572D01*
X124969929Y-130098237D01*
X124989235Y-130157657D01*
X125004787Y-130195201D01*
X125010078Y-130221805D01*
X125020839Y-130254921D01*
X125037145Y-130357876D01*
X125044944Y-130397082D01*
X125044944Y-130407114D01*
X125046609Y-130417627D01*
X125046609Y-130582372D01*
X125044944Y-130592884D01*
X125044944Y-130602918D01*
X125037144Y-130642126D01*
X125020839Y-130745078D01*
X125010079Y-130778192D01*
X125004787Y-130804799D01*
X124989234Y-130842346D01*
X124969929Y-130901762D01*
X124941568Y-130957422D01*
X124926017Y-130994967D01*
X124910945Y-131017523D01*
X124895142Y-131048539D01*
X124833887Y-131132849D01*
X124811661Y-131166113D01*
X124804561Y-131173212D01*
X124798310Y-131181817D01*
X124681817Y-131298310D01*
X124673212Y-131304561D01*
X124666113Y-131311661D01*
X124632849Y-131333887D01*
X124548539Y-131395142D01*
X124517523Y-131410945D01*
X124494967Y-131426017D01*
X124457422Y-131441568D01*
X124401762Y-131469929D01*
X124342346Y-131489234D01*
X124304799Y-131504787D01*
X124278192Y-131510079D01*
X124245078Y-131520839D01*
X124142126Y-131537144D01*
X124102918Y-131544944D01*
X124092884Y-131544944D01*
X124082372Y-131546609D01*
X123917628Y-131546609D01*
X123907115Y-131544944D01*
X123897082Y-131544944D01*
X123857874Y-131537145D01*
X123754921Y-131520839D01*
X123721805Y-131510078D01*
X123695201Y-131504787D01*
X123657657Y-131489235D01*
X123598237Y-131469929D01*
X123542572Y-131441566D01*
X123505033Y-131426017D01*
X123482479Y-131410947D01*
X123451460Y-131395142D01*
X123367138Y-131333878D01*
X123333887Y-131311661D01*
X123326790Y-131304564D01*
X123318182Y-131298310D01*
X123201689Y-131181817D01*
X123195434Y-131173208D01*
X123188339Y-131166113D01*
X123166124Y-131132866D01*
X123104857Y-131048539D01*
X123089050Y-131017517D01*
X123073983Y-130994967D01*
X123058435Y-130957433D01*
X123030070Y-130901762D01*
X123010760Y-130842335D01*
X122995213Y-130804799D01*
X122989922Y-130778200D01*
X122979160Y-130745078D01*
X122962853Y-130642117D01*
X122955056Y-130602918D01*
X122955056Y-130592884D01*
X122953391Y-130582372D01*
X122953391Y-130417627D01*
X122955056Y-130407114D01*
X122955056Y-130397082D01*
X122962852Y-130357886D01*
X122979160Y-130254921D01*
X122989922Y-130221797D01*
X122995213Y-130195201D01*
X123010759Y-130157668D01*
X123030070Y-130098237D01*
X123058438Y-130042561D01*
X123073983Y-130005033D01*
X123089048Y-129982486D01*
X123104857Y-129951460D01*
X123166132Y-129867121D01*
X123188339Y-129833887D01*
X123195432Y-129826793D01*
X123201689Y-129818182D01*
X123318182Y-129701689D01*
X123326793Y-129695432D01*
X123333887Y-129688339D01*
X123367121Y-129666132D01*
X123451460Y-129604857D01*
X123482486Y-129589048D01*
X123505033Y-129573983D01*
X123542561Y-129558438D01*
X123598237Y-129530070D01*
X123657668Y-129510759D01*
X123695201Y-129495213D01*
X123721797Y-129489922D01*
X123754921Y-129479160D01*
X123857883Y-129462853D01*
X123897082Y-129455056D01*
X123907115Y-129455056D01*
X123917628Y-129453391D01*
X124082372Y-129453391D01*
X124092885Y-129455056D01*
G37*
G36*
X130592885Y-129455056D02*
G01*
X130602918Y-129455056D01*
X130642117Y-129462853D01*
X130745078Y-129479160D01*
X130778200Y-129489922D01*
X130804799Y-129495213D01*
X130842335Y-129510760D01*
X130901762Y-129530070D01*
X130957433Y-129558435D01*
X130994967Y-129573983D01*
X131017517Y-129589050D01*
X131048539Y-129604857D01*
X131132866Y-129666124D01*
X131166113Y-129688339D01*
X131173208Y-129695434D01*
X131181817Y-129701689D01*
X131298310Y-129818182D01*
X131304564Y-129826790D01*
X131311661Y-129833887D01*
X131333878Y-129867138D01*
X131395142Y-129951460D01*
X131410947Y-129982479D01*
X131426017Y-130005033D01*
X131441566Y-130042572D01*
X131469929Y-130098237D01*
X131489235Y-130157657D01*
X131504787Y-130195201D01*
X131510078Y-130221805D01*
X131520839Y-130254921D01*
X131537145Y-130357876D01*
X131544944Y-130397082D01*
X131544944Y-130407114D01*
X131546609Y-130417627D01*
X131546609Y-130582372D01*
X131544944Y-130592884D01*
X131544944Y-130602918D01*
X131537144Y-130642126D01*
X131520839Y-130745078D01*
X131510079Y-130778192D01*
X131504787Y-130804799D01*
X131489234Y-130842346D01*
X131469929Y-130901762D01*
X131441568Y-130957422D01*
X131426017Y-130994967D01*
X131410945Y-131017523D01*
X131395142Y-131048539D01*
X131333887Y-131132849D01*
X131311661Y-131166113D01*
X131304561Y-131173212D01*
X131298310Y-131181817D01*
X131181817Y-131298310D01*
X131173212Y-131304561D01*
X131166113Y-131311661D01*
X131132849Y-131333887D01*
X131048539Y-131395142D01*
X131017523Y-131410945D01*
X130994967Y-131426017D01*
X130957422Y-131441568D01*
X130901762Y-131469929D01*
X130842346Y-131489234D01*
X130804799Y-131504787D01*
X130778192Y-131510079D01*
X130745078Y-131520839D01*
X130642126Y-131537144D01*
X130602918Y-131544944D01*
X130592884Y-131544944D01*
X130582372Y-131546609D01*
X130417628Y-131546609D01*
X130407115Y-131544944D01*
X130397082Y-131544944D01*
X130357874Y-131537145D01*
X130254921Y-131520839D01*
X130221805Y-131510078D01*
X130195201Y-131504787D01*
X130157657Y-131489235D01*
X130098237Y-131469929D01*
X130042572Y-131441566D01*
X130005033Y-131426017D01*
X129982479Y-131410947D01*
X129951460Y-131395142D01*
X129867138Y-131333878D01*
X129833887Y-131311661D01*
X129826790Y-131304564D01*
X129818182Y-131298310D01*
X129701689Y-131181817D01*
X129695434Y-131173208D01*
X129688339Y-131166113D01*
X129666124Y-131132866D01*
X129604857Y-131048539D01*
X129589050Y-131017517D01*
X129573983Y-130994967D01*
X129558435Y-130957433D01*
X129530070Y-130901762D01*
X129510760Y-130842335D01*
X129495213Y-130804799D01*
X129489922Y-130778200D01*
X129479160Y-130745078D01*
X129462853Y-130642117D01*
X129455056Y-130602918D01*
X129455056Y-130592884D01*
X129453391Y-130582372D01*
X129453391Y-130417627D01*
X129455056Y-130407114D01*
X129455056Y-130397082D01*
X129462852Y-130357886D01*
X129479160Y-130254921D01*
X129489922Y-130221797D01*
X129495213Y-130195201D01*
X129510759Y-130157668D01*
X129530070Y-130098237D01*
X129558438Y-130042561D01*
X129573983Y-130005033D01*
X129589048Y-129982486D01*
X129604857Y-129951460D01*
X129666132Y-129867121D01*
X129688339Y-129833887D01*
X129695432Y-129826793D01*
X129701689Y-129818182D01*
X129818182Y-129701689D01*
X129826793Y-129695432D01*
X129833887Y-129688339D01*
X129867121Y-129666132D01*
X129951460Y-129604857D01*
X129982486Y-129589048D01*
X130005033Y-129573983D01*
X130042561Y-129558438D01*
X130098237Y-129530070D01*
X130157668Y-129510759D01*
X130195201Y-129495213D01*
X130221797Y-129489922D01*
X130254921Y-129479160D01*
X130357883Y-129462853D01*
X130397082Y-129455056D01*
X130407115Y-129455056D01*
X130417628Y-129453391D01*
X130582372Y-129453391D01*
X130592885Y-129455056D01*
G37*
G36*
X124092885Y-124955056D02*
G01*
X124102918Y-124955056D01*
X124142117Y-124962853D01*
X124245078Y-124979160D01*
X124278200Y-124989922D01*
X124304799Y-124995213D01*
X124342335Y-125010760D01*
X124401762Y-125030070D01*
X124457433Y-125058435D01*
X124494967Y-125073983D01*
X124517517Y-125089050D01*
X124548539Y-125104857D01*
X124632866Y-125166124D01*
X124666113Y-125188339D01*
X124673208Y-125195434D01*
X124681817Y-125201689D01*
X124798310Y-125318182D01*
X124804564Y-125326790D01*
X124811661Y-125333887D01*
X124833878Y-125367138D01*
X124895142Y-125451460D01*
X124910947Y-125482479D01*
X124926017Y-125505033D01*
X124941566Y-125542572D01*
X124969929Y-125598237D01*
X124989235Y-125657657D01*
X125004787Y-125695201D01*
X125010078Y-125721805D01*
X125020839Y-125754921D01*
X125037145Y-125857876D01*
X125044944Y-125897082D01*
X125044944Y-125907114D01*
X125046609Y-125917627D01*
X125046609Y-126082372D01*
X125044944Y-126092884D01*
X125044944Y-126102918D01*
X125037144Y-126142126D01*
X125020839Y-126245078D01*
X125010079Y-126278192D01*
X125004787Y-126304799D01*
X124989234Y-126342346D01*
X124969929Y-126401762D01*
X124941568Y-126457422D01*
X124926017Y-126494967D01*
X124910945Y-126517523D01*
X124895142Y-126548539D01*
X124833887Y-126632849D01*
X124811661Y-126666113D01*
X124804561Y-126673212D01*
X124798310Y-126681817D01*
X124681817Y-126798310D01*
X124673212Y-126804561D01*
X124666113Y-126811661D01*
X124632849Y-126833887D01*
X124548539Y-126895142D01*
X124517523Y-126910945D01*
X124494967Y-126926017D01*
X124457422Y-126941568D01*
X124401762Y-126969929D01*
X124342346Y-126989234D01*
X124304799Y-127004787D01*
X124278192Y-127010079D01*
X124245078Y-127020839D01*
X124142126Y-127037144D01*
X124102918Y-127044944D01*
X124092884Y-127044944D01*
X124082372Y-127046609D01*
X123917628Y-127046609D01*
X123907115Y-127044944D01*
X123897082Y-127044944D01*
X123857874Y-127037145D01*
X123754921Y-127020839D01*
X123721805Y-127010078D01*
X123695201Y-127004787D01*
X123657657Y-126989235D01*
X123598237Y-126969929D01*
X123542572Y-126941566D01*
X123505033Y-126926017D01*
X123482479Y-126910947D01*
X123451460Y-126895142D01*
X123367138Y-126833878D01*
X123333887Y-126811661D01*
X123326790Y-126804564D01*
X123318182Y-126798310D01*
X123201689Y-126681817D01*
X123195434Y-126673208D01*
X123188339Y-126666113D01*
X123166124Y-126632866D01*
X123104857Y-126548539D01*
X123089050Y-126517517D01*
X123073983Y-126494967D01*
X123058435Y-126457433D01*
X123030070Y-126401762D01*
X123010760Y-126342335D01*
X122995213Y-126304799D01*
X122989922Y-126278200D01*
X122979160Y-126245078D01*
X122962853Y-126142117D01*
X122955056Y-126102918D01*
X122955056Y-126092884D01*
X122953391Y-126082372D01*
X122953391Y-125917627D01*
X122955056Y-125907114D01*
X122955056Y-125897082D01*
X122962852Y-125857886D01*
X122979160Y-125754921D01*
X122989922Y-125721797D01*
X122995213Y-125695201D01*
X123010759Y-125657668D01*
X123030070Y-125598237D01*
X123058438Y-125542561D01*
X123073983Y-125505033D01*
X123089048Y-125482486D01*
X123104857Y-125451460D01*
X123166132Y-125367121D01*
X123188339Y-125333887D01*
X123195432Y-125326793D01*
X123201689Y-125318182D01*
X123318182Y-125201689D01*
X123326793Y-125195432D01*
X123333887Y-125188339D01*
X123367121Y-125166132D01*
X123451460Y-125104857D01*
X123482486Y-125089048D01*
X123505033Y-125073983D01*
X123542561Y-125058438D01*
X123598237Y-125030070D01*
X123657668Y-125010759D01*
X123695201Y-124995213D01*
X123721797Y-124989922D01*
X123754921Y-124979160D01*
X123857883Y-124962853D01*
X123897082Y-124955056D01*
X123907115Y-124955056D01*
X123917628Y-124953391D01*
X124082372Y-124953391D01*
X124092885Y-124955056D01*
G37*
G36*
X130592885Y-124955056D02*
G01*
X130602918Y-124955056D01*
X130642117Y-124962853D01*
X130745078Y-124979160D01*
X130778200Y-124989922D01*
X130804799Y-124995213D01*
X130842335Y-125010760D01*
X130901762Y-125030070D01*
X130957433Y-125058435D01*
X130994967Y-125073983D01*
X131017517Y-125089050D01*
X131048539Y-125104857D01*
X131132866Y-125166124D01*
X131166113Y-125188339D01*
X131173208Y-125195434D01*
X131181817Y-125201689D01*
X131298310Y-125318182D01*
X131304564Y-125326790D01*
X131311661Y-125333887D01*
X131333878Y-125367138D01*
X131395142Y-125451460D01*
X131410947Y-125482479D01*
X131426017Y-125505033D01*
X131441566Y-125542572D01*
X131469929Y-125598237D01*
X131489235Y-125657657D01*
X131504787Y-125695201D01*
X131510078Y-125721805D01*
X131520839Y-125754921D01*
X131537145Y-125857876D01*
X131544944Y-125897082D01*
X131544944Y-125907114D01*
X131546609Y-125917627D01*
X131546609Y-126082372D01*
X131544944Y-126092884D01*
X131544944Y-126102918D01*
X131537144Y-126142126D01*
X131520839Y-126245078D01*
X131510079Y-126278192D01*
X131504787Y-126304799D01*
X131489234Y-126342346D01*
X131469929Y-126401762D01*
X131441568Y-126457422D01*
X131426017Y-126494967D01*
X131410945Y-126517523D01*
X131395142Y-126548539D01*
X131333887Y-126632849D01*
X131311661Y-126666113D01*
X131304561Y-126673212D01*
X131298310Y-126681817D01*
X131181817Y-126798310D01*
X131173212Y-126804561D01*
X131166113Y-126811661D01*
X131132849Y-126833887D01*
X131048539Y-126895142D01*
X131017523Y-126910945D01*
X130994967Y-126926017D01*
X130957422Y-126941568D01*
X130901762Y-126969929D01*
X130842346Y-126989234D01*
X130804799Y-127004787D01*
X130778192Y-127010079D01*
X130745078Y-127020839D01*
X130642126Y-127037144D01*
X130602918Y-127044944D01*
X130592884Y-127044944D01*
X130582372Y-127046609D01*
X130417628Y-127046609D01*
X130407115Y-127044944D01*
X130397082Y-127044944D01*
X130357874Y-127037145D01*
X130254921Y-127020839D01*
X130221805Y-127010078D01*
X130195201Y-127004787D01*
X130157657Y-126989235D01*
X130098237Y-126969929D01*
X130042572Y-126941566D01*
X130005033Y-126926017D01*
X129982479Y-126910947D01*
X129951460Y-126895142D01*
X129867138Y-126833878D01*
X129833887Y-126811661D01*
X129826790Y-126804564D01*
X129818182Y-126798310D01*
X129701689Y-126681817D01*
X129695434Y-126673208D01*
X129688339Y-126666113D01*
X129666124Y-126632866D01*
X129604857Y-126548539D01*
X129589050Y-126517517D01*
X129573983Y-126494967D01*
X129558435Y-126457433D01*
X129530070Y-126401762D01*
X129510760Y-126342335D01*
X129495213Y-126304799D01*
X129489922Y-126278200D01*
X129479160Y-126245078D01*
X129462853Y-126142117D01*
X129455056Y-126102918D01*
X129455056Y-126092884D01*
X129453391Y-126082372D01*
X129453391Y-125917627D01*
X129455056Y-125907114D01*
X129455056Y-125897082D01*
X129462852Y-125857886D01*
X129479160Y-125754921D01*
X129489922Y-125721797D01*
X129495213Y-125695201D01*
X129510759Y-125657668D01*
X129530070Y-125598237D01*
X129558438Y-125542561D01*
X129573983Y-125505033D01*
X129589048Y-125482486D01*
X129604857Y-125451460D01*
X129666132Y-125367121D01*
X129688339Y-125333887D01*
X129695432Y-125326793D01*
X129701689Y-125318182D01*
X129818182Y-125201689D01*
X129826793Y-125195432D01*
X129833887Y-125188339D01*
X129867121Y-125166132D01*
X129951460Y-125104857D01*
X129982486Y-125089048D01*
X130005033Y-125073983D01*
X130042561Y-125058438D01*
X130098237Y-125030070D01*
X130157668Y-125010759D01*
X130195201Y-124995213D01*
X130221797Y-124989922D01*
X130254921Y-124979160D01*
X130357883Y-124962853D01*
X130397082Y-124955056D01*
X130407115Y-124955056D01*
X130417628Y-124953391D01*
X130582372Y-124953391D01*
X130592885Y-124955056D01*
G37*
G36*
X124092885Y-117455056D02*
G01*
X124102918Y-117455056D01*
X124142117Y-117462853D01*
X124245078Y-117479160D01*
X124278200Y-117489922D01*
X124304799Y-117495213D01*
X124342335Y-117510760D01*
X124401762Y-117530070D01*
X124457433Y-117558435D01*
X124494967Y-117573983D01*
X124517517Y-117589050D01*
X124548539Y-117604857D01*
X124632866Y-117666124D01*
X124666113Y-117688339D01*
X124673208Y-117695434D01*
X124681817Y-117701689D01*
X124798310Y-117818182D01*
X124804564Y-117826790D01*
X124811661Y-117833887D01*
X124833878Y-117867138D01*
X124895142Y-117951460D01*
X124910947Y-117982479D01*
X124926017Y-118005033D01*
X124941566Y-118042572D01*
X124969929Y-118098237D01*
X124989235Y-118157657D01*
X125004787Y-118195201D01*
X125010078Y-118221805D01*
X125020839Y-118254921D01*
X125037145Y-118357876D01*
X125044944Y-118397082D01*
X125044944Y-118407114D01*
X125046609Y-118417627D01*
X125046609Y-118582372D01*
X125044944Y-118592884D01*
X125044944Y-118602918D01*
X125037144Y-118642126D01*
X125020839Y-118745078D01*
X125010079Y-118778192D01*
X125004787Y-118804799D01*
X124989234Y-118842346D01*
X124969929Y-118901762D01*
X124941568Y-118957422D01*
X124926017Y-118994967D01*
X124910945Y-119017523D01*
X124895142Y-119048539D01*
X124833887Y-119132849D01*
X124811661Y-119166113D01*
X124804561Y-119173212D01*
X124798310Y-119181817D01*
X124681817Y-119298310D01*
X124673212Y-119304561D01*
X124666113Y-119311661D01*
X124632849Y-119333887D01*
X124548539Y-119395142D01*
X124517523Y-119410945D01*
X124494967Y-119426017D01*
X124457422Y-119441568D01*
X124401762Y-119469929D01*
X124342346Y-119489234D01*
X124304799Y-119504787D01*
X124278192Y-119510079D01*
X124245078Y-119520839D01*
X124142126Y-119537144D01*
X124102918Y-119544944D01*
X124092884Y-119544944D01*
X124082372Y-119546609D01*
X123917628Y-119546609D01*
X123907115Y-119544944D01*
X123897082Y-119544944D01*
X123857874Y-119537145D01*
X123754921Y-119520839D01*
X123721805Y-119510078D01*
X123695201Y-119504787D01*
X123657657Y-119489235D01*
X123598237Y-119469929D01*
X123542572Y-119441566D01*
X123505033Y-119426017D01*
X123482479Y-119410947D01*
X123451460Y-119395142D01*
X123367138Y-119333878D01*
X123333887Y-119311661D01*
X123326790Y-119304564D01*
X123318182Y-119298310D01*
X123201689Y-119181817D01*
X123195434Y-119173208D01*
X123188339Y-119166113D01*
X123166124Y-119132866D01*
X123104857Y-119048539D01*
X123089050Y-119017517D01*
X123073983Y-118994967D01*
X123058435Y-118957433D01*
X123030070Y-118901762D01*
X123010760Y-118842335D01*
X122995213Y-118804799D01*
X122989922Y-118778200D01*
X122979160Y-118745078D01*
X122962853Y-118642117D01*
X122955056Y-118602918D01*
X122955056Y-118592884D01*
X122953391Y-118582372D01*
X122953391Y-118417627D01*
X122955056Y-118407114D01*
X122955056Y-118397082D01*
X122962852Y-118357886D01*
X122979160Y-118254921D01*
X122989922Y-118221797D01*
X122995213Y-118195201D01*
X123010759Y-118157668D01*
X123030070Y-118098237D01*
X123058438Y-118042561D01*
X123073983Y-118005033D01*
X123089048Y-117982486D01*
X123104857Y-117951460D01*
X123166132Y-117867121D01*
X123188339Y-117833887D01*
X123195432Y-117826793D01*
X123201689Y-117818182D01*
X123318182Y-117701689D01*
X123326793Y-117695432D01*
X123333887Y-117688339D01*
X123367121Y-117666132D01*
X123451460Y-117604857D01*
X123482486Y-117589048D01*
X123505033Y-117573983D01*
X123542561Y-117558438D01*
X123598237Y-117530070D01*
X123657668Y-117510759D01*
X123695201Y-117495213D01*
X123721797Y-117489922D01*
X123754921Y-117479160D01*
X123857883Y-117462853D01*
X123897082Y-117455056D01*
X123907115Y-117455056D01*
X123917628Y-117453391D01*
X124082372Y-117453391D01*
X124092885Y-117455056D01*
G37*
G36*
X130592885Y-117455056D02*
G01*
X130602918Y-117455056D01*
X130642117Y-117462853D01*
X130745078Y-117479160D01*
X130778200Y-117489922D01*
X130804799Y-117495213D01*
X130842335Y-117510760D01*
X130901762Y-117530070D01*
X130957433Y-117558435D01*
X130994967Y-117573983D01*
X131017517Y-117589050D01*
X131048539Y-117604857D01*
X131132866Y-117666124D01*
X131166113Y-117688339D01*
X131173208Y-117695434D01*
X131181817Y-117701689D01*
X131298310Y-117818182D01*
X131304564Y-117826790D01*
X131311661Y-117833887D01*
X131333878Y-117867138D01*
X131395142Y-117951460D01*
X131410947Y-117982479D01*
X131426017Y-118005033D01*
X131441566Y-118042572D01*
X131469929Y-118098237D01*
X131489235Y-118157657D01*
X131504787Y-118195201D01*
X131510078Y-118221805D01*
X131520839Y-118254921D01*
X131537145Y-118357876D01*
X131544944Y-118397082D01*
X131544944Y-118407114D01*
X131546609Y-118417627D01*
X131546609Y-118582372D01*
X131544944Y-118592884D01*
X131544944Y-118602918D01*
X131537144Y-118642126D01*
X131520839Y-118745078D01*
X131510079Y-118778192D01*
X131504787Y-118804799D01*
X131489234Y-118842346D01*
X131469929Y-118901762D01*
X131441568Y-118957422D01*
X131426017Y-118994967D01*
X131410945Y-119017523D01*
X131395142Y-119048539D01*
X131333887Y-119132849D01*
X131311661Y-119166113D01*
X131304561Y-119173212D01*
X131298310Y-119181817D01*
X131181817Y-119298310D01*
X131173212Y-119304561D01*
X131166113Y-119311661D01*
X131132849Y-119333887D01*
X131048539Y-119395142D01*
X131017523Y-119410945D01*
X130994967Y-119426017D01*
X130957422Y-119441568D01*
X130901762Y-119469929D01*
X130842346Y-119489234D01*
X130804799Y-119504787D01*
X130778192Y-119510079D01*
X130745078Y-119520839D01*
X130642126Y-119537144D01*
X130602918Y-119544944D01*
X130592884Y-119544944D01*
X130582372Y-119546609D01*
X130417628Y-119546609D01*
X130407115Y-119544944D01*
X130397082Y-119544944D01*
X130357874Y-119537145D01*
X130254921Y-119520839D01*
X130221805Y-119510078D01*
X130195201Y-119504787D01*
X130157657Y-119489235D01*
X130098237Y-119469929D01*
X130042572Y-119441566D01*
X130005033Y-119426017D01*
X129982479Y-119410947D01*
X129951460Y-119395142D01*
X129867138Y-119333878D01*
X129833887Y-119311661D01*
X129826790Y-119304564D01*
X129818182Y-119298310D01*
X129701689Y-119181817D01*
X129695434Y-119173208D01*
X129688339Y-119166113D01*
X129666124Y-119132866D01*
X129604857Y-119048539D01*
X129589050Y-119017517D01*
X129573983Y-118994967D01*
X129558435Y-118957433D01*
X129530070Y-118901762D01*
X129510760Y-118842335D01*
X129495213Y-118804799D01*
X129489922Y-118778200D01*
X129479160Y-118745078D01*
X129462853Y-118642117D01*
X129455056Y-118602918D01*
X129455056Y-118592884D01*
X129453391Y-118582372D01*
X129453391Y-118417627D01*
X129455056Y-118407114D01*
X129455056Y-118397082D01*
X129462852Y-118357886D01*
X129479160Y-118254921D01*
X129489922Y-118221797D01*
X129495213Y-118195201D01*
X129510759Y-118157668D01*
X129530070Y-118098237D01*
X129558438Y-118042561D01*
X129573983Y-118005033D01*
X129589048Y-117982486D01*
X129604857Y-117951460D01*
X129666132Y-117867121D01*
X129688339Y-117833887D01*
X129695432Y-117826793D01*
X129701689Y-117818182D01*
X129818182Y-117701689D01*
X129826793Y-117695432D01*
X129833887Y-117688339D01*
X129867121Y-117666132D01*
X129951460Y-117604857D01*
X129982486Y-117589048D01*
X130005033Y-117573983D01*
X130042561Y-117558438D01*
X130098237Y-117530070D01*
X130157668Y-117510759D01*
X130195201Y-117495213D01*
X130221797Y-117489922D01*
X130254921Y-117479160D01*
X130357883Y-117462853D01*
X130397082Y-117455056D01*
X130407115Y-117455056D01*
X130417628Y-117453391D01*
X130582372Y-117453391D01*
X130592885Y-117455056D01*
G37*
G36*
X168670168Y-115541445D02*
G01*
X168894025Y-115614181D01*
X169103748Y-115721040D01*
X169294172Y-115859391D01*
X169460609Y-116025828D01*
X169598960Y-116216252D01*
X169705819Y-116425975D01*
X169778555Y-116649832D01*
X169815376Y-116882311D01*
X169815376Y-117117689D01*
X169778555Y-117350168D01*
X169705819Y-117574025D01*
X169598960Y-117783748D01*
X169460609Y-117974172D01*
X169294172Y-118140609D01*
X169103748Y-118278960D01*
X168894025Y-118385819D01*
X168670168Y-118458555D01*
X168437689Y-118495376D01*
X168202311Y-118495376D01*
X167969832Y-118458555D01*
X167745975Y-118385819D01*
X167536252Y-118278960D01*
X167345828Y-118140609D01*
X167179391Y-117974172D01*
X167041040Y-117783748D01*
X166934181Y-117574025D01*
X166861445Y-117350168D01*
X166824624Y-117117689D01*
X166824624Y-116882311D01*
X166861445Y-116649832D01*
X166934181Y-116425975D01*
X167041040Y-116216252D01*
X167179391Y-116025828D01*
X167345828Y-115859391D01*
X167536252Y-115721040D01*
X167745975Y-115614181D01*
X167969832Y-115541445D01*
X168202311Y-115504624D01*
X168437689Y-115504624D01*
X168670168Y-115541445D01*
G37*
G36*
X164568685Y-116207969D02*
G01*
X164577358Y-116211798D01*
X164584925Y-116212901D01*
X164632223Y-116236023D01*
X164669541Y-116252501D01*
X164672996Y-116255956D01*
X164673920Y-116256408D01*
X164743591Y-116326079D01*
X164744042Y-116327002D01*
X164747499Y-116330459D01*
X164763978Y-116367782D01*
X164787098Y-116415073D01*
X164788200Y-116422639D01*
X164792031Y-116431315D01*
X164800000Y-116500000D01*
X164800000Y-117500000D01*
X164792031Y-117568685D01*
X164788199Y-117577361D01*
X164787098Y-117584925D01*
X164763985Y-117632202D01*
X164747499Y-117669541D01*
X164744041Y-117672998D01*
X164743591Y-117673920D01*
X164673920Y-117743591D01*
X164672998Y-117744041D01*
X164669541Y-117747499D01*
X164632207Y-117763983D01*
X164584926Y-117787098D01*
X164577361Y-117788200D01*
X164568685Y-117792031D01*
X164500000Y-117800000D01*
X163500000Y-117800000D01*
X163431315Y-117792031D01*
X163422638Y-117788200D01*
X163415074Y-117787098D01*
X163367787Y-117763981D01*
X163330459Y-117747499D01*
X163327002Y-117744042D01*
X163326079Y-117743591D01*
X163256408Y-117673920D01*
X163255956Y-117672996D01*
X163252501Y-117669541D01*
X163236025Y-117632228D01*
X163212901Y-117584926D01*
X163211798Y-117577357D01*
X163207969Y-117568685D01*
X163200000Y-117500000D01*
X163200000Y-116500000D01*
X163207969Y-116431315D01*
X163211798Y-116422642D01*
X163212901Y-116415074D01*
X163236028Y-116367766D01*
X163252501Y-116330459D01*
X163255955Y-116327004D01*
X163256408Y-116326079D01*
X163326079Y-116256408D01*
X163327004Y-116255955D01*
X163330459Y-116252501D01*
X163367761Y-116236030D01*
X163415073Y-116212901D01*
X163422642Y-116211798D01*
X163431315Y-116207969D01*
X163500000Y-116200000D01*
X164500000Y-116200000D01*
X164568685Y-116207969D01*
G37*
G36*
X161232228Y-116234448D02*
G01*
X161377117Y-116294463D01*
X161507515Y-116381592D01*
X161618408Y-116492485D01*
X161705537Y-116622883D01*
X161765552Y-116767772D01*
X161796148Y-116921586D01*
X161796148Y-117078414D01*
X161765552Y-117232228D01*
X161705537Y-117377117D01*
X161618408Y-117507515D01*
X161507515Y-117618408D01*
X161377117Y-117705537D01*
X161232228Y-117765552D01*
X161078414Y-117796148D01*
X160921586Y-117796148D01*
X160767772Y-117765552D01*
X160622883Y-117705537D01*
X160492485Y-117618408D01*
X160381592Y-117507515D01*
X160294463Y-117377117D01*
X160234448Y-117232228D01*
X160203852Y-117078414D01*
X160203852Y-116921586D01*
X160234448Y-116767772D01*
X160294463Y-116622883D01*
X160381592Y-116492485D01*
X160492485Y-116381592D01*
X160622883Y-116294463D01*
X160767772Y-116234448D01*
X160921586Y-116203852D01*
X161078414Y-116203852D01*
X161232228Y-116234448D01*
G37*
G36*
X124092885Y-112955056D02*
G01*
X124102918Y-112955056D01*
X124142117Y-112962853D01*
X124245078Y-112979160D01*
X124278200Y-112989922D01*
X124304799Y-112995213D01*
X124342335Y-113010760D01*
X124401762Y-113030070D01*
X124457433Y-113058435D01*
X124494967Y-113073983D01*
X124517517Y-113089050D01*
X124548539Y-113104857D01*
X124632866Y-113166124D01*
X124666113Y-113188339D01*
X124673208Y-113195434D01*
X124681817Y-113201689D01*
X124798310Y-113318182D01*
X124804564Y-113326790D01*
X124811661Y-113333887D01*
X124833878Y-113367138D01*
X124895142Y-113451460D01*
X124910947Y-113482479D01*
X124926017Y-113505033D01*
X124941566Y-113542572D01*
X124969929Y-113598237D01*
X124989235Y-113657657D01*
X125004787Y-113695201D01*
X125010078Y-113721805D01*
X125020839Y-113754921D01*
X125037145Y-113857876D01*
X125044944Y-113897082D01*
X125044944Y-113907114D01*
X125046609Y-113917627D01*
X125046609Y-114082372D01*
X125044944Y-114092884D01*
X125044944Y-114102918D01*
X125037144Y-114142126D01*
X125020839Y-114245078D01*
X125010079Y-114278192D01*
X125004787Y-114304799D01*
X124989234Y-114342346D01*
X124969929Y-114401762D01*
X124941568Y-114457422D01*
X124926017Y-114494967D01*
X124910945Y-114517523D01*
X124895142Y-114548539D01*
X124833887Y-114632849D01*
X124811661Y-114666113D01*
X124804561Y-114673212D01*
X124798310Y-114681817D01*
X124681817Y-114798310D01*
X124673212Y-114804561D01*
X124666113Y-114811661D01*
X124632849Y-114833887D01*
X124548539Y-114895142D01*
X124517523Y-114910945D01*
X124494967Y-114926017D01*
X124457422Y-114941568D01*
X124401762Y-114969929D01*
X124342346Y-114989234D01*
X124304799Y-115004787D01*
X124278192Y-115010079D01*
X124245078Y-115020839D01*
X124142126Y-115037144D01*
X124102918Y-115044944D01*
X124092884Y-115044944D01*
X124082372Y-115046609D01*
X123917628Y-115046609D01*
X123907115Y-115044944D01*
X123897082Y-115044944D01*
X123857874Y-115037145D01*
X123754921Y-115020839D01*
X123721805Y-115010078D01*
X123695201Y-115004787D01*
X123657657Y-114989235D01*
X123598237Y-114969929D01*
X123542572Y-114941566D01*
X123505033Y-114926017D01*
X123482479Y-114910947D01*
X123451460Y-114895142D01*
X123367138Y-114833878D01*
X123333887Y-114811661D01*
X123326790Y-114804564D01*
X123318182Y-114798310D01*
X123201689Y-114681817D01*
X123195434Y-114673208D01*
X123188339Y-114666113D01*
X123166124Y-114632866D01*
X123104857Y-114548539D01*
X123089050Y-114517517D01*
X123073983Y-114494967D01*
X123058435Y-114457433D01*
X123030070Y-114401762D01*
X123010760Y-114342335D01*
X122995213Y-114304799D01*
X122989922Y-114278200D01*
X122979160Y-114245078D01*
X122962853Y-114142117D01*
X122955056Y-114102918D01*
X122955056Y-114092884D01*
X122953391Y-114082372D01*
X122953391Y-113917627D01*
X122955056Y-113907114D01*
X122955056Y-113897082D01*
X122962852Y-113857886D01*
X122979160Y-113754921D01*
X122989922Y-113721797D01*
X122995213Y-113695201D01*
X123010759Y-113657668D01*
X123030070Y-113598237D01*
X123058438Y-113542561D01*
X123073983Y-113505033D01*
X123089048Y-113482486D01*
X123104857Y-113451460D01*
X123166132Y-113367121D01*
X123188339Y-113333887D01*
X123195432Y-113326793D01*
X123201689Y-113318182D01*
X123318182Y-113201689D01*
X123326793Y-113195432D01*
X123333887Y-113188339D01*
X123367121Y-113166132D01*
X123451460Y-113104857D01*
X123482486Y-113089048D01*
X123505033Y-113073983D01*
X123542561Y-113058438D01*
X123598237Y-113030070D01*
X123657668Y-113010759D01*
X123695201Y-112995213D01*
X123721797Y-112989922D01*
X123754921Y-112979160D01*
X123857883Y-112962853D01*
X123897082Y-112955056D01*
X123907115Y-112955056D01*
X123917628Y-112953391D01*
X124082372Y-112953391D01*
X124092885Y-112955056D01*
G37*
G36*
X130592885Y-112955056D02*
G01*
X130602918Y-112955056D01*
X130642117Y-112962853D01*
X130745078Y-112979160D01*
X130778200Y-112989922D01*
X130804799Y-112995213D01*
X130842335Y-113010760D01*
X130901762Y-113030070D01*
X130957433Y-113058435D01*
X130994967Y-113073983D01*
X131017517Y-113089050D01*
X131048539Y-113104857D01*
X131132866Y-113166124D01*
X131166113Y-113188339D01*
X131173208Y-113195434D01*
X131181817Y-113201689D01*
X131298310Y-113318182D01*
X131304564Y-113326790D01*
X131311661Y-113333887D01*
X131333878Y-113367138D01*
X131395142Y-113451460D01*
X131410947Y-113482479D01*
X131426017Y-113505033D01*
X131441566Y-113542572D01*
X131469929Y-113598237D01*
X131489235Y-113657657D01*
X131504787Y-113695201D01*
X131510078Y-113721805D01*
X131520839Y-113754921D01*
X131537145Y-113857876D01*
X131544944Y-113897082D01*
X131544944Y-113907114D01*
X131546609Y-113917627D01*
X131546609Y-114082372D01*
X131544944Y-114092884D01*
X131544944Y-114102918D01*
X131537144Y-114142126D01*
X131520839Y-114245078D01*
X131510079Y-114278192D01*
X131504787Y-114304799D01*
X131489234Y-114342346D01*
X131469929Y-114401762D01*
X131441568Y-114457422D01*
X131426017Y-114494967D01*
X131410945Y-114517523D01*
X131395142Y-114548539D01*
X131333887Y-114632849D01*
X131311661Y-114666113D01*
X131304561Y-114673212D01*
X131298310Y-114681817D01*
X131181817Y-114798310D01*
X131173212Y-114804561D01*
X131166113Y-114811661D01*
X131132849Y-114833887D01*
X131048539Y-114895142D01*
X131017523Y-114910945D01*
X130994967Y-114926017D01*
X130957422Y-114941568D01*
X130901762Y-114969929D01*
X130842346Y-114989234D01*
X130804799Y-115004787D01*
X130778192Y-115010079D01*
X130745078Y-115020839D01*
X130642126Y-115037144D01*
X130602918Y-115044944D01*
X130592884Y-115044944D01*
X130582372Y-115046609D01*
X130417628Y-115046609D01*
X130407115Y-115044944D01*
X130397082Y-115044944D01*
X130357874Y-115037145D01*
X130254921Y-115020839D01*
X130221805Y-115010078D01*
X130195201Y-115004787D01*
X130157657Y-114989235D01*
X130098237Y-114969929D01*
X130042572Y-114941566D01*
X130005033Y-114926017D01*
X129982479Y-114910947D01*
X129951460Y-114895142D01*
X129867138Y-114833878D01*
X129833887Y-114811661D01*
X129826790Y-114804564D01*
X129818182Y-114798310D01*
X129701689Y-114681817D01*
X129695434Y-114673208D01*
X129688339Y-114666113D01*
X129666124Y-114632866D01*
X129604857Y-114548539D01*
X129589050Y-114517517D01*
X129573983Y-114494967D01*
X129558435Y-114457433D01*
X129530070Y-114401762D01*
X129510760Y-114342335D01*
X129495213Y-114304799D01*
X129489922Y-114278200D01*
X129479160Y-114245078D01*
X129462853Y-114142117D01*
X129455056Y-114102918D01*
X129455056Y-114092884D01*
X129453391Y-114082372D01*
X129453391Y-113917627D01*
X129455056Y-113907114D01*
X129455056Y-113897082D01*
X129462852Y-113857886D01*
X129479160Y-113754921D01*
X129489922Y-113721797D01*
X129495213Y-113695201D01*
X129510759Y-113657668D01*
X129530070Y-113598237D01*
X129558438Y-113542561D01*
X129573983Y-113505033D01*
X129589048Y-113482486D01*
X129604857Y-113451460D01*
X129666132Y-113367121D01*
X129688339Y-113333887D01*
X129695432Y-113326793D01*
X129701689Y-113318182D01*
X129818182Y-113201689D01*
X129826793Y-113195432D01*
X129833887Y-113188339D01*
X129867121Y-113166132D01*
X129951460Y-113104857D01*
X129982486Y-113089048D01*
X130005033Y-113073983D01*
X130042561Y-113058438D01*
X130098237Y-113030070D01*
X130157668Y-113010759D01*
X130195201Y-112995213D01*
X130221797Y-112989922D01*
X130254921Y-112979160D01*
X130357883Y-112962853D01*
X130397082Y-112955056D01*
X130407115Y-112955056D01*
X130417628Y-112953391D01*
X130582372Y-112953391D01*
X130592885Y-112955056D01*
G37*
G36*
X124092885Y-105455056D02*
G01*
X124102918Y-105455056D01*
X124142117Y-105462853D01*
X124245078Y-105479160D01*
X124278200Y-105489922D01*
X124304799Y-105495213D01*
X124342335Y-105510760D01*
X124401762Y-105530070D01*
X124457433Y-105558435D01*
X124494967Y-105573983D01*
X124517517Y-105589050D01*
X124548539Y-105604857D01*
X124632866Y-105666124D01*
X124666113Y-105688339D01*
X124673208Y-105695434D01*
X124681817Y-105701689D01*
X124798310Y-105818182D01*
X124804564Y-105826790D01*
X124811661Y-105833887D01*
X124833878Y-105867138D01*
X124895142Y-105951460D01*
X124910947Y-105982479D01*
X124926017Y-106005033D01*
X124941566Y-106042572D01*
X124969929Y-106098237D01*
X124989235Y-106157657D01*
X125004787Y-106195201D01*
X125010078Y-106221805D01*
X125020839Y-106254921D01*
X125037145Y-106357876D01*
X125044944Y-106397082D01*
X125044944Y-106407114D01*
X125046609Y-106417627D01*
X125046609Y-106582372D01*
X125044944Y-106592884D01*
X125044944Y-106602918D01*
X125037144Y-106642126D01*
X125020839Y-106745078D01*
X125010079Y-106778192D01*
X125004787Y-106804799D01*
X124989234Y-106842346D01*
X124969929Y-106901762D01*
X124941568Y-106957422D01*
X124926017Y-106994967D01*
X124910945Y-107017523D01*
X124895142Y-107048539D01*
X124833887Y-107132849D01*
X124811661Y-107166113D01*
X124804561Y-107173212D01*
X124798310Y-107181817D01*
X124681817Y-107298310D01*
X124673212Y-107304561D01*
X124666113Y-107311661D01*
X124632849Y-107333887D01*
X124548539Y-107395142D01*
X124517523Y-107410945D01*
X124494967Y-107426017D01*
X124457422Y-107441568D01*
X124401762Y-107469929D01*
X124342346Y-107489234D01*
X124304799Y-107504787D01*
X124278192Y-107510079D01*
X124245078Y-107520839D01*
X124142126Y-107537144D01*
X124102918Y-107544944D01*
X124092884Y-107544944D01*
X124082372Y-107546609D01*
X123917628Y-107546609D01*
X123907115Y-107544944D01*
X123897082Y-107544944D01*
X123857874Y-107537145D01*
X123754921Y-107520839D01*
X123721805Y-107510078D01*
X123695201Y-107504787D01*
X123657657Y-107489235D01*
X123598237Y-107469929D01*
X123542572Y-107441566D01*
X123505033Y-107426017D01*
X123482479Y-107410947D01*
X123451460Y-107395142D01*
X123367138Y-107333878D01*
X123333887Y-107311661D01*
X123326790Y-107304564D01*
X123318182Y-107298310D01*
X123201689Y-107181817D01*
X123195434Y-107173208D01*
X123188339Y-107166113D01*
X123166124Y-107132866D01*
X123104857Y-107048539D01*
X123089050Y-107017517D01*
X123073983Y-106994967D01*
X123058435Y-106957433D01*
X123030070Y-106901762D01*
X123010760Y-106842335D01*
X122995213Y-106804799D01*
X122989922Y-106778200D01*
X122979160Y-106745078D01*
X122962853Y-106642117D01*
X122955056Y-106602918D01*
X122955056Y-106592884D01*
X122953391Y-106582372D01*
X122953391Y-106417627D01*
X122955056Y-106407114D01*
X122955056Y-106397082D01*
X122962852Y-106357886D01*
X122979160Y-106254921D01*
X122989922Y-106221797D01*
X122995213Y-106195201D01*
X123010759Y-106157668D01*
X123030070Y-106098237D01*
X123058438Y-106042561D01*
X123073983Y-106005033D01*
X123089048Y-105982486D01*
X123104857Y-105951460D01*
X123166132Y-105867121D01*
X123188339Y-105833887D01*
X123195432Y-105826793D01*
X123201689Y-105818182D01*
X123318182Y-105701689D01*
X123326793Y-105695432D01*
X123333887Y-105688339D01*
X123367121Y-105666132D01*
X123451460Y-105604857D01*
X123482486Y-105589048D01*
X123505033Y-105573983D01*
X123542561Y-105558438D01*
X123598237Y-105530070D01*
X123657668Y-105510759D01*
X123695201Y-105495213D01*
X123721797Y-105489922D01*
X123754921Y-105479160D01*
X123857883Y-105462853D01*
X123897082Y-105455056D01*
X123907115Y-105455056D01*
X123917628Y-105453391D01*
X124082372Y-105453391D01*
X124092885Y-105455056D01*
G37*
G36*
X130592885Y-105455056D02*
G01*
X130602918Y-105455056D01*
X130642117Y-105462853D01*
X130745078Y-105479160D01*
X130778200Y-105489922D01*
X130804799Y-105495213D01*
X130842335Y-105510760D01*
X130901762Y-105530070D01*
X130957433Y-105558435D01*
X130994967Y-105573983D01*
X131017517Y-105589050D01*
X131048539Y-105604857D01*
X131132866Y-105666124D01*
X131166113Y-105688339D01*
X131173208Y-105695434D01*
X131181817Y-105701689D01*
X131298310Y-105818182D01*
X131304564Y-105826790D01*
X131311661Y-105833887D01*
X131333878Y-105867138D01*
X131395142Y-105951460D01*
X131410947Y-105982479D01*
X131426017Y-106005033D01*
X131441566Y-106042572D01*
X131469929Y-106098237D01*
X131489235Y-106157657D01*
X131504787Y-106195201D01*
X131510078Y-106221805D01*
X131520839Y-106254921D01*
X131537145Y-106357876D01*
X131544944Y-106397082D01*
X131544944Y-106407114D01*
X131546609Y-106417627D01*
X131546609Y-106582372D01*
X131544944Y-106592884D01*
X131544944Y-106602918D01*
X131537144Y-106642126D01*
X131520839Y-106745078D01*
X131510079Y-106778192D01*
X131504787Y-106804799D01*
X131489234Y-106842346D01*
X131469929Y-106901762D01*
X131441568Y-106957422D01*
X131426017Y-106994967D01*
X131410945Y-107017523D01*
X131395142Y-107048539D01*
X131333887Y-107132849D01*
X131311661Y-107166113D01*
X131304561Y-107173212D01*
X131298310Y-107181817D01*
X131181817Y-107298310D01*
X131173212Y-107304561D01*
X131166113Y-107311661D01*
X131132849Y-107333887D01*
X131048539Y-107395142D01*
X131017523Y-107410945D01*
X130994967Y-107426017D01*
X130957422Y-107441568D01*
X130901762Y-107469929D01*
X130842346Y-107489234D01*
X130804799Y-107504787D01*
X130778192Y-107510079D01*
X130745078Y-107520839D01*
X130642126Y-107537144D01*
X130602918Y-107544944D01*
X130592884Y-107544944D01*
X130582372Y-107546609D01*
X130417628Y-107546609D01*
X130407115Y-107544944D01*
X130397082Y-107544944D01*
X130357874Y-107537145D01*
X130254921Y-107520839D01*
X130221805Y-107510078D01*
X130195201Y-107504787D01*
X130157657Y-107489235D01*
X130098237Y-107469929D01*
X130042572Y-107441566D01*
X130005033Y-107426017D01*
X129982479Y-107410947D01*
X129951460Y-107395142D01*
X129867138Y-107333878D01*
X129833887Y-107311661D01*
X129826790Y-107304564D01*
X129818182Y-107298310D01*
X129701689Y-107181817D01*
X129695434Y-107173208D01*
X129688339Y-107166113D01*
X129666124Y-107132866D01*
X129604857Y-107048539D01*
X129589050Y-107017517D01*
X129573983Y-106994967D01*
X129558435Y-106957433D01*
X129530070Y-106901762D01*
X129510760Y-106842335D01*
X129495213Y-106804799D01*
X129489922Y-106778200D01*
X129479160Y-106745078D01*
X129462853Y-106642117D01*
X129455056Y-106602918D01*
X129455056Y-106592884D01*
X129453391Y-106582372D01*
X129453391Y-106417627D01*
X129455056Y-106407114D01*
X129455056Y-106397082D01*
X129462852Y-106357886D01*
X129479160Y-106254921D01*
X129489922Y-106221797D01*
X129495213Y-106195201D01*
X129510759Y-106157668D01*
X129530070Y-106098237D01*
X129558438Y-106042561D01*
X129573983Y-106005033D01*
X129589048Y-105982486D01*
X129604857Y-105951460D01*
X129666132Y-105867121D01*
X129688339Y-105833887D01*
X129695432Y-105826793D01*
X129701689Y-105818182D01*
X129818182Y-105701689D01*
X129826793Y-105695432D01*
X129833887Y-105688339D01*
X129867121Y-105666132D01*
X129951460Y-105604857D01*
X129982486Y-105589048D01*
X130005033Y-105573983D01*
X130042561Y-105558438D01*
X130098237Y-105530070D01*
X130157668Y-105510759D01*
X130195201Y-105495213D01*
X130221797Y-105489922D01*
X130254921Y-105479160D01*
X130357883Y-105462853D01*
X130397082Y-105455056D01*
X130407115Y-105455056D01*
X130417628Y-105453391D01*
X130582372Y-105453391D01*
X130592885Y-105455056D01*
G37*
G36*
X124092885Y-100955056D02*
G01*
X124102918Y-100955056D01*
X124142117Y-100962853D01*
X124245078Y-100979160D01*
X124278200Y-100989922D01*
X124304799Y-100995213D01*
X124342335Y-101010760D01*
X124401762Y-101030070D01*
X124457433Y-101058435D01*
X124494967Y-101073983D01*
X124517517Y-101089050D01*
X124548539Y-101104857D01*
X124632866Y-101166124D01*
X124666113Y-101188339D01*
X124673208Y-101195434D01*
X124681817Y-101201689D01*
X124798310Y-101318182D01*
X124804564Y-101326790D01*
X124811661Y-101333887D01*
X124833878Y-101367138D01*
X124895142Y-101451460D01*
X124910947Y-101482479D01*
X124926017Y-101505033D01*
X124941566Y-101542572D01*
X124969929Y-101598237D01*
X124989235Y-101657657D01*
X125004787Y-101695201D01*
X125010078Y-101721805D01*
X125020839Y-101754921D01*
X125037145Y-101857876D01*
X125044944Y-101897082D01*
X125044944Y-101907114D01*
X125046609Y-101917627D01*
X125046609Y-102082372D01*
X125044944Y-102092884D01*
X125044944Y-102102918D01*
X125037144Y-102142126D01*
X125020839Y-102245078D01*
X125010079Y-102278192D01*
X125004787Y-102304799D01*
X124989234Y-102342346D01*
X124969929Y-102401762D01*
X124941568Y-102457422D01*
X124926017Y-102494967D01*
X124910945Y-102517523D01*
X124895142Y-102548539D01*
X124833887Y-102632849D01*
X124811661Y-102666113D01*
X124804561Y-102673212D01*
X124798310Y-102681817D01*
X124681817Y-102798310D01*
X124673212Y-102804561D01*
X124666113Y-102811661D01*
X124632849Y-102833887D01*
X124548539Y-102895142D01*
X124517523Y-102910945D01*
X124494967Y-102926017D01*
X124457422Y-102941568D01*
X124401762Y-102969929D01*
X124342346Y-102989234D01*
X124304799Y-103004787D01*
X124278192Y-103010079D01*
X124245078Y-103020839D01*
X124142126Y-103037144D01*
X124102918Y-103044944D01*
X124092884Y-103044944D01*
X124082372Y-103046609D01*
X123917628Y-103046609D01*
X123907115Y-103044944D01*
X123897082Y-103044944D01*
X123857874Y-103037145D01*
X123754921Y-103020839D01*
X123721805Y-103010078D01*
X123695201Y-103004787D01*
X123657657Y-102989235D01*
X123598237Y-102969929D01*
X123542572Y-102941566D01*
X123505033Y-102926017D01*
X123482479Y-102910947D01*
X123451460Y-102895142D01*
X123367138Y-102833878D01*
X123333887Y-102811661D01*
X123326790Y-102804564D01*
X123318182Y-102798310D01*
X123201689Y-102681817D01*
X123195434Y-102673208D01*
X123188339Y-102666113D01*
X123166124Y-102632866D01*
X123104857Y-102548539D01*
X123089050Y-102517517D01*
X123073983Y-102494967D01*
X123058435Y-102457433D01*
X123030070Y-102401762D01*
X123010760Y-102342335D01*
X122995213Y-102304799D01*
X122989922Y-102278200D01*
X122979160Y-102245078D01*
X122962853Y-102142117D01*
X122955056Y-102102918D01*
X122955056Y-102092884D01*
X122953391Y-102082372D01*
X122953391Y-101917627D01*
X122955056Y-101907114D01*
X122955056Y-101897082D01*
X122962852Y-101857886D01*
X122979160Y-101754921D01*
X122989922Y-101721797D01*
X122995213Y-101695201D01*
X123010759Y-101657668D01*
X123030070Y-101598237D01*
X123058438Y-101542561D01*
X123073983Y-101505033D01*
X123089048Y-101482486D01*
X123104857Y-101451460D01*
X123166132Y-101367121D01*
X123188339Y-101333887D01*
X123195432Y-101326793D01*
X123201689Y-101318182D01*
X123318182Y-101201689D01*
X123326793Y-101195432D01*
X123333887Y-101188339D01*
X123367121Y-101166132D01*
X123451460Y-101104857D01*
X123482486Y-101089048D01*
X123505033Y-101073983D01*
X123542561Y-101058438D01*
X123598237Y-101030070D01*
X123657668Y-101010759D01*
X123695201Y-100995213D01*
X123721797Y-100989922D01*
X123754921Y-100979160D01*
X123857883Y-100962853D01*
X123897082Y-100955056D01*
X123907115Y-100955056D01*
X123917628Y-100953391D01*
X124082372Y-100953391D01*
X124092885Y-100955056D01*
G37*
G36*
X130592885Y-100955056D02*
G01*
X130602918Y-100955056D01*
X130642117Y-100962853D01*
X130745078Y-100979160D01*
X130778200Y-100989922D01*
X130804799Y-100995213D01*
X130842335Y-101010760D01*
X130901762Y-101030070D01*
X130957433Y-101058435D01*
X130994967Y-101073983D01*
X131017517Y-101089050D01*
X131048539Y-101104857D01*
X131132866Y-101166124D01*
X131166113Y-101188339D01*
X131173208Y-101195434D01*
X131181817Y-101201689D01*
X131298310Y-101318182D01*
X131304564Y-101326790D01*
X131311661Y-101333887D01*
X131333878Y-101367138D01*
X131395142Y-101451460D01*
X131410947Y-101482479D01*
X131426017Y-101505033D01*
X131441566Y-101542572D01*
X131469929Y-101598237D01*
X131489235Y-101657657D01*
X131504787Y-101695201D01*
X131510078Y-101721805D01*
X131520839Y-101754921D01*
X131537145Y-101857876D01*
X131544944Y-101897082D01*
X131544944Y-101907114D01*
X131546609Y-101917627D01*
X131546609Y-102082372D01*
X131544944Y-102092884D01*
X131544944Y-102102918D01*
X131537144Y-102142126D01*
X131520839Y-102245078D01*
X131510079Y-102278192D01*
X131504787Y-102304799D01*
X131489234Y-102342346D01*
X131469929Y-102401762D01*
X131441568Y-102457422D01*
X131426017Y-102494967D01*
X131410945Y-102517523D01*
X131395142Y-102548539D01*
X131333887Y-102632849D01*
X131311661Y-102666113D01*
X131304561Y-102673212D01*
X131298310Y-102681817D01*
X131181817Y-102798310D01*
X131173212Y-102804561D01*
X131166113Y-102811661D01*
X131132849Y-102833887D01*
X131048539Y-102895142D01*
X131017523Y-102910945D01*
X130994967Y-102926017D01*
X130957422Y-102941568D01*
X130901762Y-102969929D01*
X130842346Y-102989234D01*
X130804799Y-103004787D01*
X130778192Y-103010079D01*
X130745078Y-103020839D01*
X130642126Y-103037144D01*
X130602918Y-103044944D01*
X130592884Y-103044944D01*
X130582372Y-103046609D01*
X130417628Y-103046609D01*
X130407115Y-103044944D01*
X130397082Y-103044944D01*
X130357874Y-103037145D01*
X130254921Y-103020839D01*
X130221805Y-103010078D01*
X130195201Y-103004787D01*
X130157657Y-102989235D01*
X130098237Y-102969929D01*
X130042572Y-102941566D01*
X130005033Y-102926017D01*
X129982479Y-102910947D01*
X129951460Y-102895142D01*
X129867138Y-102833878D01*
X129833887Y-102811661D01*
X129826790Y-102804564D01*
X129818182Y-102798310D01*
X129701689Y-102681817D01*
X129695434Y-102673208D01*
X129688339Y-102666113D01*
X129666124Y-102632866D01*
X129604857Y-102548539D01*
X129589050Y-102517517D01*
X129573983Y-102494967D01*
X129558435Y-102457433D01*
X129530070Y-102401762D01*
X129510760Y-102342335D01*
X129495213Y-102304799D01*
X129489922Y-102278200D01*
X129479160Y-102245078D01*
X129462853Y-102142117D01*
X129455056Y-102102918D01*
X129455056Y-102092884D01*
X129453391Y-102082372D01*
X129453391Y-101917627D01*
X129455056Y-101907114D01*
X129455056Y-101897082D01*
X129462852Y-101857886D01*
X129479160Y-101754921D01*
X129489922Y-101721797D01*
X129495213Y-101695201D01*
X129510759Y-101657668D01*
X129530070Y-101598237D01*
X129558438Y-101542561D01*
X129573983Y-101505033D01*
X129589048Y-101482486D01*
X129604857Y-101451460D01*
X129666132Y-101367121D01*
X129688339Y-101333887D01*
X129695432Y-101326793D01*
X129701689Y-101318182D01*
X129818182Y-101201689D01*
X129826793Y-101195432D01*
X129833887Y-101188339D01*
X129867121Y-101166132D01*
X129951460Y-101104857D01*
X129982486Y-101089048D01*
X130005033Y-101073983D01*
X130042561Y-101058438D01*
X130098237Y-101030070D01*
X130157668Y-101010759D01*
X130195201Y-100995213D01*
X130221797Y-100989922D01*
X130254921Y-100979160D01*
X130357883Y-100962853D01*
X130397082Y-100955056D01*
X130407115Y-100955056D01*
X130417628Y-100953391D01*
X130582372Y-100953391D01*
X130592885Y-100955056D01*
G37*
G36*
X168670168Y-97541445D02*
G01*
X168894025Y-97614181D01*
X169103748Y-97721040D01*
X169294172Y-97859391D01*
X169460609Y-98025828D01*
X169598960Y-98216252D01*
X169705819Y-98425975D01*
X169778555Y-98649832D01*
X169815376Y-98882311D01*
X169815376Y-99117689D01*
X169778555Y-99350168D01*
X169705819Y-99574025D01*
X169598960Y-99783748D01*
X169460609Y-99974172D01*
X169294172Y-100140609D01*
X169103748Y-100278960D01*
X168894025Y-100385819D01*
X168670168Y-100458555D01*
X168437689Y-100495376D01*
X168202311Y-100495376D01*
X167969832Y-100458555D01*
X167745975Y-100385819D01*
X167536252Y-100278960D01*
X167345828Y-100140609D01*
X167179391Y-99974172D01*
X167041040Y-99783748D01*
X166934181Y-99574025D01*
X166861445Y-99350168D01*
X166824624Y-99117689D01*
X166824624Y-98882311D01*
X166861445Y-98649832D01*
X166934181Y-98425975D01*
X167041040Y-98216252D01*
X167179391Y-98025828D01*
X167345828Y-97859391D01*
X167536252Y-97721040D01*
X167745975Y-97614181D01*
X167969832Y-97541445D01*
X168202311Y-97504624D01*
X168437689Y-97504624D01*
X168670168Y-97541445D01*
G37*
G36*
X164568685Y-98207969D02*
G01*
X164577358Y-98211798D01*
X164584925Y-98212901D01*
X164632223Y-98236023D01*
X164669541Y-98252501D01*
X164672996Y-98255956D01*
X164673920Y-98256408D01*
X164743591Y-98326079D01*
X164744042Y-98327002D01*
X164747499Y-98330459D01*
X164763978Y-98367782D01*
X164787098Y-98415073D01*
X164788200Y-98422639D01*
X164792031Y-98431315D01*
X164800000Y-98500000D01*
X164800000Y-99500000D01*
X164792031Y-99568685D01*
X164788199Y-99577361D01*
X164787098Y-99584925D01*
X164763985Y-99632202D01*
X164747499Y-99669541D01*
X164744041Y-99672998D01*
X164743591Y-99673920D01*
X164673920Y-99743591D01*
X164672998Y-99744041D01*
X164669541Y-99747499D01*
X164632207Y-99763983D01*
X164584926Y-99787098D01*
X164577361Y-99788200D01*
X164568685Y-99792031D01*
X164500000Y-99800000D01*
X163500000Y-99800000D01*
X163431315Y-99792031D01*
X163422638Y-99788200D01*
X163415074Y-99787098D01*
X163367787Y-99763981D01*
X163330459Y-99747499D01*
X163327002Y-99744042D01*
X163326079Y-99743591D01*
X163256408Y-99673920D01*
X163255956Y-99672996D01*
X163252501Y-99669541D01*
X163236025Y-99632228D01*
X163212901Y-99584926D01*
X163211798Y-99577357D01*
X163207969Y-99568685D01*
X163200000Y-99500000D01*
X163200000Y-98500000D01*
X163207969Y-98431315D01*
X163211798Y-98422642D01*
X163212901Y-98415074D01*
X163236028Y-98367766D01*
X163252501Y-98330459D01*
X163255955Y-98327004D01*
X163256408Y-98326079D01*
X163326079Y-98256408D01*
X163327004Y-98255955D01*
X163330459Y-98252501D01*
X163367761Y-98236030D01*
X163415073Y-98212901D01*
X163422642Y-98211798D01*
X163431315Y-98207969D01*
X163500000Y-98200000D01*
X164500000Y-98200000D01*
X164568685Y-98207969D01*
G37*
G36*
X161232228Y-98234448D02*
G01*
X161377117Y-98294463D01*
X161507515Y-98381592D01*
X161618408Y-98492485D01*
X161705537Y-98622883D01*
X161765552Y-98767772D01*
X161796148Y-98921586D01*
X161796148Y-99078414D01*
X161765552Y-99232228D01*
X161705537Y-99377117D01*
X161618408Y-99507515D01*
X161507515Y-99618408D01*
X161377117Y-99705537D01*
X161232228Y-99765552D01*
X161078414Y-99796148D01*
X160921586Y-99796148D01*
X160767772Y-99765552D01*
X160622883Y-99705537D01*
X160492485Y-99618408D01*
X160381592Y-99507515D01*
X160294463Y-99377117D01*
X160234448Y-99232228D01*
X160203852Y-99078414D01*
X160203852Y-98921586D01*
X160234448Y-98767772D01*
X160294463Y-98622883D01*
X160381592Y-98492485D01*
X160492485Y-98381592D01*
X160622883Y-98294463D01*
X160767772Y-98234448D01*
X160921586Y-98203852D01*
X161078414Y-98203852D01*
X161232228Y-98234448D01*
G37*
G36*
X124919134Y-85053806D02*
G01*
X124935355Y-85064645D01*
X124946194Y-85080866D01*
X124950000Y-85100000D01*
X124950000Y-86900000D01*
X124946194Y-86919134D01*
X124935355Y-86935355D01*
X124919134Y-86946194D01*
X124900000Y-86950000D01*
X123100000Y-86950000D01*
X123080866Y-86946194D01*
X123064645Y-86935355D01*
X123053806Y-86919134D01*
X123050000Y-86900000D01*
X123050000Y-85100000D01*
X123053806Y-85080866D01*
X123064645Y-85064645D01*
X123080866Y-85053806D01*
X123100000Y-85050000D01*
X124900000Y-85050000D01*
X124919134Y-85053806D01*
G37*
G36*
X126815770Y-85090907D02*
G01*
X126987827Y-85162175D01*
X127142674Y-85265640D01*
X127274360Y-85397326D01*
X127377825Y-85552173D01*
X127449093Y-85724230D01*
X127485425Y-85906884D01*
X127485425Y-86093116D01*
X127449093Y-86275770D01*
X127377825Y-86447827D01*
X127274360Y-86602674D01*
X127142674Y-86734360D01*
X126987827Y-86837825D01*
X126815770Y-86909093D01*
X126633116Y-86945425D01*
X126446884Y-86945425D01*
X126264230Y-86909093D01*
X126092173Y-86837825D01*
X125937326Y-86734360D01*
X125805640Y-86602674D01*
X125702175Y-86447827D01*
X125630907Y-86275770D01*
X125594575Y-86093116D01*
X125594575Y-85906884D01*
X125630907Y-85724230D01*
X125702175Y-85552173D01*
X125805640Y-85397326D01*
X125937326Y-85265640D01*
X126092173Y-85162175D01*
X126264230Y-85090907D01*
X126446884Y-85054575D01*
X126633116Y-85054575D01*
X126815770Y-85090907D01*
G37*
G36*
X56232228Y-61234448D02*
G01*
X56377117Y-61294463D01*
X56507515Y-61381592D01*
X56618408Y-61492485D01*
X56705537Y-61622883D01*
X56765552Y-61767772D01*
X56796148Y-61921586D01*
X56796148Y-62078414D01*
X56765552Y-62232228D01*
X56705537Y-62377117D01*
X56618408Y-62507515D01*
X56507515Y-62618408D01*
X56377117Y-62705537D01*
X56232228Y-62765552D01*
X56078414Y-62796148D01*
X55921586Y-62796148D01*
X55767772Y-62765552D01*
X55622883Y-62705537D01*
X55492485Y-62618408D01*
X55381592Y-62507515D01*
X55294463Y-62377117D01*
X55234448Y-62232228D01*
X55203852Y-62078414D01*
X55203852Y-61921586D01*
X55234448Y-61767772D01*
X55294463Y-61622883D01*
X55381592Y-61492485D01*
X55492485Y-61381592D01*
X55622883Y-61294463D01*
X55767772Y-61234448D01*
X55921586Y-61203852D01*
X56078414Y-61203852D01*
X56232228Y-61234448D01*
G37*
G36*
X59232228Y-61234448D02*
G01*
X59377117Y-61294463D01*
X59507515Y-61381592D01*
X59618408Y-61492485D01*
X59705537Y-61622883D01*
X59765552Y-61767772D01*
X59796148Y-61921586D01*
X59796148Y-62078414D01*
X59765552Y-62232228D01*
X59705537Y-62377117D01*
X59618408Y-62507515D01*
X59507515Y-62618408D01*
X59377117Y-62705537D01*
X59232228Y-62765552D01*
X59078414Y-62796148D01*
X58921586Y-62796148D01*
X58767772Y-62765552D01*
X58622883Y-62705537D01*
X58492485Y-62618408D01*
X58381592Y-62507515D01*
X58294463Y-62377117D01*
X58234448Y-62232228D01*
X58203852Y-62078414D01*
X58203852Y-61921586D01*
X58234448Y-61767772D01*
X58294463Y-61622883D01*
X58381592Y-61492485D01*
X58492485Y-61381592D01*
X58622883Y-61294463D01*
X58767772Y-61234448D01*
X58921586Y-61203852D01*
X59078414Y-61203852D01*
X59232228Y-61234448D01*
G37*
G36*
X62232228Y-61234448D02*
G01*
X62377117Y-61294463D01*
X62507515Y-61381592D01*
X62618408Y-61492485D01*
X62705537Y-61622883D01*
X62765552Y-61767772D01*
X62796148Y-61921586D01*
X62796148Y-62078414D01*
X62765552Y-62232228D01*
X62705537Y-62377117D01*
X62618408Y-62507515D01*
X62507515Y-62618408D01*
X62377117Y-62705537D01*
X62232228Y-62765552D01*
X62078414Y-62796148D01*
X61921586Y-62796148D01*
X61767772Y-62765552D01*
X61622883Y-62705537D01*
X61492485Y-62618408D01*
X61381592Y-62507515D01*
X61294463Y-62377117D01*
X61234448Y-62232228D01*
X61203852Y-62078414D01*
X61203852Y-61921586D01*
X61234448Y-61767772D01*
X61294463Y-61622883D01*
X61381592Y-61492485D01*
X61492485Y-61381592D01*
X61622883Y-61294463D01*
X61767772Y-61234448D01*
X61921586Y-61203852D01*
X62078414Y-61203852D01*
X62232228Y-61234448D01*
G37*
G36*
X86232228Y-61234448D02*
G01*
X86377117Y-61294463D01*
X86507515Y-61381592D01*
X86618408Y-61492485D01*
X86705537Y-61622883D01*
X86765552Y-61767772D01*
X86796148Y-61921586D01*
X86796148Y-62078414D01*
X86765552Y-62232228D01*
X86705537Y-62377117D01*
X86618408Y-62507515D01*
X86507515Y-62618408D01*
X86377117Y-62705537D01*
X86232228Y-62765552D01*
X86078414Y-62796148D01*
X85921586Y-62796148D01*
X85767772Y-62765552D01*
X85622883Y-62705537D01*
X85492485Y-62618408D01*
X85381592Y-62507515D01*
X85294463Y-62377117D01*
X85234448Y-62232228D01*
X85203852Y-62078414D01*
X85203852Y-61921586D01*
X85234448Y-61767772D01*
X85294463Y-61622883D01*
X85381592Y-61492485D01*
X85492485Y-61381592D01*
X85622883Y-61294463D01*
X85767772Y-61234448D01*
X85921586Y-61203852D01*
X86078414Y-61203852D01*
X86232228Y-61234448D01*
G37*
G36*
X89232228Y-61234448D02*
G01*
X89377117Y-61294463D01*
X89507515Y-61381592D01*
X89618408Y-61492485D01*
X89705537Y-61622883D01*
X89765552Y-61767772D01*
X89796148Y-61921586D01*
X89796148Y-62078414D01*
X89765552Y-62232228D01*
X89705537Y-62377117D01*
X89618408Y-62507515D01*
X89507515Y-62618408D01*
X89377117Y-62705537D01*
X89232228Y-62765552D01*
X89078414Y-62796148D01*
X88921586Y-62796148D01*
X88767772Y-62765552D01*
X88622883Y-62705537D01*
X88492485Y-62618408D01*
X88381592Y-62507515D01*
X88294463Y-62377117D01*
X88234448Y-62232228D01*
X88203852Y-62078414D01*
X88203852Y-61921586D01*
X88234448Y-61767772D01*
X88294463Y-61622883D01*
X88381592Y-61492485D01*
X88492485Y-61381592D01*
X88622883Y-61294463D01*
X88767772Y-61234448D01*
X88921586Y-61203852D01*
X89078414Y-61203852D01*
X89232228Y-61234448D01*
G37*
G36*
X92232228Y-61234448D02*
G01*
X92377117Y-61294463D01*
X92507515Y-61381592D01*
X92618408Y-61492485D01*
X92705537Y-61622883D01*
X92765552Y-61767772D01*
X92796148Y-61921586D01*
X92796148Y-62078414D01*
X92765552Y-62232228D01*
X92705537Y-62377117D01*
X92618408Y-62507515D01*
X92507515Y-62618408D01*
X92377117Y-62705537D01*
X92232228Y-62765552D01*
X92078414Y-62796148D01*
X91921586Y-62796148D01*
X91767772Y-62765552D01*
X91622883Y-62705537D01*
X91492485Y-62618408D01*
X91381592Y-62507515D01*
X91294463Y-62377117D01*
X91234448Y-62232228D01*
X91203852Y-62078414D01*
X91203852Y-61921586D01*
X91234448Y-61767772D01*
X91294463Y-61622883D01*
X91381592Y-61492485D01*
X91492485Y-61381592D01*
X91622883Y-61294463D01*
X91767772Y-61234448D01*
X91921586Y-61203852D01*
X92078414Y-61203852D01*
X92232228Y-61234448D01*
G37*
G36*
X71568685Y-57947969D02*
G01*
X71577358Y-57951798D01*
X71584925Y-57952901D01*
X71632223Y-57976023D01*
X71669541Y-57992501D01*
X71672996Y-57995956D01*
X71673920Y-57996408D01*
X71743591Y-58066079D01*
X71744042Y-58067002D01*
X71747499Y-58070459D01*
X71763978Y-58107782D01*
X71787098Y-58155073D01*
X71788200Y-58162639D01*
X71792031Y-58171315D01*
X71800000Y-58240000D01*
X71800000Y-59760000D01*
X71792031Y-59828685D01*
X71788199Y-59837361D01*
X71787098Y-59844925D01*
X71763985Y-59892202D01*
X71747499Y-59929541D01*
X71744041Y-59932998D01*
X71743591Y-59933920D01*
X71673920Y-60003591D01*
X71672998Y-60004041D01*
X71669541Y-60007499D01*
X71632207Y-60023983D01*
X71584926Y-60047098D01*
X71577361Y-60048200D01*
X71568685Y-60052031D01*
X71500000Y-60060000D01*
X70500000Y-60060000D01*
X70431315Y-60052031D01*
X70422638Y-60048200D01*
X70415074Y-60047098D01*
X70367787Y-60023981D01*
X70330459Y-60007499D01*
X70327002Y-60004042D01*
X70326079Y-60003591D01*
X70256408Y-59933920D01*
X70255956Y-59932996D01*
X70252501Y-59929541D01*
X70236025Y-59892228D01*
X70212901Y-59844926D01*
X70211798Y-59837357D01*
X70207969Y-59828685D01*
X70200000Y-59760000D01*
X70200000Y-58240000D01*
X70207969Y-58171315D01*
X70211798Y-58162642D01*
X70212901Y-58155074D01*
X70236028Y-58107766D01*
X70252501Y-58070459D01*
X70255955Y-58067004D01*
X70256408Y-58066079D01*
X70326079Y-57996408D01*
X70327004Y-57995955D01*
X70330459Y-57992501D01*
X70367761Y-57976030D01*
X70415073Y-57952901D01*
X70422642Y-57951798D01*
X70431315Y-57947969D01*
X70500000Y-57940000D01*
X71500000Y-57940000D01*
X71568685Y-57947969D01*
G37*
G36*
X74232228Y-57974448D02*
G01*
X74377117Y-58034463D01*
X74507515Y-58121592D01*
X74618408Y-58232485D01*
X74705537Y-58362883D01*
X74765552Y-58507772D01*
X74796148Y-58661586D01*
X74800000Y-58740000D01*
X74800000Y-59260000D01*
X74796148Y-59338414D01*
X74765552Y-59492228D01*
X74705537Y-59637117D01*
X74618408Y-59767515D01*
X74507515Y-59878408D01*
X74377117Y-59965537D01*
X74232228Y-60025552D01*
X74078414Y-60056148D01*
X73921586Y-60056148D01*
X73767772Y-60025552D01*
X73622883Y-59965537D01*
X73492485Y-59878408D01*
X73381592Y-59767515D01*
X73294463Y-59637117D01*
X73234448Y-59492228D01*
X73203852Y-59338414D01*
X73200000Y-59260000D01*
X73200000Y-58740000D01*
X73203852Y-58661586D01*
X73234448Y-58507772D01*
X73294463Y-58362883D01*
X73381592Y-58232485D01*
X73492485Y-58121592D01*
X73622883Y-58034463D01*
X73767772Y-57974448D01*
X73921586Y-57943852D01*
X74078414Y-57943852D01*
X74232228Y-57974448D01*
G37*
G36*
X77232228Y-57974448D02*
G01*
X77377117Y-58034463D01*
X77507515Y-58121592D01*
X77618408Y-58232485D01*
X77705537Y-58362883D01*
X77765552Y-58507772D01*
X77796148Y-58661586D01*
X77800000Y-58740000D01*
X77800000Y-59260000D01*
X77796148Y-59338414D01*
X77765552Y-59492228D01*
X77705537Y-59637117D01*
X77618408Y-59767515D01*
X77507515Y-59878408D01*
X77377117Y-59965537D01*
X77232228Y-60025552D01*
X77078414Y-60056148D01*
X76921586Y-60056148D01*
X76767772Y-60025552D01*
X76622883Y-59965537D01*
X76492485Y-59878408D01*
X76381592Y-59767515D01*
X76294463Y-59637117D01*
X76234448Y-59492228D01*
X76203852Y-59338414D01*
X76200000Y-59260000D01*
X76200000Y-58740000D01*
X76203852Y-58661586D01*
X76234448Y-58507772D01*
X76294463Y-58362883D01*
X76381592Y-58232485D01*
X76492485Y-58121592D01*
X76622883Y-58034463D01*
X76767772Y-57974448D01*
X76921586Y-57943852D01*
X77078414Y-57943852D01*
X77232228Y-57974448D01*
G37*
G36*
X56568685Y-58207969D02*
G01*
X56577358Y-58211798D01*
X56584925Y-58212901D01*
X56632223Y-58236023D01*
X56669541Y-58252501D01*
X56672996Y-58255956D01*
X56673920Y-58256408D01*
X56743591Y-58326079D01*
X56744042Y-58327002D01*
X56747499Y-58330459D01*
X56763978Y-58367782D01*
X56787098Y-58415073D01*
X56788200Y-58422639D01*
X56792031Y-58431315D01*
X56800000Y-58500000D01*
X56800000Y-59500000D01*
X56792031Y-59568685D01*
X56788199Y-59577361D01*
X56787098Y-59584925D01*
X56763985Y-59632202D01*
X56747499Y-59669541D01*
X56744041Y-59672998D01*
X56743591Y-59673920D01*
X56673920Y-59743591D01*
X56672998Y-59744041D01*
X56669541Y-59747499D01*
X56632207Y-59763983D01*
X56584926Y-59787098D01*
X56577361Y-59788200D01*
X56568685Y-59792031D01*
X56500000Y-59800000D01*
X55500000Y-59800000D01*
X55431315Y-59792031D01*
X55422638Y-59788200D01*
X55415074Y-59787098D01*
X55367787Y-59763981D01*
X55330459Y-59747499D01*
X55327002Y-59744042D01*
X55326079Y-59743591D01*
X55256408Y-59673920D01*
X55255956Y-59672996D01*
X55252501Y-59669541D01*
X55236025Y-59632228D01*
X55212901Y-59584926D01*
X55211798Y-59577357D01*
X55207969Y-59568685D01*
X55200000Y-59500000D01*
X55200000Y-58500000D01*
X55207969Y-58431315D01*
X55211798Y-58422642D01*
X55212901Y-58415074D01*
X55236028Y-58367766D01*
X55252501Y-58330459D01*
X55255955Y-58327004D01*
X55256408Y-58326079D01*
X55326079Y-58256408D01*
X55327004Y-58255955D01*
X55330459Y-58252501D01*
X55367761Y-58236030D01*
X55415073Y-58212901D01*
X55422642Y-58211798D01*
X55431315Y-58207969D01*
X55500000Y-58200000D01*
X56500000Y-58200000D01*
X56568685Y-58207969D01*
G37*
G36*
X86568685Y-58207969D02*
G01*
X86577358Y-58211798D01*
X86584925Y-58212901D01*
X86632223Y-58236023D01*
X86669541Y-58252501D01*
X86672996Y-58255956D01*
X86673920Y-58256408D01*
X86743591Y-58326079D01*
X86744042Y-58327002D01*
X86747499Y-58330459D01*
X86763978Y-58367782D01*
X86787098Y-58415073D01*
X86788200Y-58422639D01*
X86792031Y-58431315D01*
X86800000Y-58500000D01*
X86800000Y-59500000D01*
X86792031Y-59568685D01*
X86788199Y-59577361D01*
X86787098Y-59584925D01*
X86763985Y-59632202D01*
X86747499Y-59669541D01*
X86744041Y-59672998D01*
X86743591Y-59673920D01*
X86673920Y-59743591D01*
X86672998Y-59744041D01*
X86669541Y-59747499D01*
X86632207Y-59763983D01*
X86584926Y-59787098D01*
X86577361Y-59788200D01*
X86568685Y-59792031D01*
X86500000Y-59800000D01*
X85500000Y-59800000D01*
X85431315Y-59792031D01*
X85422638Y-59788200D01*
X85415074Y-59787098D01*
X85367787Y-59763981D01*
X85330459Y-59747499D01*
X85327002Y-59744042D01*
X85326079Y-59743591D01*
X85256408Y-59673920D01*
X85255956Y-59672996D01*
X85252501Y-59669541D01*
X85236025Y-59632228D01*
X85212901Y-59584926D01*
X85211798Y-59577357D01*
X85207969Y-59568685D01*
X85200000Y-59500000D01*
X85200000Y-58500000D01*
X85207969Y-58431315D01*
X85211798Y-58422642D01*
X85212901Y-58415074D01*
X85236028Y-58367766D01*
X85252501Y-58330459D01*
X85255955Y-58327004D01*
X85256408Y-58326079D01*
X85326079Y-58256408D01*
X85327004Y-58255955D01*
X85330459Y-58252501D01*
X85367761Y-58236030D01*
X85415073Y-58212901D01*
X85422642Y-58211798D01*
X85431315Y-58207969D01*
X85500000Y-58200000D01*
X86500000Y-58200000D01*
X86568685Y-58207969D01*
G37*
G36*
X59232228Y-58234448D02*
G01*
X59377117Y-58294463D01*
X59507515Y-58381592D01*
X59618408Y-58492485D01*
X59705537Y-58622883D01*
X59765552Y-58767772D01*
X59796148Y-58921586D01*
X59796148Y-59078414D01*
X59765552Y-59232228D01*
X59705537Y-59377117D01*
X59618408Y-59507515D01*
X59507515Y-59618408D01*
X59377117Y-59705537D01*
X59232228Y-59765552D01*
X59078414Y-59796148D01*
X58921586Y-59796148D01*
X58767772Y-59765552D01*
X58622883Y-59705537D01*
X58492485Y-59618408D01*
X58381592Y-59507515D01*
X58294463Y-59377117D01*
X58234448Y-59232228D01*
X58203852Y-59078414D01*
X58203852Y-58921586D01*
X58234448Y-58767772D01*
X58294463Y-58622883D01*
X58381592Y-58492485D01*
X58492485Y-58381592D01*
X58622883Y-58294463D01*
X58767772Y-58234448D01*
X58921586Y-58203852D01*
X59078414Y-58203852D01*
X59232228Y-58234448D01*
G37*
G36*
X62232228Y-58234448D02*
G01*
X62377117Y-58294463D01*
X62507515Y-58381592D01*
X62618408Y-58492485D01*
X62705537Y-58622883D01*
X62765552Y-58767772D01*
X62796148Y-58921586D01*
X62796148Y-59078414D01*
X62765552Y-59232228D01*
X62705537Y-59377117D01*
X62618408Y-59507515D01*
X62507515Y-59618408D01*
X62377117Y-59705537D01*
X62232228Y-59765552D01*
X62078414Y-59796148D01*
X61921586Y-59796148D01*
X61767772Y-59765552D01*
X61622883Y-59705537D01*
X61492485Y-59618408D01*
X61381592Y-59507515D01*
X61294463Y-59377117D01*
X61234448Y-59232228D01*
X61203852Y-59078414D01*
X61203852Y-58921586D01*
X61234448Y-58767772D01*
X61294463Y-58622883D01*
X61381592Y-58492485D01*
X61492485Y-58381592D01*
X61622883Y-58294463D01*
X61767772Y-58234448D01*
X61921586Y-58203852D01*
X62078414Y-58203852D01*
X62232228Y-58234448D01*
G37*
G36*
X89232228Y-58234448D02*
G01*
X89377117Y-58294463D01*
X89507515Y-58381592D01*
X89618408Y-58492485D01*
X89705537Y-58622883D01*
X89765552Y-58767772D01*
X89796148Y-58921586D01*
X89796148Y-59078414D01*
X89765552Y-59232228D01*
X89705537Y-59377117D01*
X89618408Y-59507515D01*
X89507515Y-59618408D01*
X89377117Y-59705537D01*
X89232228Y-59765552D01*
X89078414Y-59796148D01*
X88921586Y-59796148D01*
X88767772Y-59765552D01*
X88622883Y-59705537D01*
X88492485Y-59618408D01*
X88381592Y-59507515D01*
X88294463Y-59377117D01*
X88234448Y-59232228D01*
X88203852Y-59078414D01*
X88203852Y-58921586D01*
X88234448Y-58767772D01*
X88294463Y-58622883D01*
X88381592Y-58492485D01*
X88492485Y-58381592D01*
X88622883Y-58294463D01*
X88767772Y-58234448D01*
X88921586Y-58203852D01*
X89078414Y-58203852D01*
X89232228Y-58234448D01*
G37*
G36*
X92232228Y-58234448D02*
G01*
X92377117Y-58294463D01*
X92507515Y-58381592D01*
X92618408Y-58492485D01*
X92705537Y-58622883D01*
X92765552Y-58767772D01*
X92796148Y-58921586D01*
X92796148Y-59078414D01*
X92765552Y-59232228D01*
X92705537Y-59377117D01*
X92618408Y-59507515D01*
X92507515Y-59618408D01*
X92377117Y-59705537D01*
X92232228Y-59765552D01*
X92078414Y-59796148D01*
X91921586Y-59796148D01*
X91767772Y-59765552D01*
X91622883Y-59705537D01*
X91492485Y-59618408D01*
X91381592Y-59507515D01*
X91294463Y-59377117D01*
X91234448Y-59232228D01*
X91203852Y-59078414D01*
X91203852Y-58921586D01*
X91234448Y-58767772D01*
X91294463Y-58622883D01*
X91381592Y-58492485D01*
X91492485Y-58381592D01*
X91622883Y-58294463D01*
X91767772Y-58234448D01*
X91921586Y-58203852D01*
X92078414Y-58203852D01*
X92232228Y-58234448D01*
G37*
G36*
X59350168Y-53221445D02*
G01*
X59574025Y-53294181D01*
X59783748Y-53401040D01*
X59974172Y-53539391D01*
X60140609Y-53705828D01*
X60278960Y-53896252D01*
X60385819Y-54105975D01*
X60458555Y-54329832D01*
X60495376Y-54562311D01*
X60495376Y-54797689D01*
X60458555Y-55030168D01*
X60385819Y-55254025D01*
X60278960Y-55463748D01*
X60140609Y-55654172D01*
X59974172Y-55820609D01*
X59783748Y-55958960D01*
X59574025Y-56065819D01*
X59350168Y-56138555D01*
X59117689Y-56175376D01*
X58882311Y-56175376D01*
X58649832Y-56138555D01*
X58425975Y-56065819D01*
X58216252Y-55958960D01*
X58025828Y-55820609D01*
X57859391Y-55654172D01*
X57721040Y-55463748D01*
X57614181Y-55254025D01*
X57541445Y-55030168D01*
X57504624Y-54797689D01*
X57504624Y-54562311D01*
X57541445Y-54329832D01*
X57614181Y-54105975D01*
X57721040Y-53896252D01*
X57859391Y-53705828D01*
X58025828Y-53539391D01*
X58216252Y-53401040D01*
X58425975Y-53294181D01*
X58649832Y-53221445D01*
X58882311Y-53184624D01*
X59117689Y-53184624D01*
X59350168Y-53221445D01*
G37*
G36*
X74350168Y-53221445D02*
G01*
X74574025Y-53294181D01*
X74783748Y-53401040D01*
X74974172Y-53539391D01*
X75140609Y-53705828D01*
X75278960Y-53896252D01*
X75385819Y-54105975D01*
X75458555Y-54329832D01*
X75495376Y-54562311D01*
X75495376Y-54797689D01*
X75458555Y-55030168D01*
X75385819Y-55254025D01*
X75278960Y-55463748D01*
X75140609Y-55654172D01*
X74974172Y-55820609D01*
X74783748Y-55958960D01*
X74574025Y-56065819D01*
X74350168Y-56138555D01*
X74117689Y-56175376D01*
X73882311Y-56175376D01*
X73649832Y-56138555D01*
X73425975Y-56065819D01*
X73216252Y-55958960D01*
X73025828Y-55820609D01*
X72859391Y-55654172D01*
X72721040Y-55463748D01*
X72614181Y-55254025D01*
X72541445Y-55030168D01*
X72504624Y-54797689D01*
X72504624Y-54562311D01*
X72541445Y-54329832D01*
X72614181Y-54105975D01*
X72721040Y-53896252D01*
X72859391Y-53705828D01*
X73025828Y-53539391D01*
X73216252Y-53401040D01*
X73425975Y-53294181D01*
X73649832Y-53221445D01*
X73882311Y-53184624D01*
X74117689Y-53184624D01*
X74350168Y-53221445D01*
G37*
G36*
X89350168Y-53221445D02*
G01*
X89574025Y-53294181D01*
X89783748Y-53401040D01*
X89974172Y-53539391D01*
X90140609Y-53705828D01*
X90278960Y-53896252D01*
X90385819Y-54105975D01*
X90458555Y-54329832D01*
X90495376Y-54562311D01*
X90495376Y-54797689D01*
X90458555Y-55030168D01*
X90385819Y-55254025D01*
X90278960Y-55463748D01*
X90140609Y-55654172D01*
X89974172Y-55820609D01*
X89783748Y-55958960D01*
X89574025Y-56065819D01*
X89350168Y-56138555D01*
X89117689Y-56175376D01*
X88882311Y-56175376D01*
X88649832Y-56138555D01*
X88425975Y-56065819D01*
X88216252Y-55958960D01*
X88025828Y-55820609D01*
X87859391Y-55654172D01*
X87721040Y-55463748D01*
X87614181Y-55254025D01*
X87541445Y-55030168D01*
X87504624Y-54797689D01*
X87504624Y-54562311D01*
X87541445Y-54329832D01*
X87614181Y-54105975D01*
X87721040Y-53896252D01*
X87859391Y-53705828D01*
X88025828Y-53539391D01*
X88216252Y-53401040D01*
X88425975Y-53294181D01*
X88649832Y-53221445D01*
X88882311Y-53184624D01*
X89117689Y-53184624D01*
X89350168Y-53221445D01*
G37*
G36*
X32373513Y-50444208D02*
G01*
X32612293Y-50521793D01*
X32835998Y-50635776D01*
X33039117Y-50783350D01*
X33216650Y-50960883D01*
X33364224Y-51164002D01*
X33478207Y-51387707D01*
X33555792Y-51626487D01*
X33595068Y-51874465D01*
X33595068Y-52125535D01*
X33555792Y-52373513D01*
X33478207Y-52612293D01*
X33364224Y-52835998D01*
X33216650Y-53039117D01*
X33039117Y-53216650D01*
X32835998Y-53364224D01*
X32612293Y-53478207D01*
X32373513Y-53555792D01*
X32125535Y-53595068D01*
X31874465Y-53595068D01*
X31626487Y-53555792D01*
X31387707Y-53478207D01*
X31164002Y-53364224D01*
X30960883Y-53216650D01*
X30783350Y-53039117D01*
X30635776Y-52835998D01*
X30521793Y-52612293D01*
X30444208Y-52373513D01*
X30404932Y-52125535D01*
X30404932Y-51874465D01*
X30444208Y-51626487D01*
X30521793Y-51387707D01*
X30635776Y-51164002D01*
X30783350Y-50960883D01*
X30960883Y-50783350D01*
X31164002Y-50635776D01*
X31387707Y-50521793D01*
X31626487Y-50444208D01*
X31874465Y-50404932D01*
X32125535Y-50404932D01*
X32373513Y-50444208D01*
G37*
G36*
X168373513Y-50444208D02*
G01*
X168612293Y-50521793D01*
X168835998Y-50635776D01*
X169039117Y-50783350D01*
X169216650Y-50960883D01*
X169364224Y-51164002D01*
X169478207Y-51387707D01*
X169555792Y-51626487D01*
X169595068Y-51874465D01*
X169595068Y-52125535D01*
X169555792Y-52373513D01*
X169478207Y-52612293D01*
X169364224Y-52835998D01*
X169216650Y-53039117D01*
X169039117Y-53216650D01*
X168835998Y-53364224D01*
X168612293Y-53478207D01*
X168373513Y-53555792D01*
X168125535Y-53595068D01*
X167874465Y-53595068D01*
X167626487Y-53555792D01*
X167387707Y-53478207D01*
X167164002Y-53364224D01*
X166960883Y-53216650D01*
X166783350Y-53039117D01*
X166635776Y-52835998D01*
X166521793Y-52612293D01*
X166444208Y-52373513D01*
X166404932Y-52125535D01*
X166404932Y-51874465D01*
X166444208Y-51626487D01*
X166521793Y-51387707D01*
X166635776Y-51164002D01*
X166783350Y-50960883D01*
X166960883Y-50783350D01*
X167164002Y-50635776D01*
X167387707Y-50521793D01*
X167626487Y-50444208D01*
X167874465Y-50404932D01*
X168125535Y-50404932D01*
X168373513Y-50444208D01*
G37*
M02*
