%TF.GenerationSoftware,KiCad,Pcbnew,10.0.5*%
%TF.CreationDate,2026-09-14T01:27:43-07:00*%
%TF.ProjectId,controller,636f6e74-726f-46c6-9c65-722e6b696361,rev?*%
%TF.SameCoordinates,Original*%
%TF.FileFunction,Copper,L3,Inr*%
%TF.FilePolarity,Positive*%
%FSLAX46Y46*%
G04 Gerber Fmt 4.6, Leading zero omitted, Abs format (unit mm)*
G04 Created by KiCad (PCBNEW 10.0.5) date 2026-09-14 01:27:43*
%MOMM*%
%LPD*%
G01*
G04 APERTURE LIST*
G04 Aperture macros list*
%AMRoundRect*
0 Rectangle with rounded corners*
0 $1 Rounding radius*
0 $2 $3 $4 $5 $6 $7 $8 $9 X,Y pos of 4 corners*
0 Add a 4 corners polygon primitive as box body*
4,1,4,$2,$3,$4,$5,$6,$7,$8,$9,$2,$3,0*
0 Add four circle primitives for the rounded corners*
1,1,$1+$1,$2,$3*
1,1,$1+$1,$4,$5*
1,1,$1+$1,$6,$7*
1,1,$1+$1,$8,$9*
0 Add four rect primitives between the rounded corners*
20,1,$1+$1,$2,$3,$4,$5,0*
20,1,$1+$1,$4,$5,$6,$7,0*
20,1,$1+$1,$6,$7,$8,$9,0*
20,1,$1+$1,$8,$9,$2,$3,0*%
G04 Aperture macros list end*
%TA.AperFunction,ComponentPad*%
%ADD10RoundRect,0.250000X-0.500000X-0.500000X0.500000X-0.500000X0.500000X0.500000X-0.500000X0.500000X0*%
%TD*%
%TA.AperFunction,ComponentPad*%
%ADD11C,1.500000*%
%TD*%
%TA.AperFunction,ComponentPad*%
%ADD12C,2.000000*%
%TD*%
%TA.AperFunction,ComponentPad*%
%ADD13O,1.000000X2.100000*%
%TD*%
%TA.AperFunction,ComponentPad*%
%ADD14O,1.000000X1.800000*%
%TD*%
%TA.AperFunction,ComponentPad*%
%ADD15R,1.800000X1.800000*%
%TD*%
%TA.AperFunction,ComponentPad*%
%ADD16C,1.800000*%
%TD*%
%TA.AperFunction,ComponentPad*%
%ADD17RoundRect,0.250000X-0.500000X-0.760000X0.500000X-0.760000X0.500000X0.760000X-0.500000X0.760000X0*%
%TD*%
%TA.AperFunction,ComponentPad*%
%ADD18O,1.500000X2.020000*%
%TD*%
%TA.AperFunction,ComponentPad*%
%ADD19RoundRect,0.250000X-0.600000X-0.750000X0.600000X-0.750000X0.600000X0.750000X-0.600000X0.750000X0*%
%TD*%
%TA.AperFunction,ComponentPad*%
%ADD20O,1.700000X2.000000*%
%TD*%
%TA.AperFunction,ComponentPad*%
%ADD21RoundRect,0.250000X-0.500000X0.500000X-0.500000X-0.500000X0.500000X-0.500000X0.500000X0.500000X0*%
%TD*%
%TA.AperFunction,ComponentPad*%
%ADD22RoundRect,0.250000X0.500000X0.500000X-0.500000X0.500000X-0.500000X-0.500000X0.500000X-0.500000X0*%
%TD*%
%TA.AperFunction,ViaPad*%
%ADD23C,0.600000*%
%TD*%
%TA.AperFunction,ViaPad*%
%ADD24C,0.450000*%
%TD*%
%TA.AperFunction,Conductor*%
%ADD25C,1.000000*%
%TD*%
%TA.AperFunction,Conductor*%
%ADD26C,0.250000*%
%TD*%
G04 APERTURE END LIST*
D10*
%TO.N,V5_RESERVOIR*%
%TO.C,J5*%
X56000000Y-59000000D03*
D11*
%TO.N,RESERVOIR_SDA_CABLE*%
X59000000Y-59000000D03*
%TO.N,RESERVOIR_SCL_CABLE*%
X62000000Y-59000000D03*
%TO.N,GND*%
X56000000Y-62000000D03*
X59000000Y-62000000D03*
X62000000Y-62000000D03*
%TD*%
D12*
%TO.N,MAINTENANCE_N*%
%TO.C,SW1*%
X124000000Y-126000000D03*
X130500000Y-126000000D03*
%TO.N,GND*%
X124000000Y-130500000D03*
X130500000Y-130500000D03*
%TD*%
%TO.N,BOOT_N*%
%TO.C,SW2*%
X124000000Y-114000000D03*
X130500000Y-114000000D03*
%TO.N,GND*%
X124000000Y-118500000D03*
X130500000Y-118500000D03*
%TD*%
D13*
%TO.N,GND*%
%TO.C,J4*%
X106680000Y-148220000D03*
D14*
X106680000Y-152400000D03*
D13*
X115320000Y-148220000D03*
D14*
X115320000Y-152400000D03*
%TD*%
D15*
%TO.N,GND*%
%TO.C,D4*%
X124000000Y-86000000D03*
D16*
%TO.N,LED_ANODE*%
X126540000Y-86000000D03*
%TD*%
D12*
%TO.N,RESET_CONTACT*%
%TO.C,SW3*%
X124000000Y-102000000D03*
X130500000Y-102000000D03*
%TO.N,GND*%
X124000000Y-106500000D03*
X130500000Y-106500000D03*
%TD*%
D17*
%TO.N,V5_PSU*%
%TO.C,J1*%
X71000000Y-59000000D03*
D18*
%TO.N,GND*%
X74000000Y-59000000D03*
%TO.N,COIL_DRAIN*%
X77000000Y-59000000D03*
%TD*%
D10*
%TO.N,V5_SENSOR*%
%TO.C,J3*%
X86000000Y-59000000D03*
D11*
%TO.N,SDA_CABLE*%
X89000000Y-59000000D03*
%TO.N,SCL_CABLE*%
X92000000Y-59000000D03*
%TO.N,GND*%
X86000000Y-62000000D03*
X89000000Y-62000000D03*
X92000000Y-62000000D03*
%TD*%
D19*
%TO.N,V5_SERVICE*%
%TO.C,J2*%
X79000000Y-141000000D03*
D20*
%TO.N,GND*%
X81500000Y-141000000D03*
%TD*%
D21*
%TO.N,V12_PUMP*%
%TO.C,J9*%
X164000000Y-99000000D03*
D11*
%TO.N,DECHLOR_DRAIN*%
X161000000Y-99000000D03*
%TD*%
D21*
%TO.N,V12_PUMP*%
%TO.C,J8*%
X164000000Y-117000000D03*
D11*
%TO.N,CHLORINE_DRAIN*%
X161000000Y-117000000D03*
%TD*%
D22*
%TO.N,V12_PUMP*%
%TO.C,J6*%
X56000000Y-141000000D03*
D11*
%TO.N,GND*%
X56000000Y-138000000D03*
%TD*%
D21*
%TO.N,V12_PUMP*%
%TO.C,J7*%
X164000000Y-135000000D03*
D11*
%TO.N,TRANSFER_DRAIN*%
X161000000Y-135000000D03*
%TD*%
D23*
%TO.N,V5_SERVICE*%
X78000000Y-112000000D03*
X77000000Y-111000000D03*
%TO.N,GND*%
X157000000Y-136200000D03*
X157000000Y-137000000D03*
X111000000Y-143000000D03*
X52600000Y-80200000D03*
X157000000Y-100200000D03*
X82300000Y-96600000D03*
X97400000Y-98900000D03*
D24*
X118070000Y-52835000D03*
D23*
X88400000Y-82400000D03*
X74700000Y-100800000D03*
X81600000Y-98900000D03*
X81600000Y-98100000D03*
X80700000Y-100800000D03*
X80700000Y-102000000D03*
X157000000Y-117400000D03*
X76000000Y-87600000D03*
X97400000Y-94400000D03*
X80200000Y-79200000D03*
X82300000Y-95800000D03*
D24*
X118070000Y-51585000D03*
D23*
X123000000Y-52600000D03*
X97400000Y-95600000D03*
X157000000Y-135399999D03*
D24*
X119320000Y-52835000D03*
D23*
X157000000Y-99400000D03*
X74700000Y-102000000D03*
X97400000Y-100100000D03*
X157000000Y-101000000D03*
D24*
X119320000Y-51585000D03*
D23*
X157000000Y-119000000D03*
X157000000Y-118200000D03*
X123000000Y-51600000D03*
%TO.N,RESERVOIR_SCL_CABLE*%
X56000000Y-65600000D03*
X56606587Y-72406587D03*
%TO.N,V3V3*%
X134150000Y-63100000D03*
X77500000Y-94000000D03*
X106500000Y-54000000D03*
X90250000Y-88500000D03*
X106500000Y-58000000D03*
X93050000Y-97250000D03*
X104750000Y-82750000D03*
X71000000Y-82750000D03*
X106500000Y-49500000D03*
X118750000Y-137250000D03*
X104000000Y-77500000D03*
X95500000Y-110000000D03*
X90250000Y-89500000D03*
X55750000Y-82750000D03*
X106500000Y-60500000D03*
X107000000Y-135000000D03*
X78000000Y-73750000D03*
X60000000Y-77500000D03*
%TO.N,RESERVOIR_SDA*%
X56800000Y-78800000D03*
X113800000Y-52800000D03*
%TO.N,SENSOR_POWER_EN*%
X125800000Y-56800000D03*
X89000000Y-83000000D03*
%TO.N,SENSOR_POWER_FAULT_N*%
X124400000Y-57375000D03*
X89000000Y-81400000D03*
X90400000Y-84200000D03*
%TO.N,V5_SENSOR_SW*%
X84200000Y-84800000D03*
X53000000Y-86400000D03*
%TO.N,SENSOR_BUS_EN*%
X63400000Y-85600000D03*
X100187500Y-80587500D03*
X80600000Y-85600000D03*
X58380913Y-80580913D03*
X115406587Y-57406587D03*
%TO.N,SENSOR_SDA*%
X110600000Y-75800000D03*
X104800000Y-81000000D03*
%TO.N,SENSOR_SCL*%
X105101992Y-79698008D03*
X109800000Y-75000000D03*
%TO.N,ACCESSORY_INPUT1*%
X117000000Y-58600000D03*
X92000000Y-147800000D03*
%TO.N,MAINTENANCE_N*%
X113750000Y-64250000D03*
%TO.N,CHIP_EN*%
X67000000Y-81000000D03*
X109000000Y-55600000D03*
%TO.N,RELAY_GATED*%
X98000000Y-115000000D03*
X94600000Y-111600000D03*
%TO.N,USB_VBUS*%
X118800000Y-143000000D03*
X110996526Y-149059016D03*
X111000000Y-140400000D03*
%TO.N,USB_D_PORT_N*%
X111400000Y-145400000D03*
X110400000Y-146400000D03*
%TO.N,USB_D_SWITCH_N*%
X112200000Y-131200000D03*
X110000000Y-64500000D03*
%TO.N,ACCESSORY_INPUT2*%
X116206587Y-58625000D03*
X99800000Y-147200000D03*
%TO.N,RELAY_REQUEST*%
X104200000Y-61200000D03*
X80344497Y-74744497D03*
%TO.N,PSU_GOOD*%
X72000000Y-84225000D03*
X89200000Y-115600000D03*
X126400000Y-58000000D03*
X80453248Y-77546752D03*
%TO.N,RESERVOIR_SCL*%
X56793413Y-77993413D03*
X113800000Y-54200000D03*
%TO.N,RESET_CONTACT*%
X104925000Y-69600000D03*
X104925000Y-56800000D03*
%TO.N,LED_ANODE*%
X134000000Y-58000000D03*
X132425000Y-65194087D03*
%TO.N,USB_D_SWITCH_P*%
X111400000Y-131200000D03*
X107800000Y-67000000D03*
%TD*%
%TO.N,V3V3*%
D25*
X90250000Y-89500000D02*
X90250000Y-88500000D01*
X90250000Y-110000000D02*
X95500000Y-110000000D01*
X90250000Y-89500000D02*
X90250000Y-94000000D01*
X107000000Y-135000000D02*
X116500000Y-135000000D01*
X90250000Y-118250000D02*
X107000000Y-135000000D01*
X90250000Y-110000000D02*
X90250000Y-118250000D01*
X106500000Y-69750000D02*
X106500000Y-60500000D01*
X106500000Y-69750000D02*
X113150000Y-63100000D01*
X90250000Y-97250000D02*
X90250000Y-110000000D01*
X90250000Y-94000000D02*
X77500000Y-94000000D01*
X65250000Y-82750000D02*
X60000000Y-77500000D01*
X90250000Y-94000000D02*
X90250000Y-97250000D01*
X90250000Y-86000000D02*
X92875000Y-83375000D01*
X98750000Y-77500000D02*
X104000000Y-77500000D01*
X87000000Y-82750000D02*
X78000000Y-73750000D01*
X90250000Y-88500000D02*
X90250000Y-86000000D01*
X87000000Y-82750000D02*
X71000000Y-82750000D01*
X98375000Y-77875000D02*
X98750000Y-77500000D01*
X90250000Y-97250000D02*
X93050000Y-97250000D01*
X116500000Y-135000000D02*
X118750000Y-137250000D01*
X65250000Y-82750000D02*
X55750000Y-82750000D01*
X92875000Y-83375000D02*
X98375000Y-77875000D01*
X93500000Y-82750000D02*
X104750000Y-82750000D01*
X71000000Y-82750000D02*
X65250000Y-82750000D01*
X92875000Y-83375000D02*
X93500000Y-82750000D01*
X106500000Y-58000000D02*
X106500000Y-54000000D01*
X113150000Y-63100000D02*
X134150000Y-63100000D01*
X98375000Y-77875000D02*
X106500000Y-69750000D01*
X106500000Y-60500000D02*
X106500000Y-58000000D01*
X90250000Y-86000000D02*
X87000000Y-82750000D01*
X106500000Y-54000000D02*
X106500000Y-49500000D01*
%TO.N,SENSOR_POWER_FAULT_N*%
D26*
X89000000Y-81400000D02*
X90400000Y-82800000D01*
X90400000Y-82800000D02*
X90400000Y-84200000D01*
%TO.N,V5_SENSOR_SW*%
X54600000Y-84800000D02*
X53000000Y-86400000D01*
X84200000Y-84800000D02*
X54600000Y-84800000D01*
%TO.N,SENSOR_BUS_EN*%
X80600000Y-85600000D02*
X63400000Y-85600000D01*
%TO.N,SENSOR_SDA*%
X110000000Y-75800000D02*
X110600000Y-75800000D01*
X104800000Y-81000000D02*
X110000000Y-75800000D01*
%TO.N,MAINTENANCE_N*%
X113750000Y-115750000D02*
X124000000Y-126000000D01*
X124000000Y-126000000D02*
X130500000Y-126000000D01*
X113750000Y-64250000D02*
X113750000Y-115750000D01*
%TO.N,RESET_CONTACT*%
X104925000Y-69600000D02*
X104925000Y-56800000D01*
%TD*%
M02*
