%TF.GenerationSoftware,KiCad,Pcbnew,10.0.5*%
%TF.CreationDate,2026-09-14T01:27:47-07:00*%
%TF.ProjectId,sensor,73656e73-6f72-42e6-9b69-6361645f7063,rev?*%
%TF.SameCoordinates,Original*%
%TF.FileFunction,Copper,L1,Top*%
%TF.FilePolarity,Positive*%
%FSLAX46Y46*%
G04 Gerber Fmt 4.6, Leading zero omitted, Abs format (unit mm)*
G04 Created by KiCad (PCBNEW 10.0.5) date 2026-09-14 01:27:47*
%MOMM*%
%LPD*%
G01*
G04 APERTURE LIST*
G04 Aperture macros list*
%AMRoundRect*
0 Rectangle with rounded corners*
0 $1 Rounding radius*
0 $2 $3 $4 $5 $6 $7 $8 $9 X,Y pos of 4 corners*
0 Add a 4 corners polygon primitive as box body*
4,1,4,$2,$3,$4,$5,$6,$7,$8,$9,$2,$3,0*
0 Add four circle primitives for the rounded corners*
1,1,$1+$1,$2,$3*
1,1,$1+$1,$4,$5*
1,1,$1+$1,$6,$7*
1,1,$1+$1,$8,$9*
0 Add four rect primitives between the rounded corners*
20,1,$1+$1,$2,$3,$4,$5,0*
20,1,$1+$1,$4,$5,$6,$7,0*
20,1,$1+$1,$6,$7,$8,$9,0*
20,1,$1+$1,$8,$9,$2,$3,0*%
G04 Aperture macros list end*
%TA.AperFunction,SMDPad,CuDef*%
%ADD10R,0.650000X0.900000*%
%TD*%
%TA.AperFunction,SMDPad,CuDef*%
%ADD11R,3.000000X2.000000*%
%TD*%
%TA.AperFunction,SMDPad,CuDef*%
%ADD12R,1.050000X0.800000*%
%TD*%
%TA.AperFunction,SMDPad,CuDef*%
%ADD13R,0.700000X0.700000*%
%TD*%
%TA.AperFunction,SMDPad,CuDef*%
%ADD14R,1.620000X2.180000*%
%TD*%
%TA.AperFunction,SMDPad,CuDef*%
%ADD15R,1.350000X1.100000*%
%TD*%
%TA.AperFunction,SMDPad,CuDef*%
%ADD16RoundRect,0.050000X-0.675000X-0.100000X0.675000X-0.100000X0.675000X0.100000X-0.675000X0.100000X0*%
%TD*%
%TA.AperFunction,SMDPad,CuDef*%
%ADD17R,0.900000X0.650000*%
%TD*%
%TA.AperFunction,SMDPad,CuDef*%
%ADD18RoundRect,0.050000X-0.500000X-0.250000X0.500000X-0.250000X0.500000X0.250000X-0.500000X0.250000X0*%
%TD*%
%TA.AperFunction,ViaPad*%
%ADD19C,0.450000*%
%TD*%
%TA.AperFunction,ViaPad*%
%ADD20C,0.600000*%
%TD*%
%TA.AperFunction,Conductor*%
%ADD21C,0.200000*%
%TD*%
%TA.AperFunction,Conductor*%
%ADD22C,0.150000*%
%TD*%
G04 APERTURE END LIST*
D10*
%TO.P,R5,1*%
%TO.N,V5_SENSOR*%
X97275000Y-81000000D03*
%TO.P,R5,2*%
%TO.N,GND*%
X98725000Y-81000000D03*
%TD*%
D11*
%TO.P,J1,1*%
%TO.N,V5_SENSOR*%
X93500000Y-69500000D03*
%TO.P,J1,2*%
%TO.N,SDA_CABLE*%
X93500000Y-72500000D03*
%TO.P,J1,3*%
%TO.N,SCL_CABLE*%
X93500000Y-75500000D03*
%TO.P,J1,4*%
%TO.N,GND*%
X93500000Y-78500000D03*
%TO.P,J1,5*%
X93500000Y-81500000D03*
%TO.P,J1,6*%
X93500000Y-84500000D03*
%TD*%
D12*
%TO.P,C4,1*%
%TO.N,V3V3_SENSOR*%
X106500000Y-88925000D03*
%TO.P,C4,2*%
%TO.N,GND*%
X106500000Y-87075000D03*
%TD*%
D10*
%TO.P,R6,1*%
%TO.N,V3V3_SENSOR*%
X105775000Y-81000000D03*
%TO.P,R6,2*%
%TO.N,GND*%
X107225000Y-81000000D03*
%TD*%
D13*
%TO.P,C3,1*%
%TO.N,V3V3_SENSOR*%
X106750000Y-92700000D03*
%TO.P,C3,2*%
%TO.N,GND*%
X106750000Y-91300000D03*
%TD*%
D14*
%TO.P,D2,1*%
%TO.N,V5_SENSOR*%
X99890000Y-71000000D03*
%TO.P,D2,2*%
%TO.N,V3V3_SENSOR*%
X104110000Y-71000000D03*
%TD*%
D15*
%TO.P,C1,1*%
%TO.N,V5_SENSOR*%
X98000000Y-78650000D03*
%TO.P,C1,2*%
%TO.N,GND*%
X98000000Y-75350000D03*
%TD*%
D16*
%TO.P,U1,1*%
%TO.N,SHLD1*%
X99800000Y-91000000D03*
%TO.P,U1,2*%
%TO.N,CIN_LEVEL*%
X99800000Y-91500000D03*
%TO.P,U1,3*%
%TO.N,CIN_RL*%
X99800000Y-92000000D03*
%TO.P,U1,4*%
%TO.N,unconnected-(U1-CIN3-Pad4)*%
X99800000Y-92500000D03*
%TO.P,U1,5*%
%TO.N,unconnected-(U1-CIN4-Pad5)*%
X99800000Y-93000000D03*
%TO.P,U1,6*%
%TO.N,SHLD2*%
X104200000Y-93000000D03*
%TO.P,U1,7*%
%TO.N,GND*%
X104200000Y-92500000D03*
%TO.P,U1,8*%
%TO.N,V3V3_SENSOR*%
X104200000Y-92000000D03*
%TO.P,U1,9*%
%TO.N,I2C_SDA*%
X104200000Y-91500000D03*
%TO.P,U1,10*%
%TO.N,I2C_SCL*%
X104200000Y-91000000D03*
%TD*%
D17*
%TO.P,R4,1*%
%TO.N,V3V3_SENSOR*%
X106500000Y-84725000D03*
%TO.P,R4,2*%
%TO.N,I2C_SCL*%
X106500000Y-83275000D03*
%TD*%
D10*
%TO.P,R1,1*%
%TO.N,SDA_CABLE*%
X95275000Y-90000000D03*
%TO.P,R1,2*%
%TO.N,I2C_SDA*%
X96725000Y-90000000D03*
%TD*%
%TO.P,R3,1*%
%TO.N,V3V3_SENSOR*%
X101275000Y-85000000D03*
%TO.P,R3,2*%
%TO.N,I2C_SDA*%
X102725000Y-85000000D03*
%TD*%
%TO.P,R2,1*%
%TO.N,SCL_CABLE*%
X95275000Y-93000000D03*
%TO.P,R2,2*%
%TO.N,I2C_SCL*%
X96725000Y-93000000D03*
%TD*%
D18*
%TO.P,U2,1*%
%TO.N,V5_SENSOR*%
X100700000Y-76050000D03*
%TO.P,U2,2*%
%TO.N,GND*%
X100700000Y-77000000D03*
%TO.P,U2,3*%
%TO.N,V5_SENSOR*%
X100700000Y-77950000D03*
%TO.P,U2,4*%
%TO.N,GND*%
X103300000Y-77950000D03*
%TO.P,U2,5*%
%TO.N,V3V3_SENSOR*%
X103300000Y-76050000D03*
%TD*%
D15*
%TO.P,C2,1*%
%TO.N,V3V3_SENSOR*%
X106000000Y-78650000D03*
%TO.P,C2,2*%
%TO.N,GND*%
X106000000Y-75350000D03*
%TD*%
D18*
%TO.P,U3,1*%
%TO.N,unconnected-(U3-NC_1-Pad1)*%
X96700000Y-84050000D03*
%TO.P,U3,2*%
%TO.N,GND*%
X96700000Y-85000000D03*
%TO.P,U3,3*%
%TO.N,unconnected-(U3-NC_3-Pad3)*%
X96700000Y-85950000D03*
%TO.P,U3,4*%
%TO.N,SDA_CABLE*%
X99300000Y-85950000D03*
%TO.P,U3,5*%
%TO.N,SCL_CABLE*%
X99300000Y-84050000D03*
%TD*%
D19*
%TO.N,GND*%
X100575000Y-77000000D03*
X100575000Y-101025000D03*
X100575000Y-82000000D03*
X100575000Y-100175000D03*
X100575000Y-89750000D03*
D20*
%TO.N,SHLD1*%
X101000000Y-97000000D03*
D19*
%TO.N,CIN_LEVEL*%
X100600000Y-95000000D03*
%TO.N,CIN_RL*%
X100600000Y-94000000D03*
D20*
%TO.N,SHLD2*%
X99000000Y-97000000D03*
%TD*%
%TO.N,V5_SENSOR*%
D21*
X100700000Y-76050000D02*
X99850000Y-75200000D01*
X99850000Y-71040000D02*
X99850000Y-72750000D01*
X93500000Y-69500000D02*
X98390000Y-69500000D01*
X100150000Y-77950000D02*
X99850000Y-77650000D01*
X99850000Y-76800000D02*
X98000000Y-78650000D01*
X98390000Y-69500000D02*
X99890000Y-71000000D01*
X99850000Y-75200000D02*
X99850000Y-76800000D01*
X100700000Y-77950000D02*
X100150000Y-77950000D01*
X99850000Y-77650000D02*
X99850000Y-76800000D01*
X99850000Y-78425000D02*
X97275000Y-81000000D01*
X99890000Y-71000000D02*
X99850000Y-71040000D01*
X99850000Y-77650000D02*
X99850000Y-78425000D01*
X99850000Y-72750000D02*
X99850000Y-75200000D01*
%TO.N,SDA_CABLE*%
X98267157Y-85517157D02*
X98267157Y-84132843D01*
X99300000Y-85950000D02*
X98700000Y-85950000D01*
X98267157Y-84132843D02*
X96250000Y-82115685D01*
X98267157Y-86517157D02*
X98834314Y-85950000D01*
X98834314Y-85950000D02*
X99300000Y-85950000D01*
X99050000Y-76125001D02*
X99050000Y-74700000D01*
X98700000Y-85950000D02*
X98267157Y-85517157D01*
X96850000Y-72500000D02*
X93500000Y-72500000D01*
X96250000Y-78000000D02*
X98000000Y-76250000D01*
X98925001Y-76250000D02*
X99050000Y-76125001D01*
X95275000Y-89509314D02*
X98267157Y-86517157D01*
X95275000Y-90000000D02*
X95275000Y-89509314D01*
X99050000Y-74700000D02*
X96850000Y-72500000D01*
X98000000Y-76250000D02*
X98925001Y-76250000D01*
X96250000Y-82115685D02*
X96250000Y-78000000D01*
%TO.N,SCL_CABLE*%
X96650000Y-81950000D02*
X96650000Y-78165686D01*
X96650000Y-78165686D02*
X98165686Y-76650000D01*
X98750000Y-84050000D02*
X96650000Y-81950000D01*
X99450000Y-74450000D02*
X96200000Y-71200000D01*
X100150000Y-86346360D02*
X99746360Y-86750000D01*
X99746360Y-86750000D02*
X98600000Y-86750000D01*
X99090686Y-76650000D02*
X99450000Y-76290685D01*
X98165686Y-76650000D02*
X99090686Y-76650000D01*
X91700000Y-73700000D02*
X93500000Y-75500000D01*
X100150000Y-84900000D02*
X100150000Y-86346360D01*
X96000000Y-89350000D02*
X96000000Y-90750000D01*
X91700000Y-71200000D02*
X91700000Y-73700000D01*
X99450000Y-76290685D02*
X99450000Y-74450000D01*
X99300000Y-84050000D02*
X100150000Y-84900000D01*
X95275000Y-93000000D02*
X95275000Y-91475000D01*
X95275000Y-91475000D02*
X96000000Y-90750000D01*
X96200000Y-71200000D02*
X91700000Y-71200000D01*
X98600000Y-86750000D02*
X96000000Y-89350000D01*
X99300000Y-84050000D02*
X98750000Y-84050000D01*
%TO.N,V3V3_SENSOR*%
X106750000Y-92700000D02*
X106228640Y-92700000D01*
X105250000Y-85975000D02*
X106500000Y-84725000D01*
X106500000Y-84725000D02*
X107250000Y-83975000D01*
X104110000Y-71000000D02*
X104110000Y-76000000D01*
X104110000Y-76000000D02*
X104110000Y-76760000D01*
X104425000Y-77075000D02*
X104425000Y-79650000D01*
X104425000Y-77075000D02*
X106000000Y-78650000D01*
X103300000Y-76050000D02*
X104060000Y-76050000D01*
X106500000Y-88925000D02*
X106175000Y-88925000D01*
X104200000Y-92000000D02*
X104971360Y-92000000D01*
X107250000Y-83975000D02*
X107250000Y-82475000D01*
X104110000Y-76760000D02*
X104425000Y-77075000D01*
X105250000Y-88000000D02*
X105250000Y-85975000D01*
X104425000Y-79650000D02*
X105775000Y-81000000D01*
X104425000Y-81850000D02*
X101275000Y-85000000D01*
X104425000Y-79750000D02*
X104425000Y-81850000D01*
X106228640Y-92700000D02*
X105250000Y-91721360D01*
X104971360Y-92000000D02*
X105250000Y-91721360D01*
X106175000Y-88925000D02*
X105250000Y-88000000D01*
X104060000Y-76050000D02*
X104110000Y-76000000D01*
X105250000Y-91721360D02*
X105250000Y-88000000D01*
X104425000Y-79650000D02*
X104425000Y-79750000D01*
X107250000Y-82475000D02*
X105775000Y-81000000D01*
%TO.N,SHLD1*%
D22*
X101000000Y-96284534D02*
X101000000Y-97000000D01*
X98200000Y-93484534D02*
X101000000Y-96284534D01*
X99134706Y-91000000D02*
X98200000Y-91934706D01*
X99800000Y-91000000D02*
X99134706Y-91000000D01*
X98200000Y-91934706D02*
X98200000Y-93484534D01*
%TO.N,CIN_LEVEL*%
X99800000Y-91500000D02*
X99075000Y-91500000D01*
X98500000Y-93360270D02*
X100139730Y-95000000D01*
X100139730Y-95000000D02*
X100600000Y-95000000D01*
X98500000Y-92075000D02*
X98500000Y-93360270D01*
X99075000Y-91500000D02*
X98500000Y-92075000D01*
%TO.N,CIN_RL*%
X99800000Y-92000000D02*
X99063994Y-92000000D01*
X98800000Y-93236006D02*
X99563994Y-94000000D01*
X99563994Y-94000000D02*
X100600000Y-94000000D01*
X98800000Y-92263994D02*
X98800000Y-93236006D01*
X99063994Y-92000000D02*
X98800000Y-92263994D01*
%TO.N,SHLD2*%
X99009706Y-90625000D02*
X97900000Y-91734706D01*
X100590294Y-90625000D02*
X99009706Y-90625000D01*
X99000000Y-94750000D02*
X99000000Y-97000000D01*
X97900000Y-91734706D02*
X97900000Y-93650000D01*
X97900000Y-93650000D02*
X99000000Y-94750000D01*
X104200000Y-93000000D02*
X102965294Y-93000000D01*
X102965294Y-93000000D02*
X100590294Y-90625000D01*
%TO.N,I2C_SDA*%
D21*
X100792463Y-89225000D02*
X99879376Y-89225000D01*
X102725000Y-85000000D02*
X97725000Y-90000000D01*
X103067463Y-91500000D02*
X100792463Y-89225000D01*
X97525000Y-91579376D02*
X97525000Y-93575000D01*
X97725000Y-90000000D02*
X96725000Y-90000000D01*
X96100000Y-91873004D02*
X96725000Y-91248004D01*
X99879376Y-89225000D02*
X97525000Y-91579376D01*
X96725000Y-91248004D02*
X96725000Y-90000000D01*
X104200000Y-91500000D02*
X103067463Y-91500000D01*
X97350000Y-93750000D02*
X96100000Y-93750000D01*
X96100000Y-93750000D02*
X96100000Y-91873004D01*
X97525000Y-93575000D02*
X97350000Y-93750000D01*
%TO.N,I2C_SCL*%
X99713690Y-88825000D02*
X96725000Y-91813690D01*
X103133149Y-91000000D02*
X101000000Y-88866852D01*
X96725000Y-91813690D02*
X96725000Y-93000000D01*
X101000000Y-88775000D02*
X101000000Y-88866852D01*
X104200000Y-91000000D02*
X103133149Y-91000000D01*
X100958148Y-88825000D02*
X99713690Y-88825000D01*
X101000000Y-88866852D02*
X100958148Y-88825000D01*
X106500000Y-83275000D02*
X101000000Y-88775000D01*
%TD*%
%TA.AperFunction,Conductor*%
%TO.N,GND*%
G36*
X108442539Y-68520185D02*
G01*
X108488294Y-68572989D01*
X108499500Y-68624500D01*
X108499500Y-131375500D01*
X108479815Y-131442539D01*
X108427011Y-131488294D01*
X108375500Y-131499500D01*
X91624500Y-131499500D01*
X91557461Y-131479815D01*
X91511706Y-131427011D01*
X91500500Y-131375500D01*
X91500500Y-85675321D01*
X95949500Y-85675321D01*
X95949500Y-86224678D01*
X95964032Y-86297735D01*
X95964033Y-86297739D01*
X95964034Y-86297740D01*
X96019399Y-86380601D01*
X96102260Y-86435966D01*
X96102264Y-86435967D01*
X96175321Y-86450499D01*
X96175324Y-86450500D01*
X96175326Y-86450500D01*
X97224676Y-86450500D01*
X97224677Y-86450499D01*
X97297740Y-86435966D01*
X97380601Y-86380601D01*
X97435966Y-86297740D01*
X97450500Y-86224674D01*
X97450500Y-85675326D01*
X97450500Y-85675323D01*
X97450499Y-85675321D01*
X97435967Y-85602264D01*
X97435966Y-85602260D01*
X97430816Y-85594552D01*
X97380601Y-85519399D01*
X97297740Y-85464034D01*
X97297739Y-85464033D01*
X97297735Y-85464032D01*
X97224677Y-85449500D01*
X97224674Y-85449500D01*
X96175326Y-85449500D01*
X96175323Y-85449500D01*
X96102264Y-85464032D01*
X96102260Y-85464033D01*
X96019399Y-85519399D01*
X95964033Y-85602260D01*
X95964032Y-85602264D01*
X95949500Y-85675321D01*
X91500500Y-85675321D01*
X91500500Y-74224833D01*
X91520185Y-74157794D01*
X91572989Y-74112039D01*
X91642147Y-74102095D01*
X91705703Y-74131120D01*
X91712181Y-74137152D01*
X91813541Y-74238512D01*
X91847026Y-74299835D01*
X91842042Y-74369527D01*
X91828964Y-74395082D01*
X91811131Y-74421770D01*
X91799500Y-74480247D01*
X91799500Y-76519752D01*
X91811131Y-76578229D01*
X91811132Y-76578230D01*
X91855447Y-76644552D01*
X91921769Y-76688867D01*
X91921770Y-76688868D01*
X91980247Y-76700499D01*
X91980250Y-76700500D01*
X91980252Y-76700500D01*
X95019750Y-76700500D01*
X95019751Y-76700499D01*
X95034568Y-76697552D01*
X95078229Y-76688868D01*
X95078229Y-76688867D01*
X95078231Y-76688867D01*
X95144552Y-76644552D01*
X95188867Y-76578231D01*
X95188867Y-76578229D01*
X95188868Y-76578229D01*
X95200499Y-76519752D01*
X95200500Y-76519750D01*
X95200500Y-74480249D01*
X95200499Y-74480247D01*
X95188868Y-74421770D01*
X95188867Y-74421769D01*
X95144552Y-74355447D01*
X95078230Y-74311132D01*
X95078229Y-74311131D01*
X95019752Y-74299500D01*
X95019748Y-74299500D01*
X92775833Y-74299500D01*
X92708794Y-74279815D01*
X92688152Y-74263181D01*
X92337152Y-73912181D01*
X92303667Y-73850858D01*
X92308651Y-73781166D01*
X92350523Y-73725233D01*
X92415987Y-73700816D01*
X92424833Y-73700500D01*
X95019750Y-73700500D01*
X95019751Y-73700499D01*
X95034568Y-73697552D01*
X95078229Y-73688868D01*
X95078229Y-73688867D01*
X95078231Y-73688867D01*
X95144552Y-73644552D01*
X95188867Y-73578231D01*
X95188867Y-73578229D01*
X95188868Y-73578229D01*
X95200499Y-73519752D01*
X95200500Y-73519750D01*
X95200500Y-72924500D01*
X95220185Y-72857461D01*
X95272989Y-72811706D01*
X95324500Y-72800500D01*
X96674167Y-72800500D01*
X96741206Y-72820185D01*
X96761848Y-72836819D01*
X98713181Y-74788152D01*
X98746666Y-74849475D01*
X98749500Y-74875833D01*
X98749500Y-75825500D01*
X98729815Y-75892539D01*
X98677011Y-75938294D01*
X98625500Y-75949500D01*
X97960438Y-75949500D01*
X97884010Y-75969978D01*
X97815489Y-76009540D01*
X97815486Y-76009542D01*
X96009541Y-77815487D01*
X96009535Y-77815495D01*
X95969982Y-77884004D01*
X95969979Y-77884009D01*
X95956326Y-77934962D01*
X95949500Y-77960438D01*
X95949500Y-82155247D01*
X95959739Y-82193460D01*
X95969979Y-82231676D01*
X95969981Y-82231679D01*
X96003933Y-82290484D01*
X96003934Y-82290491D01*
X96003937Y-82290490D01*
X96008040Y-82297597D01*
X96009541Y-82300198D01*
X97047162Y-83337819D01*
X97080647Y-83399142D01*
X97075663Y-83468834D01*
X97033791Y-83524767D01*
X96968327Y-83549184D01*
X96959481Y-83549500D01*
X96175323Y-83549500D01*
X96102264Y-83564032D01*
X96102260Y-83564033D01*
X96019399Y-83619399D01*
X95964033Y-83702260D01*
X95964032Y-83702264D01*
X95949500Y-83775321D01*
X95949500Y-84324678D01*
X95964032Y-84397735D01*
X95964033Y-84397739D01*
X95982405Y-84425235D01*
X96019399Y-84480601D01*
X96091335Y-84528666D01*
X96102260Y-84535966D01*
X96102264Y-84535967D01*
X96175321Y-84550499D01*
X96175324Y-84550500D01*
X96175326Y-84550500D01*
X97224676Y-84550500D01*
X97224677Y-84550499D01*
X97297740Y-84535966D01*
X97380601Y-84480601D01*
X97435966Y-84397740D01*
X97450500Y-84324674D01*
X97450500Y-84040518D01*
X97470185Y-83973479D01*
X97522989Y-83927724D01*
X97592147Y-83917780D01*
X97655703Y-83946805D01*
X97662172Y-83952829D01*
X97715047Y-84005703D01*
X97930338Y-84220994D01*
X97963823Y-84282317D01*
X97966657Y-84308675D01*
X97966657Y-85556719D01*
X97976795Y-85594552D01*
X97987136Y-85633148D01*
X97987137Y-85633149D01*
X98011012Y-85674501D01*
X98011013Y-85674502D01*
X98026696Y-85701666D01*
X98026698Y-85701669D01*
X98254505Y-85929476D01*
X98287990Y-85990799D01*
X98283006Y-86060491D01*
X98254505Y-86104838D01*
X95046162Y-89313181D01*
X94984839Y-89346666D01*
X94958481Y-89349500D01*
X94930247Y-89349500D01*
X94871770Y-89361131D01*
X94871769Y-89361132D01*
X94805447Y-89405447D01*
X94761132Y-89471769D01*
X94761131Y-89471770D01*
X94749500Y-89530247D01*
X94749500Y-90469752D01*
X94761131Y-90528229D01*
X94761132Y-90528230D01*
X94805447Y-90594552D01*
X94871769Y-90638867D01*
X94871770Y-90638868D01*
X94930247Y-90650499D01*
X94930250Y-90650500D01*
X95375167Y-90650500D01*
X95442206Y-90670185D01*
X95487961Y-90722989D01*
X95497905Y-90792147D01*
X95468880Y-90855703D01*
X95462848Y-90862181D01*
X95034541Y-91290487D01*
X95034535Y-91290495D01*
X94994982Y-91359004D01*
X94994979Y-91359009D01*
X94974500Y-91435439D01*
X94974500Y-92238934D01*
X94954815Y-92305973D01*
X94902011Y-92351728D01*
X94874691Y-92360551D01*
X94871770Y-92361131D01*
X94871769Y-92361132D01*
X94805447Y-92405447D01*
X94761132Y-92471769D01*
X94761131Y-92471770D01*
X94749500Y-92530247D01*
X94749500Y-93469752D01*
X94761131Y-93528229D01*
X94761132Y-93528230D01*
X94805447Y-93594552D01*
X94871769Y-93638867D01*
X94871770Y-93638868D01*
X94930247Y-93650499D01*
X94930250Y-93650500D01*
X94930252Y-93650500D01*
X95619748Y-93650500D01*
X95651308Y-93644222D01*
X95720898Y-93650448D01*
X95776076Y-93693310D01*
X95799322Y-93759199D01*
X95799500Y-93765839D01*
X95799500Y-93789562D01*
X95810950Y-93832293D01*
X95819979Y-93865990D01*
X95819982Y-93865995D01*
X95859535Y-93934504D01*
X95859539Y-93934509D01*
X95859540Y-93934511D01*
X95915489Y-93990460D01*
X95915491Y-93990461D01*
X95915495Y-93990464D01*
X95984004Y-94030017D01*
X95984011Y-94030021D01*
X96060438Y-94050500D01*
X96060440Y-94050500D01*
X97389560Y-94050500D01*
X97389562Y-94050500D01*
X97465989Y-94030021D01*
X97534511Y-93990460D01*
X97590460Y-93934511D01*
X97604997Y-93919974D01*
X97666320Y-93886489D01*
X97736012Y-93891473D01*
X97780359Y-93919974D01*
X98688181Y-94827796D01*
X98721666Y-94889119D01*
X98724500Y-94915477D01*
X98724500Y-96516324D01*
X98704815Y-96583363D01*
X98688181Y-96604005D01*
X98599502Y-96692683D01*
X98599500Y-96692686D01*
X98533608Y-96806812D01*
X98499500Y-96934108D01*
X98499500Y-97065891D01*
X98533608Y-97193187D01*
X98566554Y-97250250D01*
X98599500Y-97307314D01*
X98692686Y-97400500D01*
X98806814Y-97466392D01*
X98934108Y-97500500D01*
X98934110Y-97500500D01*
X99065890Y-97500500D01*
X99065892Y-97500500D01*
X99193186Y-97466392D01*
X99307314Y-97400500D01*
X99400500Y-97307314D01*
X99466392Y-97193186D01*
X99500500Y-97065892D01*
X99500500Y-96934108D01*
X99466392Y-96806814D01*
X99400500Y-96692686D01*
X99311819Y-96604005D01*
X99278334Y-96542682D01*
X99275500Y-96516324D01*
X99275500Y-95249011D01*
X99295185Y-95181972D01*
X99347989Y-95136217D01*
X99417147Y-95126273D01*
X99480703Y-95155298D01*
X99487181Y-95161330D01*
X100688181Y-96362330D01*
X100721666Y-96423653D01*
X100724500Y-96450011D01*
X100724500Y-96516324D01*
X100704815Y-96583363D01*
X100688181Y-96604005D01*
X100599502Y-96692683D01*
X100599500Y-96692686D01*
X100533608Y-96806812D01*
X100499500Y-96934108D01*
X100499500Y-97065891D01*
X100533608Y-97193187D01*
X100566554Y-97250250D01*
X100599500Y-97307314D01*
X100692686Y-97400500D01*
X100806814Y-97466392D01*
X100934108Y-97500500D01*
X100934110Y-97500500D01*
X101065890Y-97500500D01*
X101065892Y-97500500D01*
X101193186Y-97466392D01*
X101307314Y-97400500D01*
X101400500Y-97307314D01*
X101466392Y-97193186D01*
X101500500Y-97065892D01*
X101500500Y-96934108D01*
X101466392Y-96806814D01*
X101400500Y-96692686D01*
X101311819Y-96604005D01*
X101278334Y-96542682D01*
X101275500Y-96516324D01*
X101275500Y-96229735D01*
X101275500Y-96229734D01*
X101233557Y-96128476D01*
X101156058Y-96050977D01*
X100708957Y-95603876D01*
X100675472Y-95542553D01*
X100680456Y-95472861D01*
X100722328Y-95416928D01*
X100756938Y-95400115D01*
X100756730Y-95399612D01*
X100764228Y-95396505D01*
X100764237Y-95396503D01*
X100861263Y-95340485D01*
X100940485Y-95261263D01*
X100996503Y-95164237D01*
X101025500Y-95056018D01*
X101025500Y-94943982D01*
X100996503Y-94835763D01*
X100940485Y-94738737D01*
X100861263Y-94659515D01*
X100770973Y-94607386D01*
X100722759Y-94556820D01*
X100709535Y-94488213D01*
X100735503Y-94423349D01*
X100770972Y-94392614D01*
X100861263Y-94340485D01*
X100940485Y-94261263D01*
X100996503Y-94164237D01*
X101025500Y-94056018D01*
X101025500Y-93943982D01*
X100996503Y-93835763D01*
X100940485Y-93738737D01*
X100861263Y-93659515D01*
X100764237Y-93603497D01*
X100656018Y-93574500D01*
X100543982Y-93574500D01*
X100462335Y-93596376D01*
X100462335Y-93596377D01*
X100435763Y-93603497D01*
X100435760Y-93603498D01*
X100338740Y-93659513D01*
X100338734Y-93659517D01*
X100310071Y-93688181D01*
X100248748Y-93721666D01*
X100222390Y-93724500D01*
X99729472Y-93724500D01*
X99662433Y-93704815D01*
X99641791Y-93688181D01*
X99515791Y-93562181D01*
X99482306Y-93500858D01*
X99487290Y-93431166D01*
X99529162Y-93375233D01*
X99594626Y-93350816D01*
X99603472Y-93350500D01*
X100429954Y-93350500D01*
X100499674Y-93350500D01*
X100572740Y-93335966D01*
X100655601Y-93280601D01*
X100710966Y-93197740D01*
X100725500Y-93124674D01*
X100725500Y-92875326D01*
X100725500Y-92875323D01*
X100725499Y-92875321D01*
X100710968Y-92802267D01*
X100710966Y-92802264D01*
X100710966Y-92802260D01*
X100710963Y-92802256D01*
X100708977Y-92797461D01*
X100701504Y-92727992D01*
X100708977Y-92702539D01*
X100710962Y-92697745D01*
X100710966Y-92697740D01*
X100712868Y-92688181D01*
X100725499Y-92624678D01*
X100725500Y-92624676D01*
X100725500Y-92375323D01*
X100725499Y-92375321D01*
X100710968Y-92302267D01*
X100710966Y-92302264D01*
X100710966Y-92302260D01*
X100710963Y-92302256D01*
X100708977Y-92297461D01*
X100701504Y-92227992D01*
X100708977Y-92202539D01*
X100710962Y-92197745D01*
X100710966Y-92197740D01*
X100712524Y-92189911D01*
X100725499Y-92124678D01*
X100725500Y-92124676D01*
X100725500Y-91875323D01*
X100725499Y-91875321D01*
X100710968Y-91802267D01*
X100710966Y-91802264D01*
X100710966Y-91802260D01*
X100710963Y-91802256D01*
X100708977Y-91797461D01*
X100701504Y-91727992D01*
X100708977Y-91702539D01*
X100710962Y-91697745D01*
X100710966Y-91697740D01*
X100712805Y-91688499D01*
X100723802Y-91633208D01*
X100725500Y-91624674D01*
X100725500Y-91449183D01*
X100745185Y-91382144D01*
X100797989Y-91336389D01*
X100867147Y-91326445D01*
X100930703Y-91355470D01*
X100937179Y-91361500D01*
X102809235Y-93233557D01*
X102809240Y-93233559D01*
X102822056Y-93238868D01*
X102822057Y-93238868D01*
X102910491Y-93275499D01*
X102910492Y-93275499D01*
X102910494Y-93275500D01*
X103299150Y-93275500D01*
X103366189Y-93295185D01*
X103368040Y-93296397D01*
X103427260Y-93335966D01*
X103427264Y-93335967D01*
X103500321Y-93350499D01*
X103500324Y-93350500D01*
X103500326Y-93350500D01*
X104899676Y-93350500D01*
X104899677Y-93350499D01*
X104972740Y-93335966D01*
X105055601Y-93280601D01*
X105110966Y-93197740D01*
X105125500Y-93124674D01*
X105125500Y-92875326D01*
X105125500Y-92875323D01*
X105125499Y-92875321D01*
X105110967Y-92802264D01*
X105110966Y-92802260D01*
X105107759Y-92797461D01*
X105055601Y-92719399D01*
X104972740Y-92664034D01*
X104972739Y-92664033D01*
X104972735Y-92664032D01*
X104899677Y-92649500D01*
X104899674Y-92649500D01*
X103500326Y-92649500D01*
X103500323Y-92649500D01*
X103427264Y-92664032D01*
X103427260Y-92664033D01*
X103368040Y-92703603D01*
X103301362Y-92724480D01*
X103299150Y-92724500D01*
X103130772Y-92724500D01*
X103063733Y-92704815D01*
X103043091Y-92688181D01*
X100746353Y-90391444D01*
X100746352Y-90391443D01*
X100645094Y-90349500D01*
X99479209Y-90349500D01*
X99412170Y-90329815D01*
X99366415Y-90277011D01*
X99356471Y-90207853D01*
X99385496Y-90144297D01*
X99391528Y-90137819D01*
X99967528Y-89561819D01*
X100028851Y-89528334D01*
X100055209Y-89525500D01*
X100616630Y-89525500D01*
X100683669Y-89545185D01*
X100704311Y-89561819D01*
X102827003Y-91684511D01*
X102882952Y-91740460D01*
X102882954Y-91740461D01*
X102882958Y-91740464D01*
X102951467Y-91780017D01*
X102951474Y-91780021D01*
X103027901Y-91800500D01*
X103150500Y-91800500D01*
X103217539Y-91820185D01*
X103263294Y-91872989D01*
X103274500Y-91924500D01*
X103274500Y-92124678D01*
X103289032Y-92197735D01*
X103289033Y-92197739D01*
X103294184Y-92205448D01*
X103344399Y-92280601D01*
X103381230Y-92305210D01*
X103427260Y-92335966D01*
X103427264Y-92335967D01*
X103500321Y-92350499D01*
X103500324Y-92350500D01*
X103500326Y-92350500D01*
X104899676Y-92350500D01*
X104899677Y-92350499D01*
X104972740Y-92335966D01*
X105018771Y-92305208D01*
X105055565Y-92288537D01*
X105087349Y-92280021D01*
X105116436Y-92263228D01*
X105155864Y-92240464D01*
X105155863Y-92240464D01*
X105155871Y-92240460D01*
X105162319Y-92234012D01*
X105223642Y-92200527D01*
X105293334Y-92205511D01*
X105337681Y-92234012D01*
X105988180Y-92884511D01*
X106044129Y-92940460D01*
X106044131Y-92940461D01*
X106044135Y-92940464D01*
X106112644Y-92980017D01*
X106112651Y-92980021D01*
X106112658Y-92980023D01*
X106120158Y-92983130D01*
X106119492Y-92984736D01*
X106170716Y-93015958D01*
X106200579Y-93075177D01*
X106211131Y-93128229D01*
X106211132Y-93128230D01*
X106255447Y-93194552D01*
X106321769Y-93238867D01*
X106321770Y-93238868D01*
X106380247Y-93250499D01*
X106380250Y-93250500D01*
X106380252Y-93250500D01*
X107119750Y-93250500D01*
X107119751Y-93250499D01*
X107134568Y-93247552D01*
X107178229Y-93238868D01*
X107178229Y-93238867D01*
X107178231Y-93238867D01*
X107244552Y-93194552D01*
X107288867Y-93128231D01*
X107288867Y-93128229D01*
X107288868Y-93128229D01*
X107300499Y-93069752D01*
X107300500Y-93069750D01*
X107300500Y-92330249D01*
X107300499Y-92330247D01*
X107288868Y-92271770D01*
X107288867Y-92271769D01*
X107244552Y-92205447D01*
X107178230Y-92161132D01*
X107178229Y-92161131D01*
X107119752Y-92149500D01*
X107119748Y-92149500D01*
X106380252Y-92149500D01*
X106380247Y-92149500D01*
X106321770Y-92161131D01*
X106321770Y-92161132D01*
X106282279Y-92187519D01*
X106215602Y-92208396D01*
X106148222Y-92189911D01*
X106125708Y-92172097D01*
X105586819Y-91633208D01*
X105553334Y-91571885D01*
X105550500Y-91545527D01*
X105550500Y-89457752D01*
X105570185Y-89390713D01*
X105622989Y-89344958D01*
X105692147Y-89335014D01*
X105755703Y-89364039D01*
X105777520Y-89394297D01*
X105779348Y-89393077D01*
X105830447Y-89469552D01*
X105896769Y-89513867D01*
X105896770Y-89513868D01*
X105955247Y-89525499D01*
X105955250Y-89525500D01*
X105955252Y-89525500D01*
X107044750Y-89525500D01*
X107044751Y-89525499D01*
X107059568Y-89522552D01*
X107103229Y-89513868D01*
X107103229Y-89513867D01*
X107103231Y-89513867D01*
X107169552Y-89469552D01*
X107213867Y-89403231D01*
X107213867Y-89403229D01*
X107213868Y-89403229D01*
X107225499Y-89344752D01*
X107225500Y-89344750D01*
X107225500Y-88505249D01*
X107225499Y-88505247D01*
X107213868Y-88446770D01*
X107213867Y-88446769D01*
X107169552Y-88380447D01*
X107103230Y-88336132D01*
X107103229Y-88336131D01*
X107044752Y-88324500D01*
X107044748Y-88324500D01*
X106050833Y-88324500D01*
X105983794Y-88304815D01*
X105963152Y-88288181D01*
X105586819Y-87911848D01*
X105553334Y-87850525D01*
X105550500Y-87824167D01*
X105550500Y-86150833D01*
X105570185Y-86083794D01*
X105586819Y-86063152D01*
X106363152Y-85286819D01*
X106424475Y-85253334D01*
X106450833Y-85250500D01*
X106969750Y-85250500D01*
X106969751Y-85250499D01*
X106984568Y-85247552D01*
X107028229Y-85238868D01*
X107028229Y-85238867D01*
X107028231Y-85238867D01*
X107094552Y-85194552D01*
X107138867Y-85128231D01*
X107138867Y-85128229D01*
X107138868Y-85128229D01*
X107147552Y-85084568D01*
X107150500Y-85069748D01*
X107150500Y-84550833D01*
X107170185Y-84483794D01*
X107186819Y-84463152D01*
X107336790Y-84313181D01*
X107490460Y-84159511D01*
X107530021Y-84090989D01*
X107550500Y-84014562D01*
X107550500Y-82435438D01*
X107530021Y-82359011D01*
X107530017Y-82359004D01*
X107490464Y-82290495D01*
X107490461Y-82290491D01*
X107490460Y-82290489D01*
X107434511Y-82234540D01*
X106336819Y-81136848D01*
X106303334Y-81075525D01*
X106300500Y-81049167D01*
X106300500Y-80530249D01*
X106300499Y-80530247D01*
X106288868Y-80471770D01*
X106288867Y-80471769D01*
X106244552Y-80405447D01*
X106178230Y-80361132D01*
X106178229Y-80361131D01*
X106119752Y-80349500D01*
X106119748Y-80349500D01*
X105600833Y-80349500D01*
X105533794Y-80329815D01*
X105513152Y-80313181D01*
X104761819Y-79561848D01*
X104728334Y-79500525D01*
X104725500Y-79474167D01*
X104725500Y-78099833D01*
X104745185Y-78032794D01*
X104797989Y-77987039D01*
X104867147Y-77977095D01*
X104930703Y-78006120D01*
X104937181Y-78012152D01*
X105088181Y-78163152D01*
X105121666Y-78224475D01*
X105124500Y-78250833D01*
X105124500Y-79219752D01*
X105136131Y-79278229D01*
X105136132Y-79278230D01*
X105180447Y-79344552D01*
X105246769Y-79388867D01*
X105246770Y-79388868D01*
X105305247Y-79400499D01*
X105305250Y-79400500D01*
X105305252Y-79400500D01*
X106694750Y-79400500D01*
X106694751Y-79400499D01*
X106709568Y-79397552D01*
X106753229Y-79388868D01*
X106753229Y-79388867D01*
X106753231Y-79388867D01*
X106819552Y-79344552D01*
X106863867Y-79278231D01*
X106863867Y-79278229D01*
X106863868Y-79278229D01*
X106875499Y-79219752D01*
X106875500Y-79219750D01*
X106875500Y-78080249D01*
X106875499Y-78080247D01*
X106863868Y-78021770D01*
X106863867Y-78021769D01*
X106819552Y-77955447D01*
X106753230Y-77911132D01*
X106753229Y-77911131D01*
X106694752Y-77899500D01*
X106694748Y-77899500D01*
X105725833Y-77899500D01*
X105658794Y-77879815D01*
X105638152Y-77863181D01*
X104446819Y-76671848D01*
X104413334Y-76610525D01*
X104410500Y-76584167D01*
X104410500Y-72414500D01*
X104430185Y-72347461D01*
X104482989Y-72301706D01*
X104534500Y-72290500D01*
X104939750Y-72290500D01*
X104939751Y-72290499D01*
X104954568Y-72287552D01*
X104998229Y-72278868D01*
X104998229Y-72278867D01*
X104998231Y-72278867D01*
X105064552Y-72234552D01*
X105108867Y-72168231D01*
X105108867Y-72168229D01*
X105108868Y-72168229D01*
X105120499Y-72109752D01*
X105120500Y-72109750D01*
X105120500Y-69890249D01*
X105120499Y-69890247D01*
X105108868Y-69831770D01*
X105108867Y-69831769D01*
X105064552Y-69765447D01*
X104998230Y-69721132D01*
X104998229Y-69721131D01*
X104939752Y-69709500D01*
X104939748Y-69709500D01*
X103280252Y-69709500D01*
X103280247Y-69709500D01*
X103221770Y-69721131D01*
X103221769Y-69721132D01*
X103155447Y-69765447D01*
X103111132Y-69831769D01*
X103111131Y-69831770D01*
X103099500Y-69890247D01*
X103099500Y-72109752D01*
X103111131Y-72168229D01*
X103111132Y-72168230D01*
X103155447Y-72234552D01*
X103221769Y-72278867D01*
X103221770Y-72278868D01*
X103280247Y-72290499D01*
X103280250Y-72290500D01*
X103280252Y-72290500D01*
X103685500Y-72290500D01*
X103752539Y-72310185D01*
X103798294Y-72362989D01*
X103809500Y-72414500D01*
X103809500Y-75425500D01*
X103789815Y-75492539D01*
X103737011Y-75538294D01*
X103685500Y-75549500D01*
X102775323Y-75549500D01*
X102702264Y-75564032D01*
X102702260Y-75564033D01*
X102619399Y-75619399D01*
X102564033Y-75702260D01*
X102564032Y-75702264D01*
X102549500Y-75775321D01*
X102549500Y-76324678D01*
X102564032Y-76397735D01*
X102564033Y-76397739D01*
X102564034Y-76397740D01*
X102619399Y-76480601D01*
X102677988Y-76519748D01*
X102702260Y-76535966D01*
X102702264Y-76535967D01*
X102775321Y-76550499D01*
X102775324Y-76550500D01*
X102775326Y-76550500D01*
X103685500Y-76550500D01*
X103752539Y-76570185D01*
X103798294Y-76622989D01*
X103809500Y-76674500D01*
X103809500Y-76799562D01*
X103818873Y-76834540D01*
X103829979Y-76875990D01*
X103838334Y-76890460D01*
X103853073Y-76915989D01*
X103869539Y-76944509D01*
X103869541Y-76944512D01*
X104088181Y-77163152D01*
X104121666Y-77224475D01*
X104124500Y-77250833D01*
X104124500Y-81674167D01*
X104104815Y-81741206D01*
X104088181Y-81761848D01*
X101536848Y-84313181D01*
X101475525Y-84346666D01*
X101449167Y-84349500D01*
X100930247Y-84349500D01*
X100871770Y-84361131D01*
X100871769Y-84361132D01*
X100805447Y-84405447D01*
X100761132Y-84471769D01*
X100761131Y-84471770D01*
X100749500Y-84530247D01*
X100749500Y-85469752D01*
X100761131Y-85528229D01*
X100761132Y-85528230D01*
X100805447Y-85594552D01*
X100871769Y-85638867D01*
X100871770Y-85638868D01*
X100930247Y-85650499D01*
X100930250Y-85650500D01*
X101350166Y-85650500D01*
X101417205Y-85670185D01*
X101462960Y-85722989D01*
X101472904Y-85792147D01*
X101443879Y-85855703D01*
X101437847Y-85862181D01*
X97636848Y-89663181D01*
X97575525Y-89696666D01*
X97549167Y-89699500D01*
X97374500Y-89699500D01*
X97307461Y-89679815D01*
X97261706Y-89627011D01*
X97250500Y-89575500D01*
X97250500Y-89530249D01*
X97250499Y-89530247D01*
X97238868Y-89471770D01*
X97238867Y-89471769D01*
X97194552Y-89405447D01*
X97128230Y-89361132D01*
X97128229Y-89361131D01*
X97069752Y-89349500D01*
X97069748Y-89349500D01*
X96724833Y-89349500D01*
X96657794Y-89329815D01*
X96612039Y-89277011D01*
X96602095Y-89207853D01*
X96631120Y-89144297D01*
X96637152Y-89137819D01*
X98688152Y-87086819D01*
X98749475Y-87053334D01*
X98775833Y-87050500D01*
X99785920Y-87050500D01*
X99785922Y-87050500D01*
X99862349Y-87030021D01*
X99930871Y-86990460D01*
X99986820Y-86934511D01*
X100390460Y-86530871D01*
X100402775Y-86509540D01*
X100430021Y-86462349D01*
X100450500Y-86385922D01*
X100450500Y-84860438D01*
X100438456Y-84815489D01*
X100430022Y-84784012D01*
X100390460Y-84715489D01*
X100086819Y-84411848D01*
X100053334Y-84350525D01*
X100050500Y-84324167D01*
X100050500Y-83775323D01*
X100050499Y-83775321D01*
X100035967Y-83702264D01*
X100035966Y-83702260D01*
X99980601Y-83619399D01*
X99897740Y-83564034D01*
X99897739Y-83564033D01*
X99897735Y-83564032D01*
X99824677Y-83549500D01*
X99824674Y-83549500D01*
X98775326Y-83549500D01*
X98775324Y-83549500D01*
X98756210Y-83553302D01*
X98686618Y-83547075D01*
X98644337Y-83519366D01*
X96987152Y-81862181D01*
X96953667Y-81800858D01*
X96958651Y-81731166D01*
X97000523Y-81675233D01*
X97065987Y-81650816D01*
X97074833Y-81650500D01*
X97619750Y-81650500D01*
X97619751Y-81650499D01*
X97634568Y-81647552D01*
X97678229Y-81638868D01*
X97678229Y-81638867D01*
X97678231Y-81638867D01*
X97744552Y-81594552D01*
X97788867Y-81528231D01*
X97788867Y-81528229D01*
X97788868Y-81528229D01*
X97800499Y-81469752D01*
X97800500Y-81469750D01*
X97800500Y-80950833D01*
X97820185Y-80883794D01*
X97836819Y-80863152D01*
X98474471Y-80225500D01*
X100090460Y-78609511D01*
X100130021Y-78540989D01*
X100130023Y-78540978D01*
X100133130Y-78533482D01*
X100134687Y-78534127D01*
X100166010Y-78482743D01*
X100228858Y-78452216D01*
X100249416Y-78450500D01*
X101224676Y-78450500D01*
X101224677Y-78450499D01*
X101297740Y-78435966D01*
X101380601Y-78380601D01*
X101435966Y-78297740D01*
X101450500Y-78224674D01*
X101450500Y-77675326D01*
X101450500Y-77675323D01*
X101450499Y-77675321D01*
X101435967Y-77602264D01*
X101435966Y-77602260D01*
X101380601Y-77519399D01*
X101297740Y-77464034D01*
X101297739Y-77464033D01*
X101297735Y-77464032D01*
X101224677Y-77449500D01*
X101224674Y-77449500D01*
X100274500Y-77449500D01*
X100207461Y-77429815D01*
X100161706Y-77377011D01*
X100150500Y-77325500D01*
X100150500Y-76674500D01*
X100170185Y-76607461D01*
X100222989Y-76561706D01*
X100274500Y-76550500D01*
X101224676Y-76550500D01*
X101224677Y-76550499D01*
X101297740Y-76535966D01*
X101380601Y-76480601D01*
X101435966Y-76397740D01*
X101450500Y-76324674D01*
X101450500Y-75775326D01*
X101450500Y-75775323D01*
X101450499Y-75775321D01*
X101435967Y-75702264D01*
X101435966Y-75702260D01*
X101380601Y-75619399D01*
X101297740Y-75564034D01*
X101297739Y-75564033D01*
X101297735Y-75564032D01*
X101224677Y-75549500D01*
X101224674Y-75549500D01*
X100675833Y-75549500D01*
X100608794Y-75529815D01*
X100588152Y-75513181D01*
X100186819Y-75111848D01*
X100153334Y-75050525D01*
X100150500Y-75024167D01*
X100150500Y-72414500D01*
X100170185Y-72347461D01*
X100222989Y-72301706D01*
X100274500Y-72290500D01*
X100719750Y-72290500D01*
X100719751Y-72290499D01*
X100734568Y-72287552D01*
X100778229Y-72278868D01*
X100778229Y-72278867D01*
X100778231Y-72278867D01*
X100844552Y-72234552D01*
X100888867Y-72168231D01*
X100888867Y-72168229D01*
X100888868Y-72168229D01*
X100900499Y-72109752D01*
X100900500Y-72109750D01*
X100900500Y-69890249D01*
X100900499Y-69890247D01*
X100888868Y-69831770D01*
X100888867Y-69831769D01*
X100844552Y-69765447D01*
X100778230Y-69721132D01*
X100778229Y-69721131D01*
X100719752Y-69709500D01*
X100719748Y-69709500D01*
X99075833Y-69709500D01*
X99008794Y-69689815D01*
X98988152Y-69673181D01*
X98574512Y-69259541D01*
X98574504Y-69259535D01*
X98505995Y-69219982D01*
X98505990Y-69219979D01*
X98480513Y-69213152D01*
X98429562Y-69199500D01*
X98429560Y-69199500D01*
X95324500Y-69199500D01*
X95257461Y-69179815D01*
X95211706Y-69127011D01*
X95200500Y-69075500D01*
X95200500Y-68624500D01*
X95220185Y-68557461D01*
X95272989Y-68511706D01*
X95324500Y-68500500D01*
X108375500Y-68500500D01*
X108442539Y-68520185D01*
G37*
%TD.AperFunction*%
%TD*%
M02*
