%TF.GenerationSoftware,KiCad,Pcbnew,10.0.5*%
%TF.CreationDate,2026-09-14T01:27:47-07:00*%
%TF.ProjectId,sensor,73656e73-6f72-42e6-9b69-6361645f7063,rev?*%
%TF.SameCoordinates,Original*%
%TF.FileFunction,Legend,Top*%
%TF.FilePolarity,Positive*%
%FSLAX46Y46*%
G04 Gerber Fmt 4.6, Leading zero omitted, Abs format (unit mm)*
G04 Created by KiCad (PCBNEW 10.0.5) date 2026-09-14 01:27:47*
%MOMM*%
%LPD*%
G01*
G04 APERTURE LIST*
%ADD10C,0.150000*%
G04 APERTURE END LIST*
D10*
X94000000Y-118500000D02*
X106000000Y-118500000D01*
X97000000Y-107000000D02*
X100000000Y-104000000D01*
X97900000Y-106900000D02*
X100000000Y-107350000D01*
X98650000Y-108000000D02*
X100000000Y-108300000D01*
X100000000Y-104000000D02*
X103000000Y-107000000D01*
X100000000Y-107350000D02*
X102100000Y-106900000D01*
X100000000Y-108300000D02*
X101350000Y-108000000D01*
X100000000Y-110000000D02*
X97000000Y-107000000D01*
X103000000Y-107000000D02*
X100000000Y-110000000D01*
X96028571Y-69862295D02*
X95571428Y-69862295D01*
X95800000Y-69862295D02*
X95800000Y-69062295D01*
X95800000Y-69062295D02*
X95723809Y-69176580D01*
X95723809Y-69176580D02*
X95647619Y-69252771D01*
X95647619Y-69252771D02*
X95571428Y-69290866D01*
X95571428Y-72138485D02*
X95609524Y-72100390D01*
X95609524Y-72100390D02*
X95685714Y-72062295D01*
X95685714Y-72062295D02*
X95876190Y-72062295D01*
X95876190Y-72062295D02*
X95952381Y-72100390D01*
X95952381Y-72100390D02*
X95990476Y-72138485D01*
X95990476Y-72138485D02*
X96028571Y-72214676D01*
X96028571Y-72214676D02*
X96028571Y-72290866D01*
X96028571Y-72290866D02*
X95990476Y-72405152D01*
X95990476Y-72405152D02*
X95533333Y-72862295D01*
X95533333Y-72862295D02*
X96028571Y-72862295D01*
X95533333Y-75062295D02*
X96028571Y-75062295D01*
X96028571Y-75062295D02*
X95761905Y-75367057D01*
X95761905Y-75367057D02*
X95876190Y-75367057D01*
X95876190Y-75367057D02*
X95952381Y-75405152D01*
X95952381Y-75405152D02*
X95990476Y-75443247D01*
X95990476Y-75443247D02*
X96028571Y-75519438D01*
X96028571Y-75519438D02*
X96028571Y-75709914D01*
X96028571Y-75709914D02*
X95990476Y-75786104D01*
X95990476Y-75786104D02*
X95952381Y-75824200D01*
X95952381Y-75824200D02*
X95876190Y-75862295D01*
X95876190Y-75862295D02*
X95647619Y-75862295D01*
X95647619Y-75862295D02*
X95571428Y-75824200D01*
X95571428Y-75824200D02*
X95533333Y-75786104D01*
X95952381Y-78328961D02*
X95952381Y-78862295D01*
X95761905Y-78024200D02*
X95571428Y-78595628D01*
X95571428Y-78595628D02*
X96066667Y-78595628D01*
X95990476Y-81062295D02*
X95609524Y-81062295D01*
X95609524Y-81062295D02*
X95571428Y-81443247D01*
X95571428Y-81443247D02*
X95609524Y-81405152D01*
X95609524Y-81405152D02*
X95685714Y-81367057D01*
X95685714Y-81367057D02*
X95876190Y-81367057D01*
X95876190Y-81367057D02*
X95952381Y-81405152D01*
X95952381Y-81405152D02*
X95990476Y-81443247D01*
X95990476Y-81443247D02*
X96028571Y-81519438D01*
X96028571Y-81519438D02*
X96028571Y-81709914D01*
X96028571Y-81709914D02*
X95990476Y-81786104D01*
X95990476Y-81786104D02*
X95952381Y-81824200D01*
X95952381Y-81824200D02*
X95876190Y-81862295D01*
X95876190Y-81862295D02*
X95685714Y-81862295D01*
X95685714Y-81862295D02*
X95609524Y-81824200D01*
X95609524Y-81824200D02*
X95571428Y-81786104D01*
X95952381Y-84062295D02*
X95800000Y-84062295D01*
X95800000Y-84062295D02*
X95723809Y-84100390D01*
X95723809Y-84100390D02*
X95685714Y-84138485D01*
X95685714Y-84138485D02*
X95609524Y-84252771D01*
X95609524Y-84252771D02*
X95571428Y-84405152D01*
X95571428Y-84405152D02*
X95571428Y-84709914D01*
X95571428Y-84709914D02*
X95609524Y-84786104D01*
X95609524Y-84786104D02*
X95647619Y-84824200D01*
X95647619Y-84824200D02*
X95723809Y-84862295D01*
X95723809Y-84862295D02*
X95876190Y-84862295D01*
X95876190Y-84862295D02*
X95952381Y-84824200D01*
X95952381Y-84824200D02*
X95990476Y-84786104D01*
X95990476Y-84786104D02*
X96028571Y-84709914D01*
X96028571Y-84709914D02*
X96028571Y-84519438D01*
X96028571Y-84519438D02*
X95990476Y-84443247D01*
X95990476Y-84443247D02*
X95952381Y-84405152D01*
X95952381Y-84405152D02*
X95876190Y-84367057D01*
X95876190Y-84367057D02*
X95723809Y-84367057D01*
X95723809Y-84367057D02*
X95647619Y-84405152D01*
X95647619Y-84405152D02*
X95609524Y-84443247D01*
X95609524Y-84443247D02*
X95571428Y-84519438D01*
X98285714Y-123562295D02*
X98019047Y-123181342D01*
X97828571Y-123562295D02*
X97828571Y-122762295D01*
X97828571Y-122762295D02*
X98133333Y-122762295D01*
X98133333Y-122762295D02*
X98209523Y-122800390D01*
X98209523Y-122800390D02*
X98247618Y-122838485D01*
X98247618Y-122838485D02*
X98285714Y-122914676D01*
X98285714Y-122914676D02*
X98285714Y-123028961D01*
X98285714Y-123028961D02*
X98247618Y-123105152D01*
X98247618Y-123105152D02*
X98209523Y-123143247D01*
X98209523Y-123143247D02*
X98133333Y-123181342D01*
X98133333Y-123181342D02*
X97828571Y-123181342D01*
X98628571Y-123143247D02*
X98895237Y-123143247D01*
X99009523Y-123562295D02*
X98628571Y-123562295D01*
X98628571Y-123562295D02*
X98628571Y-122762295D01*
X98628571Y-122762295D02*
X99009523Y-122762295D01*
X99238095Y-122762295D02*
X99504762Y-123562295D01*
X99504762Y-123562295D02*
X99771428Y-122762295D01*
X101066666Y-123562295D02*
X100609523Y-123562295D01*
X100838095Y-123562295D02*
X100838095Y-122762295D01*
X100838095Y-122762295D02*
X100761904Y-122876580D01*
X100761904Y-122876580D02*
X100685714Y-122952771D01*
X100685714Y-122952771D02*
X100609523Y-122990866D01*
X101409524Y-123486104D02*
X101447619Y-123524200D01*
X101447619Y-123524200D02*
X101409524Y-123562295D01*
X101409524Y-123562295D02*
X101371428Y-123524200D01*
X101371428Y-123524200D02*
X101409524Y-123486104D01*
X101409524Y-123486104D02*
X101409524Y-123562295D01*
X101942857Y-122762295D02*
X102019047Y-122762295D01*
X102019047Y-122762295D02*
X102095238Y-122800390D01*
X102095238Y-122800390D02*
X102133333Y-122838485D01*
X102133333Y-122838485D02*
X102171428Y-122914676D01*
X102171428Y-122914676D02*
X102209523Y-123067057D01*
X102209523Y-123067057D02*
X102209523Y-123257533D01*
X102209523Y-123257533D02*
X102171428Y-123409914D01*
X102171428Y-123409914D02*
X102133333Y-123486104D01*
X102133333Y-123486104D02*
X102095238Y-123524200D01*
X102095238Y-123524200D02*
X102019047Y-123562295D01*
X102019047Y-123562295D02*
X101942857Y-123562295D01*
X101942857Y-123562295D02*
X101866666Y-123524200D01*
X101866666Y-123524200D02*
X101828571Y-123486104D01*
X101828571Y-123486104D02*
X101790476Y-123409914D01*
X101790476Y-123409914D02*
X101752380Y-123257533D01*
X101752380Y-123257533D02*
X101752380Y-123067057D01*
X101752380Y-123067057D02*
X101790476Y-122914676D01*
X101790476Y-122914676D02*
X101828571Y-122838485D01*
X101828571Y-122838485D02*
X101866666Y-122800390D01*
X101866666Y-122800390D02*
X101942857Y-122762295D01*
X101600000Y-69362295D02*
X101333333Y-68981342D01*
X101142857Y-69362295D02*
X101142857Y-68562295D01*
X101142857Y-68562295D02*
X101447619Y-68562295D01*
X101447619Y-68562295D02*
X101523809Y-68600390D01*
X101523809Y-68600390D02*
X101561904Y-68638485D01*
X101561904Y-68638485D02*
X101600000Y-68714676D01*
X101600000Y-68714676D02*
X101600000Y-68828961D01*
X101600000Y-68828961D02*
X101561904Y-68905152D01*
X101561904Y-68905152D02*
X101523809Y-68943247D01*
X101523809Y-68943247D02*
X101447619Y-68981342D01*
X101447619Y-68981342D02*
X101142857Y-68981342D01*
X101942857Y-69362295D02*
X101942857Y-68562295D01*
X102323809Y-69362295D02*
X102323809Y-68562295D01*
X102323809Y-68562295D02*
X102590475Y-69133723D01*
X102590475Y-69133723D02*
X102857142Y-68562295D01*
X102857142Y-68562295D02*
X102857142Y-69362295D01*
X95238094Y-121454819D02*
X94761904Y-121454819D01*
X94761904Y-121454819D02*
X94761904Y-120454819D01*
X95571428Y-120931009D02*
X95904761Y-120931009D01*
X96047618Y-121454819D02*
X95571428Y-121454819D01*
X95571428Y-121454819D02*
X95571428Y-120454819D01*
X95571428Y-120454819D02*
X96047618Y-120454819D01*
X96333333Y-120454819D02*
X96666666Y-121454819D01*
X96666666Y-121454819D02*
X96999999Y-120454819D01*
X97333333Y-120931009D02*
X97666666Y-120931009D01*
X97809523Y-121454819D02*
X97333333Y-121454819D01*
X97333333Y-121454819D02*
X97333333Y-120454819D01*
X97333333Y-120454819D02*
X97809523Y-120454819D01*
X98714285Y-121454819D02*
X98238095Y-121454819D01*
X98238095Y-121454819D02*
X98238095Y-120454819D01*
X99761905Y-121407200D02*
X99904762Y-121454819D01*
X99904762Y-121454819D02*
X100142857Y-121454819D01*
X100142857Y-121454819D02*
X100238095Y-121407200D01*
X100238095Y-121407200D02*
X100285714Y-121359580D01*
X100285714Y-121359580D02*
X100333333Y-121264342D01*
X100333333Y-121264342D02*
X100333333Y-121169104D01*
X100333333Y-121169104D02*
X100285714Y-121073866D01*
X100285714Y-121073866D02*
X100238095Y-121026247D01*
X100238095Y-121026247D02*
X100142857Y-120978628D01*
X100142857Y-120978628D02*
X99952381Y-120931009D01*
X99952381Y-120931009D02*
X99857143Y-120883390D01*
X99857143Y-120883390D02*
X99809524Y-120835771D01*
X99809524Y-120835771D02*
X99761905Y-120740533D01*
X99761905Y-120740533D02*
X99761905Y-120645295D01*
X99761905Y-120645295D02*
X99809524Y-120550057D01*
X99809524Y-120550057D02*
X99857143Y-120502438D01*
X99857143Y-120502438D02*
X99952381Y-120454819D01*
X99952381Y-120454819D02*
X100190476Y-120454819D01*
X100190476Y-120454819D02*
X100333333Y-120502438D01*
X100761905Y-120931009D02*
X101095238Y-120931009D01*
X101238095Y-121454819D02*
X100761905Y-121454819D01*
X100761905Y-121454819D02*
X100761905Y-120454819D01*
X100761905Y-120454819D02*
X101238095Y-120454819D01*
X101666667Y-121454819D02*
X101666667Y-120454819D01*
X101666667Y-120454819D02*
X102238095Y-121454819D01*
X102238095Y-121454819D02*
X102238095Y-120454819D01*
X102666667Y-121407200D02*
X102809524Y-121454819D01*
X102809524Y-121454819D02*
X103047619Y-121454819D01*
X103047619Y-121454819D02*
X103142857Y-121407200D01*
X103142857Y-121407200D02*
X103190476Y-121359580D01*
X103190476Y-121359580D02*
X103238095Y-121264342D01*
X103238095Y-121264342D02*
X103238095Y-121169104D01*
X103238095Y-121169104D02*
X103190476Y-121073866D01*
X103190476Y-121073866D02*
X103142857Y-121026247D01*
X103142857Y-121026247D02*
X103047619Y-120978628D01*
X103047619Y-120978628D02*
X102857143Y-120931009D01*
X102857143Y-120931009D02*
X102761905Y-120883390D01*
X102761905Y-120883390D02*
X102714286Y-120835771D01*
X102714286Y-120835771D02*
X102666667Y-120740533D01*
X102666667Y-120740533D02*
X102666667Y-120645295D01*
X102666667Y-120645295D02*
X102714286Y-120550057D01*
X102714286Y-120550057D02*
X102761905Y-120502438D01*
X102761905Y-120502438D02*
X102857143Y-120454819D01*
X102857143Y-120454819D02*
X103095238Y-120454819D01*
X103095238Y-120454819D02*
X103238095Y-120502438D01*
X103857143Y-120454819D02*
X104047619Y-120454819D01*
X104047619Y-120454819D02*
X104142857Y-120502438D01*
X104142857Y-120502438D02*
X104238095Y-120597676D01*
X104238095Y-120597676D02*
X104285714Y-120788152D01*
X104285714Y-120788152D02*
X104285714Y-121121485D01*
X104285714Y-121121485D02*
X104238095Y-121311961D01*
X104238095Y-121311961D02*
X104142857Y-121407200D01*
X104142857Y-121407200D02*
X104047619Y-121454819D01*
X104047619Y-121454819D02*
X103857143Y-121454819D01*
X103857143Y-121454819D02*
X103761905Y-121407200D01*
X103761905Y-121407200D02*
X103666667Y-121311961D01*
X103666667Y-121311961D02*
X103619048Y-121121485D01*
X103619048Y-121121485D02*
X103619048Y-120788152D01*
X103619048Y-120788152D02*
X103666667Y-120597676D01*
X103666667Y-120597676D02*
X103761905Y-120502438D01*
X103761905Y-120502438D02*
X103857143Y-120454819D01*
X105285714Y-121454819D02*
X104952381Y-120978628D01*
X104714286Y-121454819D02*
X104714286Y-120454819D01*
X104714286Y-120454819D02*
X105095238Y-120454819D01*
X105095238Y-120454819D02*
X105190476Y-120502438D01*
X105190476Y-120502438D02*
X105238095Y-120550057D01*
X105238095Y-120550057D02*
X105285714Y-120645295D01*
X105285714Y-120645295D02*
X105285714Y-120788152D01*
X105285714Y-120788152D02*
X105238095Y-120883390D01*
X105238095Y-120883390D02*
X105190476Y-120931009D01*
X105190476Y-120931009D02*
X105095238Y-120978628D01*
X105095238Y-120978628D02*
X104714286Y-120978628D01*
X97228571Y-114433057D02*
X97171428Y-114490200D01*
X97171428Y-114490200D02*
X97000000Y-114547342D01*
X97000000Y-114547342D02*
X96885714Y-114547342D01*
X96885714Y-114547342D02*
X96714285Y-114490200D01*
X96714285Y-114490200D02*
X96600000Y-114375914D01*
X96600000Y-114375914D02*
X96542857Y-114261628D01*
X96542857Y-114261628D02*
X96485714Y-114033057D01*
X96485714Y-114033057D02*
X96485714Y-113861628D01*
X96485714Y-113861628D02*
X96542857Y-113633057D01*
X96542857Y-113633057D02*
X96600000Y-113518771D01*
X96600000Y-113518771D02*
X96714285Y-113404485D01*
X96714285Y-113404485D02*
X96885714Y-113347342D01*
X96885714Y-113347342D02*
X97000000Y-113347342D01*
X97000000Y-113347342D02*
X97171428Y-113404485D01*
X97171428Y-113404485D02*
X97228571Y-113461628D01*
X98428571Y-114547342D02*
X98028571Y-113975914D01*
X97742857Y-114547342D02*
X97742857Y-113347342D01*
X97742857Y-113347342D02*
X98200000Y-113347342D01*
X98200000Y-113347342D02*
X98314285Y-113404485D01*
X98314285Y-113404485D02*
X98371428Y-113461628D01*
X98371428Y-113461628D02*
X98428571Y-113575914D01*
X98428571Y-113575914D02*
X98428571Y-113747342D01*
X98428571Y-113747342D02*
X98371428Y-113861628D01*
X98371428Y-113861628D02*
X98314285Y-113918771D01*
X98314285Y-113918771D02*
X98200000Y-113975914D01*
X98200000Y-113975914D02*
X97742857Y-113975914D01*
X99171428Y-113975914D02*
X99171428Y-114547342D01*
X98771428Y-113347342D02*
X99171428Y-113975914D01*
X99171428Y-113975914D02*
X99571428Y-113347342D01*
X99914285Y-114490200D02*
X100085714Y-114547342D01*
X100085714Y-114547342D02*
X100371428Y-114547342D01*
X100371428Y-114547342D02*
X100485714Y-114490200D01*
X100485714Y-114490200D02*
X100542856Y-114433057D01*
X100542856Y-114433057D02*
X100599999Y-114318771D01*
X100599999Y-114318771D02*
X100599999Y-114204485D01*
X100599999Y-114204485D02*
X100542856Y-114090200D01*
X100542856Y-114090200D02*
X100485714Y-114033057D01*
X100485714Y-114033057D02*
X100371428Y-113975914D01*
X100371428Y-113975914D02*
X100142856Y-113918771D01*
X100142856Y-113918771D02*
X100028571Y-113861628D01*
X100028571Y-113861628D02*
X99971428Y-113804485D01*
X99971428Y-113804485D02*
X99914285Y-113690200D01*
X99914285Y-113690200D02*
X99914285Y-113575914D01*
X99914285Y-113575914D02*
X99971428Y-113461628D01*
X99971428Y-113461628D02*
X100028571Y-113404485D01*
X100028571Y-113404485D02*
X100142856Y-113347342D01*
X100142856Y-113347342D02*
X100428571Y-113347342D01*
X100428571Y-113347342D02*
X100599999Y-113404485D01*
X100942856Y-113347342D02*
X101628571Y-113347342D01*
X101285713Y-114547342D02*
X101285713Y-113347342D01*
X101971428Y-114204485D02*
X102542857Y-114204485D01*
X101857142Y-114547342D02*
X102257142Y-113347342D01*
X102257142Y-113347342D02*
X102657142Y-114547342D01*
X103628570Y-114547342D02*
X103057142Y-114547342D01*
X103057142Y-114547342D02*
X103057142Y-113347342D01*
X98057142Y-116790200D02*
X98228571Y-116847342D01*
X98228571Y-116847342D02*
X98514285Y-116847342D01*
X98514285Y-116847342D02*
X98628571Y-116790200D01*
X98628571Y-116790200D02*
X98685713Y-116733057D01*
X98685713Y-116733057D02*
X98742856Y-116618771D01*
X98742856Y-116618771D02*
X98742856Y-116504485D01*
X98742856Y-116504485D02*
X98685713Y-116390200D01*
X98685713Y-116390200D02*
X98628571Y-116333057D01*
X98628571Y-116333057D02*
X98514285Y-116275914D01*
X98514285Y-116275914D02*
X98285713Y-116218771D01*
X98285713Y-116218771D02*
X98171428Y-116161628D01*
X98171428Y-116161628D02*
X98114285Y-116104485D01*
X98114285Y-116104485D02*
X98057142Y-115990200D01*
X98057142Y-115990200D02*
X98057142Y-115875914D01*
X98057142Y-115875914D02*
X98114285Y-115761628D01*
X98114285Y-115761628D02*
X98171428Y-115704485D01*
X98171428Y-115704485D02*
X98285713Y-115647342D01*
X98285713Y-115647342D02*
X98571428Y-115647342D01*
X98571428Y-115647342D02*
X98742856Y-115704485D01*
X99257142Y-116847342D02*
X99257142Y-115647342D01*
X99257142Y-116218771D02*
X99942856Y-116218771D01*
X99942856Y-116847342D02*
X99942856Y-115647342D01*
X100514285Y-116847342D02*
X100514285Y-115647342D01*
X101085714Y-116847342D02*
X101085714Y-115647342D01*
X101085714Y-115647342D02*
X101485714Y-116504485D01*
X101485714Y-116504485D02*
X101885714Y-115647342D01*
X101885714Y-115647342D02*
X101885714Y-116847342D01*
X97866667Y-82662295D02*
X97600000Y-82281342D01*
X97409524Y-82662295D02*
X97409524Y-81862295D01*
X97409524Y-81862295D02*
X97714286Y-81862295D01*
X97714286Y-81862295D02*
X97790476Y-81900390D01*
X97790476Y-81900390D02*
X97828571Y-81938485D01*
X97828571Y-81938485D02*
X97866667Y-82014676D01*
X97866667Y-82014676D02*
X97866667Y-82128961D01*
X97866667Y-82128961D02*
X97828571Y-82205152D01*
X97828571Y-82205152D02*
X97790476Y-82243247D01*
X97790476Y-82243247D02*
X97714286Y-82281342D01*
X97714286Y-82281342D02*
X97409524Y-82281342D01*
X98590476Y-81862295D02*
X98209524Y-81862295D01*
X98209524Y-81862295D02*
X98171428Y-82243247D01*
X98171428Y-82243247D02*
X98209524Y-82205152D01*
X98209524Y-82205152D02*
X98285714Y-82167057D01*
X98285714Y-82167057D02*
X98476190Y-82167057D01*
X98476190Y-82167057D02*
X98552381Y-82205152D01*
X98552381Y-82205152D02*
X98590476Y-82243247D01*
X98590476Y-82243247D02*
X98628571Y-82319438D01*
X98628571Y-82319438D02*
X98628571Y-82509914D01*
X98628571Y-82509914D02*
X98590476Y-82586104D01*
X98590476Y-82586104D02*
X98552381Y-82624200D01*
X98552381Y-82624200D02*
X98476190Y-82662295D01*
X98476190Y-82662295D02*
X98285714Y-82662295D01*
X98285714Y-82662295D02*
X98209524Y-82624200D01*
X98209524Y-82624200D02*
X98171428Y-82586104D01*
X93233333Y-86062295D02*
X93233333Y-86633723D01*
X93233333Y-86633723D02*
X93195238Y-86748009D01*
X93195238Y-86748009D02*
X93119047Y-86824200D01*
X93119047Y-86824200D02*
X93004762Y-86862295D01*
X93004762Y-86862295D02*
X92928571Y-86862295D01*
X94033333Y-86862295D02*
X93576190Y-86862295D01*
X93804762Y-86862295D02*
X93804762Y-86062295D01*
X93804762Y-86062295D02*
X93728571Y-86176580D01*
X93728571Y-86176580D02*
X93652381Y-86252771D01*
X93652381Y-86252771D02*
X93576190Y-86290866D01*
X108286104Y-88133332D02*
X108324200Y-88171428D01*
X108324200Y-88171428D02*
X108362295Y-88285713D01*
X108362295Y-88285713D02*
X108362295Y-88361904D01*
X108362295Y-88361904D02*
X108324200Y-88476190D01*
X108324200Y-88476190D02*
X108248009Y-88552380D01*
X108248009Y-88552380D02*
X108171819Y-88590475D01*
X108171819Y-88590475D02*
X108019438Y-88628571D01*
X108019438Y-88628571D02*
X107905152Y-88628571D01*
X107905152Y-88628571D02*
X107752771Y-88590475D01*
X107752771Y-88590475D02*
X107676580Y-88552380D01*
X107676580Y-88552380D02*
X107600390Y-88476190D01*
X107600390Y-88476190D02*
X107562295Y-88361904D01*
X107562295Y-88361904D02*
X107562295Y-88285713D01*
X107562295Y-88285713D02*
X107600390Y-88171428D01*
X107600390Y-88171428D02*
X107638485Y-88133332D01*
X107828961Y-87447618D02*
X108362295Y-87447618D01*
X107524200Y-87638094D02*
X108095628Y-87828571D01*
X108095628Y-87828571D02*
X108095628Y-87333332D01*
X106366667Y-82462295D02*
X106100000Y-82081342D01*
X105909524Y-82462295D02*
X105909524Y-81662295D01*
X105909524Y-81662295D02*
X106214286Y-81662295D01*
X106214286Y-81662295D02*
X106290476Y-81700390D01*
X106290476Y-81700390D02*
X106328571Y-81738485D01*
X106328571Y-81738485D02*
X106366667Y-81814676D01*
X106366667Y-81814676D02*
X106366667Y-81928961D01*
X106366667Y-81928961D02*
X106328571Y-82005152D01*
X106328571Y-82005152D02*
X106290476Y-82043247D01*
X106290476Y-82043247D02*
X106214286Y-82081342D01*
X106214286Y-82081342D02*
X105909524Y-82081342D01*
X107052381Y-81662295D02*
X106900000Y-81662295D01*
X106900000Y-81662295D02*
X106823809Y-81700390D01*
X106823809Y-81700390D02*
X106785714Y-81738485D01*
X106785714Y-81738485D02*
X106709524Y-81852771D01*
X106709524Y-81852771D02*
X106671428Y-82005152D01*
X106671428Y-82005152D02*
X106671428Y-82309914D01*
X106671428Y-82309914D02*
X106709524Y-82386104D01*
X106709524Y-82386104D02*
X106747619Y-82424200D01*
X106747619Y-82424200D02*
X106823809Y-82462295D01*
X106823809Y-82462295D02*
X106976190Y-82462295D01*
X106976190Y-82462295D02*
X107052381Y-82424200D01*
X107052381Y-82424200D02*
X107090476Y-82386104D01*
X107090476Y-82386104D02*
X107128571Y-82309914D01*
X107128571Y-82309914D02*
X107128571Y-82119438D01*
X107128571Y-82119438D02*
X107090476Y-82043247D01*
X107090476Y-82043247D02*
X107052381Y-82005152D01*
X107052381Y-82005152D02*
X106976190Y-81967057D01*
X106976190Y-81967057D02*
X106823809Y-81967057D01*
X106823809Y-81967057D02*
X106747619Y-82005152D01*
X106747619Y-82005152D02*
X106709524Y-82043247D01*
X106709524Y-82043247D02*
X106671428Y-82119438D01*
X106616667Y-94486104D02*
X106578571Y-94524200D01*
X106578571Y-94524200D02*
X106464286Y-94562295D01*
X106464286Y-94562295D02*
X106388095Y-94562295D01*
X106388095Y-94562295D02*
X106273809Y-94524200D01*
X106273809Y-94524200D02*
X106197619Y-94448009D01*
X106197619Y-94448009D02*
X106159524Y-94371819D01*
X106159524Y-94371819D02*
X106121428Y-94219438D01*
X106121428Y-94219438D02*
X106121428Y-94105152D01*
X106121428Y-94105152D02*
X106159524Y-93952771D01*
X106159524Y-93952771D02*
X106197619Y-93876580D01*
X106197619Y-93876580D02*
X106273809Y-93800390D01*
X106273809Y-93800390D02*
X106388095Y-93762295D01*
X106388095Y-93762295D02*
X106464286Y-93762295D01*
X106464286Y-93762295D02*
X106578571Y-93800390D01*
X106578571Y-93800390D02*
X106616667Y-93838485D01*
X106883333Y-93762295D02*
X107378571Y-93762295D01*
X107378571Y-93762295D02*
X107111905Y-94067057D01*
X107111905Y-94067057D02*
X107226190Y-94067057D01*
X107226190Y-94067057D02*
X107302381Y-94105152D01*
X107302381Y-94105152D02*
X107340476Y-94143247D01*
X107340476Y-94143247D02*
X107378571Y-94219438D01*
X107378571Y-94219438D02*
X107378571Y-94409914D01*
X107378571Y-94409914D02*
X107340476Y-94486104D01*
X107340476Y-94486104D02*
X107302381Y-94524200D01*
X107302381Y-94524200D02*
X107226190Y-94562295D01*
X107226190Y-94562295D02*
X106997619Y-94562295D01*
X106997619Y-94562295D02*
X106921428Y-94524200D01*
X106921428Y-94524200D02*
X106883333Y-94486104D01*
X101409524Y-73862295D02*
X101409524Y-73062295D01*
X101409524Y-73062295D02*
X101600000Y-73062295D01*
X101600000Y-73062295D02*
X101714286Y-73100390D01*
X101714286Y-73100390D02*
X101790476Y-73176580D01*
X101790476Y-73176580D02*
X101828571Y-73252771D01*
X101828571Y-73252771D02*
X101866667Y-73405152D01*
X101866667Y-73405152D02*
X101866667Y-73519438D01*
X101866667Y-73519438D02*
X101828571Y-73671819D01*
X101828571Y-73671819D02*
X101790476Y-73748009D01*
X101790476Y-73748009D02*
X101714286Y-73824200D01*
X101714286Y-73824200D02*
X101600000Y-73862295D01*
X101600000Y-73862295D02*
X101409524Y-73862295D01*
X102171428Y-73138485D02*
X102209524Y-73100390D01*
X102209524Y-73100390D02*
X102285714Y-73062295D01*
X102285714Y-73062295D02*
X102476190Y-73062295D01*
X102476190Y-73062295D02*
X102552381Y-73100390D01*
X102552381Y-73100390D02*
X102590476Y-73138485D01*
X102590476Y-73138485D02*
X102628571Y-73214676D01*
X102628571Y-73214676D02*
X102628571Y-73290866D01*
X102628571Y-73290866D02*
X102590476Y-73405152D01*
X102590476Y-73405152D02*
X102133333Y-73862295D01*
X102133333Y-73862295D02*
X102628571Y-73862295D01*
X99636104Y-77133332D02*
X99674200Y-77171428D01*
X99674200Y-77171428D02*
X99712295Y-77285713D01*
X99712295Y-77285713D02*
X99712295Y-77361904D01*
X99712295Y-77361904D02*
X99674200Y-77476190D01*
X99674200Y-77476190D02*
X99598009Y-77552380D01*
X99598009Y-77552380D02*
X99521819Y-77590475D01*
X99521819Y-77590475D02*
X99369438Y-77628571D01*
X99369438Y-77628571D02*
X99255152Y-77628571D01*
X99255152Y-77628571D02*
X99102771Y-77590475D01*
X99102771Y-77590475D02*
X99026580Y-77552380D01*
X99026580Y-77552380D02*
X98950390Y-77476190D01*
X98950390Y-77476190D02*
X98912295Y-77361904D01*
X98912295Y-77361904D02*
X98912295Y-77285713D01*
X98912295Y-77285713D02*
X98950390Y-77171428D01*
X98950390Y-77171428D02*
X98988485Y-77133332D01*
X99712295Y-76371428D02*
X99712295Y-76828571D01*
X99712295Y-76599999D02*
X98912295Y-76599999D01*
X98912295Y-76599999D02*
X99026580Y-76676190D01*
X99026580Y-76676190D02*
X99102771Y-76752380D01*
X99102771Y-76752380D02*
X99140866Y-76828571D01*
X101390476Y-88562295D02*
X101390476Y-89209914D01*
X101390476Y-89209914D02*
X101428571Y-89286104D01*
X101428571Y-89286104D02*
X101466666Y-89324200D01*
X101466666Y-89324200D02*
X101542857Y-89362295D01*
X101542857Y-89362295D02*
X101695238Y-89362295D01*
X101695238Y-89362295D02*
X101771428Y-89324200D01*
X101771428Y-89324200D02*
X101809523Y-89286104D01*
X101809523Y-89286104D02*
X101847619Y-89209914D01*
X101847619Y-89209914D02*
X101847619Y-88562295D01*
X102647618Y-89362295D02*
X102190475Y-89362295D01*
X102419047Y-89362295D02*
X102419047Y-88562295D01*
X102419047Y-88562295D02*
X102342856Y-88676580D01*
X102342856Y-88676580D02*
X102266666Y-88752771D01*
X102266666Y-88752771D02*
X102190475Y-88790866D01*
X108362295Y-84133332D02*
X107981342Y-84399999D01*
X108362295Y-84590475D02*
X107562295Y-84590475D01*
X107562295Y-84590475D02*
X107562295Y-84285713D01*
X107562295Y-84285713D02*
X107600390Y-84209523D01*
X107600390Y-84209523D02*
X107638485Y-84171428D01*
X107638485Y-84171428D02*
X107714676Y-84133332D01*
X107714676Y-84133332D02*
X107828961Y-84133332D01*
X107828961Y-84133332D02*
X107905152Y-84171428D01*
X107905152Y-84171428D02*
X107943247Y-84209523D01*
X107943247Y-84209523D02*
X107981342Y-84285713D01*
X107981342Y-84285713D02*
X107981342Y-84590475D01*
X107828961Y-83447618D02*
X108362295Y-83447618D01*
X107524200Y-83638094D02*
X108095628Y-83828571D01*
X108095628Y-83828571D02*
X108095628Y-83333332D01*
X94362295Y-90133332D02*
X93981342Y-90399999D01*
X94362295Y-90590475D02*
X93562295Y-90590475D01*
X93562295Y-90590475D02*
X93562295Y-90285713D01*
X93562295Y-90285713D02*
X93600390Y-90209523D01*
X93600390Y-90209523D02*
X93638485Y-90171428D01*
X93638485Y-90171428D02*
X93714676Y-90133332D01*
X93714676Y-90133332D02*
X93828961Y-90133332D01*
X93828961Y-90133332D02*
X93905152Y-90171428D01*
X93905152Y-90171428D02*
X93943247Y-90209523D01*
X93943247Y-90209523D02*
X93981342Y-90285713D01*
X93981342Y-90285713D02*
X93981342Y-90590475D01*
X94362295Y-89371428D02*
X94362295Y-89828571D01*
X94362295Y-89599999D02*
X93562295Y-89599999D01*
X93562295Y-89599999D02*
X93676580Y-89676190D01*
X93676580Y-89676190D02*
X93752771Y-89752380D01*
X93752771Y-89752380D02*
X93790866Y-89828571D01*
X101866667Y-86662295D02*
X101600000Y-86281342D01*
X101409524Y-86662295D02*
X101409524Y-85862295D01*
X101409524Y-85862295D02*
X101714286Y-85862295D01*
X101714286Y-85862295D02*
X101790476Y-85900390D01*
X101790476Y-85900390D02*
X101828571Y-85938485D01*
X101828571Y-85938485D02*
X101866667Y-86014676D01*
X101866667Y-86014676D02*
X101866667Y-86128961D01*
X101866667Y-86128961D02*
X101828571Y-86205152D01*
X101828571Y-86205152D02*
X101790476Y-86243247D01*
X101790476Y-86243247D02*
X101714286Y-86281342D01*
X101714286Y-86281342D02*
X101409524Y-86281342D01*
X102133333Y-85862295D02*
X102628571Y-85862295D01*
X102628571Y-85862295D02*
X102361905Y-86167057D01*
X102361905Y-86167057D02*
X102476190Y-86167057D01*
X102476190Y-86167057D02*
X102552381Y-86205152D01*
X102552381Y-86205152D02*
X102590476Y-86243247D01*
X102590476Y-86243247D02*
X102628571Y-86319438D01*
X102628571Y-86319438D02*
X102628571Y-86509914D01*
X102628571Y-86509914D02*
X102590476Y-86586104D01*
X102590476Y-86586104D02*
X102552381Y-86624200D01*
X102552381Y-86624200D02*
X102476190Y-86662295D01*
X102476190Y-86662295D02*
X102247619Y-86662295D01*
X102247619Y-86662295D02*
X102171428Y-86624200D01*
X102171428Y-86624200D02*
X102133333Y-86586104D01*
X94362295Y-93133332D02*
X93981342Y-93399999D01*
X94362295Y-93590475D02*
X93562295Y-93590475D01*
X93562295Y-93590475D02*
X93562295Y-93285713D01*
X93562295Y-93285713D02*
X93600390Y-93209523D01*
X93600390Y-93209523D02*
X93638485Y-93171428D01*
X93638485Y-93171428D02*
X93714676Y-93133332D01*
X93714676Y-93133332D02*
X93828961Y-93133332D01*
X93828961Y-93133332D02*
X93905152Y-93171428D01*
X93905152Y-93171428D02*
X93943247Y-93209523D01*
X93943247Y-93209523D02*
X93981342Y-93285713D01*
X93981342Y-93285713D02*
X93981342Y-93590475D01*
X93638485Y-92828571D02*
X93600390Y-92790475D01*
X93600390Y-92790475D02*
X93562295Y-92714285D01*
X93562295Y-92714285D02*
X93562295Y-92523809D01*
X93562295Y-92523809D02*
X93600390Y-92447618D01*
X93600390Y-92447618D02*
X93638485Y-92409523D01*
X93638485Y-92409523D02*
X93714676Y-92371428D01*
X93714676Y-92371428D02*
X93790866Y-92371428D01*
X93790866Y-92371428D02*
X93905152Y-92409523D01*
X93905152Y-92409523D02*
X94362295Y-92866666D01*
X94362295Y-92866666D02*
X94362295Y-92371428D01*
X101390476Y-79162295D02*
X101390476Y-79809914D01*
X101390476Y-79809914D02*
X101428571Y-79886104D01*
X101428571Y-79886104D02*
X101466666Y-79924200D01*
X101466666Y-79924200D02*
X101542857Y-79962295D01*
X101542857Y-79962295D02*
X101695238Y-79962295D01*
X101695238Y-79962295D02*
X101771428Y-79924200D01*
X101771428Y-79924200D02*
X101809523Y-79886104D01*
X101809523Y-79886104D02*
X101847619Y-79809914D01*
X101847619Y-79809914D02*
X101847619Y-79162295D01*
X102190475Y-79238485D02*
X102228571Y-79200390D01*
X102228571Y-79200390D02*
X102304761Y-79162295D01*
X102304761Y-79162295D02*
X102495237Y-79162295D01*
X102495237Y-79162295D02*
X102571428Y-79200390D01*
X102571428Y-79200390D02*
X102609523Y-79238485D01*
X102609523Y-79238485D02*
X102647618Y-79314676D01*
X102647618Y-79314676D02*
X102647618Y-79390866D01*
X102647618Y-79390866D02*
X102609523Y-79505152D01*
X102609523Y-79505152D02*
X102152380Y-79962295D01*
X102152380Y-79962295D02*
X102647618Y-79962295D01*
X108086104Y-77133332D02*
X108124200Y-77171428D01*
X108124200Y-77171428D02*
X108162295Y-77285713D01*
X108162295Y-77285713D02*
X108162295Y-77361904D01*
X108162295Y-77361904D02*
X108124200Y-77476190D01*
X108124200Y-77476190D02*
X108048009Y-77552380D01*
X108048009Y-77552380D02*
X107971819Y-77590475D01*
X107971819Y-77590475D02*
X107819438Y-77628571D01*
X107819438Y-77628571D02*
X107705152Y-77628571D01*
X107705152Y-77628571D02*
X107552771Y-77590475D01*
X107552771Y-77590475D02*
X107476580Y-77552380D01*
X107476580Y-77552380D02*
X107400390Y-77476190D01*
X107400390Y-77476190D02*
X107362295Y-77361904D01*
X107362295Y-77361904D02*
X107362295Y-77285713D01*
X107362295Y-77285713D02*
X107400390Y-77171428D01*
X107400390Y-77171428D02*
X107438485Y-77133332D01*
X107438485Y-76828571D02*
X107400390Y-76790475D01*
X107400390Y-76790475D02*
X107362295Y-76714285D01*
X107362295Y-76714285D02*
X107362295Y-76523809D01*
X107362295Y-76523809D02*
X107400390Y-76447618D01*
X107400390Y-76447618D02*
X107438485Y-76409523D01*
X107438485Y-76409523D02*
X107514676Y-76371428D01*
X107514676Y-76371428D02*
X107590866Y-76371428D01*
X107590866Y-76371428D02*
X107705152Y-76409523D01*
X107705152Y-76409523D02*
X108162295Y-76866666D01*
X108162295Y-76866666D02*
X108162295Y-76371428D01*
X97390476Y-87162295D02*
X97390476Y-87809914D01*
X97390476Y-87809914D02*
X97428571Y-87886104D01*
X97428571Y-87886104D02*
X97466666Y-87924200D01*
X97466666Y-87924200D02*
X97542857Y-87962295D01*
X97542857Y-87962295D02*
X97695238Y-87962295D01*
X97695238Y-87962295D02*
X97771428Y-87924200D01*
X97771428Y-87924200D02*
X97809523Y-87886104D01*
X97809523Y-87886104D02*
X97847619Y-87809914D01*
X97847619Y-87809914D02*
X97847619Y-87162295D01*
X98152380Y-87162295D02*
X98647618Y-87162295D01*
X98647618Y-87162295D02*
X98380952Y-87467057D01*
X98380952Y-87467057D02*
X98495237Y-87467057D01*
X98495237Y-87467057D02*
X98571428Y-87505152D01*
X98571428Y-87505152D02*
X98609523Y-87543247D01*
X98609523Y-87543247D02*
X98647618Y-87619438D01*
X98647618Y-87619438D02*
X98647618Y-87809914D01*
X98647618Y-87809914D02*
X98609523Y-87886104D01*
X98609523Y-87886104D02*
X98571428Y-87924200D01*
X98571428Y-87924200D02*
X98495237Y-87962295D01*
X98495237Y-87962295D02*
X98266666Y-87962295D01*
X98266666Y-87962295D02*
X98190475Y-87924200D01*
X98190475Y-87924200D02*
X98152380Y-87886104D01*
X99447619Y-129943247D02*
X99714285Y-129943247D01*
X99828571Y-130362295D02*
X99447619Y-130362295D01*
X99447619Y-130362295D02*
X99447619Y-129562295D01*
X99447619Y-129562295D02*
X99828571Y-129562295D01*
X100590476Y-130362295D02*
X100133333Y-130362295D01*
X100361905Y-130362295D02*
X100361905Y-129562295D01*
X100361905Y-129562295D02*
X100285714Y-129676580D01*
X100285714Y-129676580D02*
X100209524Y-129752771D01*
X100209524Y-129752771D02*
X100133333Y-129790866D01*
M02*
