%TF.GenerationSoftware,KiCad,Pcbnew,10.0.5*%
%TF.CreationDate,2026-09-14T01:27:47-07:00*%
%TF.ProjectId,sensor,73656e73-6f72-42e6-9b69-6361645f7063,rev?*%
%TF.SameCoordinates,Original*%
%TF.FileFunction,Paste,Top*%
%TF.FilePolarity,Positive*%
%FSLAX46Y46*%
G04 Gerber Fmt 4.6, Leading zero omitted, Abs format (unit mm)*
G04 Created by KiCad (PCBNEW 10.0.5) date 2026-09-14 01:27:47*
%MOMM*%
%LPD*%
G01*
G04 APERTURE LIST*
G04 Aperture macros list*
%AMRoundRect*
0 Rectangle with rounded corners*
0 $1 Rounding radius*
0 $2 $3 $4 $5 $6 $7 $8 $9 X,Y pos of 4 corners*
0 Add a 4 corners polygon primitive as box body*
4,1,4,$2,$3,$4,$5,$6,$7,$8,$9,$2,$3,0*
0 Add four circle primitives for the rounded corners*
1,1,$1+$1,$2,$3*
1,1,$1+$1,$4,$5*
1,1,$1+$1,$6,$7*
1,1,$1+$1,$8,$9*
0 Add four rect primitives between the rounded corners*
20,1,$1+$1,$2,$3,$4,$5,0*
20,1,$1+$1,$4,$5,$6,$7,0*
20,1,$1+$1,$6,$7,$8,$9,0*
20,1,$1+$1,$8,$9,$2,$3,0*%
G04 Aperture macros list end*
%ADD10R,0.650000X0.900000*%
%ADD11R,1.050000X0.800000*%
%ADD12R,0.700000X0.700000*%
%ADD13R,1.620000X2.180000*%
%ADD14R,1.350000X1.100000*%
%ADD15RoundRect,0.050000X-0.675000X-0.100000X0.675000X-0.100000X0.675000X0.100000X-0.675000X0.100000X0*%
%ADD16R,0.900000X0.650000*%
%ADD17RoundRect,0.050000X-0.500000X-0.250000X0.500000X-0.250000X0.500000X0.250000X-0.500000X0.250000X0*%
G04 APERTURE END LIST*
D10*
%TO.C,R5*%
X97275000Y-81000000D03*
X98725000Y-81000000D03*
%TD*%
D11*
%TO.C,C4*%
X106500000Y-88925000D03*
X106500000Y-87075000D03*
%TD*%
D10*
%TO.C,R6*%
X105775000Y-81000000D03*
X107225000Y-81000000D03*
%TD*%
D12*
%TO.C,C3*%
X106750000Y-92700000D03*
X106750000Y-91300000D03*
%TD*%
D13*
%TO.C,D2*%
X99890000Y-71000000D03*
X104110000Y-71000000D03*
%TD*%
D14*
%TO.C,C1*%
X98000000Y-78650000D03*
X98000000Y-75350000D03*
%TD*%
D15*
%TO.C,U1*%
X99800000Y-91000000D03*
X99800000Y-91500000D03*
X99800000Y-92000000D03*
X99800000Y-92500000D03*
X99800000Y-93000000D03*
X104200000Y-93000000D03*
X104200000Y-92500000D03*
X104200000Y-92000000D03*
X104200000Y-91500000D03*
X104200000Y-91000000D03*
%TD*%
D16*
%TO.C,R4*%
X106500000Y-84725000D03*
X106500000Y-83275000D03*
%TD*%
D10*
%TO.C,R1*%
X95275000Y-90000000D03*
X96725000Y-90000000D03*
%TD*%
%TO.C,R3*%
X101275000Y-85000000D03*
X102725000Y-85000000D03*
%TD*%
%TO.C,R2*%
X95275000Y-93000000D03*
X96725000Y-93000000D03*
%TD*%
D17*
%TO.C,U2*%
X100700000Y-76050000D03*
X100700000Y-77000000D03*
X100700000Y-77950000D03*
X103300000Y-77950000D03*
X103300000Y-76050000D03*
%TD*%
D14*
%TO.C,C2*%
X106000000Y-78650000D03*
X106000000Y-75350000D03*
%TD*%
D17*
%TO.C,U3*%
X96700000Y-84050000D03*
X96700000Y-85000000D03*
X96700000Y-85950000D03*
X99300000Y-85950000D03*
X99300000Y-84050000D03*
%TD*%
M02*
