%TF.GenerationSoftware,KiCad,Pcbnew,10.0.5*%
%TF.CreationDate,2026-09-14T01:27:44-07:00*%
%TF.ProjectId,controller,636f6e74-726f-46c6-9c65-722e6b696361,rev?*%
%TF.SameCoordinates,Original*%
%TF.FileFunction,Paste,Top*%
%TF.FilePolarity,Positive*%
%FSLAX46Y46*%
G04 Gerber Fmt 4.6, Leading zero omitted, Abs format (unit mm)*
G04 Created by KiCad (PCBNEW 10.0.5) date 2026-09-14 01:27:44*
%MOMM*%
%LPD*%
G01*
G04 APERTURE LIST*
G04 Aperture macros list*
%AMRoundRect*
0 Rectangle with rounded corners*
0 $1 Rounding radius*
0 $2 $3 $4 $5 $6 $7 $8 $9 X,Y pos of 4 corners*
0 Add a 4 corners polygon primitive as box body*
4,1,4,$2,$3,$4,$5,$6,$7,$8,$9,$2,$3,0*
0 Add four circle primitives for the rounded corners*
1,1,$1+$1,$2,$3*
1,1,$1+$1,$4,$5*
1,1,$1+$1,$6,$7*
1,1,$1+$1,$8,$9*
0 Add four rect primitives between the rounded corners*
20,1,$1+$1,$2,$3,$4,$5,0*
20,1,$1+$1,$4,$5,$6,$7,0*
20,1,$1+$1,$6,$7,$8,$9,0*
20,1,$1+$1,$8,$9,$2,$3,0*%
G04 Aperture macros list end*
%ADD10R,0.700000X0.700000*%
%ADD11R,0.900000X0.650000*%
%ADD12R,0.650000X0.900000*%
%ADD13RoundRect,0.050000X-0.500000X-0.250000X0.500000X-0.250000X0.500000X0.250000X-0.500000X0.250000X0*%
%ADD14RoundRect,0.050000X-0.650000X-0.175000X0.650000X-0.175000X0.650000X0.175000X-0.650000X0.175000X0*%
%ADD15R,2.260000X2.160000*%
%ADD16R,1.100000X2.050000*%
%ADD17R,0.800000X1.050000*%
%ADD18R,2.180000X1.620000*%
%ADD19R,3.350000X1.250000*%
%ADD20RoundRect,0.050000X-0.250000X-0.500000X0.250000X-0.500000X0.250000X0.500000X-0.250000X0.500000X0*%
%ADD21RoundRect,0.250000X-0.050000X-0.325000X0.050000X-0.325000X0.050000X0.325000X-0.050000X0.325000X0*%
%ADD22RoundRect,0.150000X-0.150000X-0.425000X0.150000X-0.425000X0.150000X0.425000X-0.150000X0.425000X0*%
%ADD23RoundRect,0.075000X-0.075000X-0.500000X0.075000X-0.500000X0.075000X0.500000X-0.075000X0.500000X0*%
%ADD24R,0.800000X0.800000*%
%ADD25R,1.250000X3.350000*%
%ADD26R,1.500000X0.900000*%
%ADD27R,2.000000X1.800000*%
%ADD28R,0.600000X1.200000*%
%ADD29R,0.300000X1.400000*%
%ADD30R,1.620000X2.180000*%
%ADD31R,1.100000X1.350000*%
%ADD32R,1.000000X0.700000*%
G04 APERTURE END LIST*
D10*
%TO.C,C21*%
X87300000Y-134900000D03*
X88700000Y-134900000D03*
%TD*%
D11*
%TO.C,R72*%
X54000000Y-83725000D03*
X54000000Y-82275000D03*
%TD*%
D12*
%TO.C,R65*%
X85275000Y-83000000D03*
X86725000Y-83000000D03*
%TD*%
%TO.C,R46*%
X106275000Y-132600000D03*
X107725000Y-132600000D03*
%TD*%
D13*
%TO.C,U5*%
X84700000Y-78550000D03*
X84700000Y-79500000D03*
X84700000Y-80450000D03*
X87300000Y-80450000D03*
X87300000Y-79500000D03*
X87300000Y-78550000D03*
%TD*%
D14*
%TO.C,U3*%
X97800000Y-77025000D03*
X97800000Y-77675000D03*
X97800000Y-78325000D03*
X97800000Y-78975000D03*
X102200000Y-78975000D03*
X102200000Y-78325000D03*
X102200000Y-77675000D03*
X102200000Y-77025000D03*
%TD*%
D11*
%TO.C,R11*%
X71000000Y-67125000D03*
X71000000Y-65675000D03*
%TD*%
D15*
%TO.C,D7*%
X81100000Y-65250000D03*
X81100000Y-70150000D03*
%TD*%
%TO.C,D8*%
X48500000Y-64550000D03*
X48500000Y-69450000D03*
%TD*%
D16*
%TO.C,C47*%
X55350000Y-131000000D03*
X58650000Y-131000000D03*
%TD*%
D17*
%TO.C,C9*%
X109125000Y-51500000D03*
X107275000Y-51500000D03*
%TD*%
D16*
%TO.C,C4*%
X93050000Y-99500000D03*
X96350000Y-99500000D03*
%TD*%
D17*
%TO.C,C20*%
X90375000Y-138000000D03*
X92225000Y-138000000D03*
%TD*%
D11*
%TO.C,R71*%
X58000000Y-72725000D03*
X58000000Y-71275000D03*
%TD*%
D18*
%TO.C,D9*%
X156000000Y-131110000D03*
X156000000Y-126890000D03*
%TD*%
D12*
%TO.C,R51*%
X132725000Y-63100000D03*
X131275000Y-63100000D03*
%TD*%
%TO.C,R83*%
X153275000Y-124000000D03*
X154725000Y-124000000D03*
%TD*%
D19*
%TO.C,R68*%
X86000000Y-74625000D03*
X86000000Y-68375000D03*
%TD*%
D18*
%TO.C,D2*%
X75000000Y-104790000D03*
X75000000Y-109010000D03*
%TD*%
D12*
%TO.C,R50*%
X107775000Y-60500000D03*
X109225000Y-60500000D03*
%TD*%
D20*
%TO.C,U13*%
X55050000Y-68300000D03*
X56000000Y-68300000D03*
X56950000Y-68300000D03*
X56950000Y-65700000D03*
X55050000Y-65700000D03*
%TD*%
D12*
%TO.C,R14*%
X77325000Y-83800000D03*
X75875000Y-83800000D03*
%TD*%
D21*
%TO.C,J4*%
X107800000Y-147645000D03*
D22*
X108600000Y-147645000D03*
D23*
X109750000Y-147645000D03*
X110750000Y-147645000D03*
X111250000Y-147645000D03*
X112250000Y-147645000D03*
D22*
X113400000Y-147645000D03*
D21*
X114200000Y-147645000D03*
D23*
X112750000Y-147645000D03*
X111750000Y-147645000D03*
X110250000Y-147645000D03*
X109250000Y-147645000D03*
%TD*%
D24*
%TO.C,Q3*%
X154050000Y-118200000D03*
X155950000Y-118200000D03*
X155000000Y-115800000D03*
%TD*%
D12*
%TO.C,R52*%
X107775000Y-58000000D03*
X109225000Y-58000000D03*
%TD*%
%TO.C,R84*%
X153275000Y-103000000D03*
X154725000Y-103000000D03*
%TD*%
D10*
%TO.C,C42*%
X82250000Y-80200000D03*
X82250000Y-78800000D03*
%TD*%
%TO.C,C7*%
X79300000Y-98300000D03*
X80700000Y-98300000D03*
%TD*%
D12*
%TO.C,R67*%
X89875000Y-83000000D03*
X91325000Y-83000000D03*
%TD*%
D25*
%TO.C,R69*%
X52875000Y-89000000D03*
X59125000Y-89000000D03*
%TD*%
D12*
%TO.C,R44*%
X107775000Y-63250000D03*
X109225000Y-63250000D03*
%TD*%
D11*
%TO.C,R20*%
X76000000Y-72325000D03*
X76000000Y-70875000D03*
%TD*%
D10*
%TO.C,C45*%
X50500000Y-79700000D03*
X50500000Y-78300000D03*
%TD*%
D16*
%TO.C,C2*%
X70350000Y-101400000D03*
X73650000Y-101400000D03*
%TD*%
D17*
%TO.C,C43*%
X89675000Y-79500000D03*
X91525000Y-79500000D03*
%TD*%
D12*
%TO.C,R85*%
X153275000Y-106000000D03*
X154725000Y-106000000D03*
%TD*%
%TO.C,R2*%
X77225000Y-78300000D03*
X75775000Y-78300000D03*
%TD*%
D24*
%TO.C,Q1*%
X74050000Y-68200000D03*
X75950000Y-68200000D03*
X75000000Y-65800000D03*
%TD*%
D11*
%TO.C,R60*%
X103000000Y-82725000D03*
X103000000Y-81275000D03*
%TD*%
D26*
%TO.C,U1*%
X111450000Y-46490000D03*
X111450000Y-47760000D03*
X111450000Y-49030000D03*
X111450000Y-50300000D03*
X111450000Y-51570000D03*
X111450000Y-52840000D03*
X111450000Y-54110000D03*
X111450000Y-55380000D03*
X111450000Y-56650000D03*
X111450000Y-57920000D03*
X111450000Y-59190000D03*
X111450000Y-60460000D03*
X111450000Y-61730000D03*
X111450000Y-63000000D03*
X128950000Y-63000000D03*
X128950000Y-61730000D03*
X128950000Y-60460000D03*
X128950000Y-59190000D03*
X128950000Y-57920000D03*
X128950000Y-56650000D03*
X128950000Y-55380000D03*
X128950000Y-54110000D03*
X128950000Y-52840000D03*
X128950000Y-51570000D03*
X128950000Y-50300000D03*
X128950000Y-49030000D03*
X128950000Y-47760000D03*
X128950000Y-46490000D03*
D24*
X117445000Y-50960000D03*
X117445000Y-52210000D03*
X117445000Y-53460000D03*
X118695000Y-50960000D03*
X118695000Y-52210000D03*
X118695000Y-53460000D03*
X119945000Y-50960000D03*
X119945000Y-52210000D03*
X119945000Y-53460000D03*
%TD*%
D10*
%TO.C,C46*%
X61500000Y-79700000D03*
X61500000Y-78300000D03*
%TD*%
D12*
%TO.C,R55*%
X103475000Y-55500000D03*
X104925000Y-55500000D03*
%TD*%
D24*
%TO.C,Q2*%
X154050000Y-136200000D03*
X155950000Y-136200000D03*
X155000000Y-133800000D03*
%TD*%
D10*
%TO.C,C31*%
X107200000Y-137400000D03*
X105800000Y-137400000D03*
%TD*%
D27*
%TO.C,L1*%
X85750000Y-95000000D03*
X90250000Y-95000000D03*
%TD*%
D12*
%TO.C,R42*%
X120275000Y-143000000D03*
X121725000Y-143000000D03*
%TD*%
D10*
%TO.C,C30*%
X119300000Y-138500000D03*
X120700000Y-138500000D03*
%TD*%
D12*
%TO.C,R15*%
X75875000Y-86300000D03*
X77325000Y-86300000D03*
%TD*%
D28*
%TO.C,U9*%
X110050000Y-144150000D03*
X111000000Y-144150000D03*
X111950000Y-144150000D03*
X111950000Y-141850000D03*
X111000000Y-141850000D03*
X110050000Y-141850000D03*
%TD*%
D11*
%TO.C,R63*%
X95500000Y-72225000D03*
X95500000Y-70775000D03*
%TD*%
D12*
%TO.C,R64*%
X98775000Y-82000000D03*
X100225000Y-82000000D03*
%TD*%
D10*
%TO.C,C12*%
X76700000Y-74500000D03*
X75300000Y-74500000D03*
%TD*%
D11*
%TO.C,R43*%
X125000000Y-140725000D03*
X125000000Y-139275000D03*
%TD*%
D10*
%TO.C,C40*%
X94500000Y-77700000D03*
X94500000Y-76300000D03*
%TD*%
D11*
%TO.C,R70*%
X54500000Y-72725000D03*
X54500000Y-71275000D03*
%TD*%
D10*
%TO.C,C41*%
X105500000Y-77700000D03*
X105500000Y-76300000D03*
%TD*%
D29*
%TO.C,U8*%
X110000000Y-137200000D03*
X110500000Y-137200000D03*
X111000000Y-137200000D03*
X111500000Y-137200000D03*
X112000000Y-137200000D03*
X112000000Y-132800000D03*
X111500000Y-132800000D03*
X111000000Y-132800000D03*
X110500000Y-132800000D03*
X110000000Y-132800000D03*
%TD*%
D10*
%TO.C,C6*%
X109300000Y-47750000D03*
X107900000Y-47750000D03*
%TD*%
D12*
%TO.C,R54*%
X131275000Y-58000000D03*
X132725000Y-58000000D03*
%TD*%
D20*
%TO.C,U11*%
X92050000Y-67700000D03*
X93000000Y-67700000D03*
X93950000Y-67700000D03*
X93950000Y-65100000D03*
X92050000Y-65100000D03*
%TD*%
D11*
%TO.C,R41*%
X117700000Y-147525000D03*
X117700000Y-146075000D03*
%TD*%
D24*
%TO.C,Q4*%
X154050000Y-100200000D03*
X155950000Y-100200000D03*
X155000000Y-97800000D03*
%TD*%
D11*
%TO.C,R61*%
X106500000Y-82725000D03*
X106500000Y-81275000D03*
%TD*%
%TO.C,R40*%
X104300000Y-147525000D03*
X104300000Y-146075000D03*
%TD*%
D18*
%TO.C,D10*%
X156000000Y-113110000D03*
X156000000Y-108890000D03*
%TD*%
D11*
%TO.C,R62*%
X99000000Y-72225000D03*
X99000000Y-70775000D03*
%TD*%
D10*
%TO.C,C11*%
X72700000Y-81000000D03*
X71300000Y-81000000D03*
%TD*%
D12*
%TO.C,R80*%
X153275000Y-139000000D03*
X154725000Y-139000000D03*
%TD*%
D10*
%TO.C,C8*%
X83100000Y-93800000D03*
X83100000Y-95200000D03*
%TD*%
D12*
%TO.C,R45*%
X107775000Y-65750000D03*
X109225000Y-65750000D03*
%TD*%
%TO.C,R53*%
X107775000Y-54000000D03*
X109225000Y-54000000D03*
%TD*%
%TO.C,R81*%
X153275000Y-142000000D03*
X154725000Y-142000000D03*
%TD*%
D13*
%TO.C,U7*%
X121300000Y-135950000D03*
X121300000Y-135000000D03*
X121300000Y-134050000D03*
X118700000Y-134050000D03*
X118700000Y-135950000D03*
%TD*%
%TO.C,U4*%
X70700000Y-84050000D03*
X70700000Y-85000000D03*
X70700000Y-85950000D03*
X73300000Y-85950000D03*
X73300000Y-85000000D03*
X73300000Y-84050000D03*
%TD*%
D16*
%TO.C,C5*%
X104950000Y-50500000D03*
X101650000Y-50500000D03*
%TD*%
%TO.C,C1*%
X76350000Y-101400000D03*
X79650000Y-101400000D03*
%TD*%
D12*
%TO.C,R66*%
X89775000Y-86000000D03*
X91225000Y-86000000D03*
%TD*%
D18*
%TO.C,D11*%
X156000000Y-95110000D03*
X156000000Y-90890000D03*
%TD*%
D11*
%TO.C,R12*%
X67700000Y-83725000D03*
X67700000Y-82275000D03*
%TD*%
D30*
%TO.C,D1*%
X73110000Y-93600000D03*
X68890000Y-93600000D03*
%TD*%
D14*
%TO.C,U12*%
X53800000Y-77025000D03*
X53800000Y-77675000D03*
X53800000Y-78325000D03*
X53800000Y-78975000D03*
X58200000Y-78975000D03*
X58200000Y-78325000D03*
X58200000Y-77675000D03*
X58200000Y-77025000D03*
%TD*%
D12*
%TO.C,R82*%
X153275000Y-121000000D03*
X154725000Y-121000000D03*
%TD*%
D31*
%TO.C,C44*%
X84350000Y-86500000D03*
X87650000Y-86500000D03*
%TD*%
D20*
%TO.C,U6*%
X79550000Y-75800000D03*
X80500000Y-75800000D03*
X81450000Y-75800000D03*
X81450000Y-73200000D03*
X79550000Y-73200000D03*
%TD*%
D32*
%TO.C,U2*%
X78900000Y-94050000D03*
X78900000Y-95000000D03*
X78900000Y-95950000D03*
X81100000Y-95950000D03*
X81100000Y-95000000D03*
X81100000Y-94050000D03*
%TD*%
D16*
%TO.C,C3*%
X93050000Y-95000000D03*
X96350000Y-95000000D03*
%TD*%
D11*
%TO.C,R73*%
X57500000Y-83725000D03*
X57500000Y-82275000D03*
%TD*%
M02*
