M48
; DRILL file KiCad 10.0.5 date 2026-09-14T01:27:46
; FORMAT={-:-/ absolute / metric / decimal}
; #@! TF.CreationDate,2026-09-14T01:27:46-07:00
; #@! TF.GenerationSoftware,Kicad,Pcbnew,10.0.5
; #@! TF.FileFunction,Plated,1,2,PTH
FMAT,2
METRIC
; #@! TA.AperFunction,Plated,PTH,ViaDrill
T1C0.300
; #@! TA.AperFunction,Plated,PTH,ComponentDrill
T2C1.020
; #@! TA.AperFunction,Plated,PTH,ComponentDrill
T3C1.100
; #@! TA.AperFunction,Plated,PTH,ComponentDrill
T4C1.300
; #@! TA.AperFunction,Plated,PTH,ComponentDrill
T5C1.500
; #@! TA.AperFunction,Plated,PTH,ComponentDrill
T6C2.500
%
G90
G05
T1
X143.3Y-96.3
X143.3Y-103.3
X144.5Y-112.0
X144.7Y-96.3
X144.7Y-103.3
X151.3Y-109.7
X151.3Y-110.5
X164.3Y-106.3
X164.3Y-114.3
X165.7Y-106.3
X165.7Y-114.3
T2
X161.0Y-93.0
X164.0Y-72.0
X164.0Y-75.0
X164.0Y-78.0
X164.0Y-93.0
T3
X84.0Y-109.0
X85.0Y-125.0
X100.24Y-125.0
X114.48Y-109.0
X145.0Y-125.0
X155.16Y-125.0
T4
X41.0Y-65.0
X41.0Y-72.62
X41.0Y-92.0
X41.0Y-99.62
X46.0Y-141.0
X53.62Y-141.0
X60.25Y-120.0
X85.0Y-132.0
X95.0Y-132.0
X101.0Y-141.0
X108.62Y-141.0
X110.0Y-117.0
X113.5Y-124.5
X133.5Y-117.0
X133.5Y-124.5
T5
X58.3Y-57.0
X58.3Y-63.75
T6
X134.3Y-92.75
X134.3Y-98.25
T4
G00X66.55Y-120.0
M15
G01X68.95Y-120.0
M16
G05
M30
